<svg xmlns="http://www.w3.org/2000/svg" xmlns:xlink="http://www.w3.org/1999/xlink" width="425" height="625" viewBox="0 0 425 625">
  <defs>
    <clipPath id="clip-contactBG_phones">
      <rect width="425" height="625"/>
    </clipPath>
  </defs>
  <g id="contactBG_phones" clip-path="url(#clip-contactBG_phones)">
    <rect width="425" height="625" fill="#fff"/>
    <g id="Group_81" data-name="Group 81" transform="translate(183.151 66.581)">
      <path id="Path_115" data-name="Path 115" d="M4774.06,2774.474c-225.32-17.93-233.425,805.638-453.88,603.013s56.734-695.411,56.734-695.411S4999.379,2792.4,4774.06,2774.474Z" transform="translate(-4581 -2850.999)" fill="#119da4"/>
    </g>
    <g id="Group_85" data-name="Group 85" transform="translate(225.275 335.122)">
      <path id="Path_20" data-name="Path 20" d="M409.885,351.129,354.11,339.1l-.725-.156a2.007,2.007,0,0,0-2.225,2.851l22.145,44.971a2,2,0,0,0,3.252.493l15.382-16.218a1.167,1.167,0,0,1,.858-.375,1.208,1.208,0,0,1,1.075.625l3.151,5.828a1.96,1.96,0,0,0,2.195,1.006l.016,0a1.963,1.963,0,0,0,1.555-1.864l.631-13.452a1.227,1.227,0,0,1,.123-.483,1.305,1.305,0,0,1,.316-.391l8.874-7.284a2.008,2.008,0,0,0-.847-3.514Zm.341,2.9-8.874,7.284a1.98,1.98,0,0,0-.312.316l-47.031-21.329a.7.7,0,0,0-.129-.045.8.8,0,0,0-.67,1.43l38.67,28.406a1.924,1.924,0,0,0-.524.4L375.975,386.7a1.2,1.2,0,0,1-1.951-.3l-22.145-44.971a1.207,1.207,0,0,1,1.335-1.709l.742.16,55.758,12.027a1.206,1.206,0,0,1,.512,2.11Z" transform="translate(-350.951 -253.796)" fill="#119da4"/>
      <path id="Path_21" data-name="Path 21" d="M510.952,421.929c-5-1.351-11.092-6.971-9.788-14.7a11.579,11.579,0,0,1,5.7-7.915,23.96,23.96,0,0,1,11.517-3.265,68.344,68.344,0,0,1,13.477,1.02c4.414.641,8.829,1.215,13.263,1.566a170.972,170.972,0,0,0,51.765-3.844q6.278-1.449,12.482-3.4a85.752,85.752,0,0,0,11.465-4.285c4.917-2.36,12.912-6.954,12.26-15.461-.346-4.511-3-8.113-5.681-10.623-3.24-3.035-6.988-5.031-10.66-6.97-17.078-9.019-34.189-17.931-51.284-26.9-3.99-2.092-8.006-4.128-11.878-6.58a39.316,39.316,0,0,1-10.151-8.649c-2.548-3.22-4.825-7.543-4.745-12.376a15.549,15.549,0,0,1,4.124-9.95c5.53-6.293,13.353-8.844,20.424-10.181,8.784-1.66,17.7-1.652,26.486-3.255,7.1-1.295,14.681-3.794,20.453-9.65a18.293,18.293,0,0,0,4.986-8.711,17.121,17.121,0,0,0-1.025-10.337,26.659,26.659,0,0,0-6.68-9.146,40.081,40.081,0,0,0-10.132-6.769c-7.8-3.715-15.994-5.649-23.979-8.5a52.356,52.356,0,0,1-11.509-5.333c-3.081-2.035-6.437-4.777-8.151-8.855-3.536-8.414,4.9-13.429,9.681-15.329a62.247,62.247,0,0,1,10.005-2.864c.721-.155.415-1.594-.3-1.44a59.864,59.864,0,0,0-10.507,3.068,20.308,20.308,0,0,0-8.122,5.481,11.408,11.408,0,0,0-2.578,8.92c.6,4.037,3.207,7.148,5.656,9.4a36.131,36.131,0,0,0,10.673,6.512c3.942,1.671,7.968,2.973,11.993,4.25,8.042,2.552,16.445,4.826,23.7,10.256,5.079,3.8,11.978,10.921,10.288,19.749a17,17,0,0,1-5.485,9.236,31.933,31.933,0,0,1-9.822,5.972c-16.088,6.474-33.794,1.844-49.467,10.638-5.329,2.99-11.8,8.434-11.854,17a20.924,20.924,0,0,0,3.961,11.756,35.511,35.511,0,0,0,9.54,9.108,111.06,111.06,0,0,0,11.393,6.6q6.431,3.378,12.865,6.747l26.029,13.65,12.933,6.782c3.947,2.07,8,4.056,11.584,7.094,2.939,2.488,6.41,6.57,6.111,11.638-.238,4.025-2.912,6.93-5.355,8.872a37.775,37.775,0,0,1-10.254,5.493c-4.079,1.559-8.225,2.852-12.379,4.015a167.12,167.12,0,0,1-25.97,5.083,170.771,170.771,0,0,1-26.383.983q-6.674-.269-13.328-1.068c-4.572-.551-9.125-1.4-13.709-1.776a36.222,36.222,0,0,0-12.416.833,18.025,18.025,0,0,0-9.6,5.72,12.655,12.655,0,0,0-2.686,8.547,15.347,15.347,0,0,0,3.146,8.469,14.237,14.237,0,0,0,7.611,5.109c.715.193,1.02-1.246.3-1.44Z" transform="translate(-440.128 -164.167)" fill="#e6e6e6"/>
      <rect id="Rectangle_27" data-name="Rectangle 27" width="129.992" height="0.899" transform="translate(69.831 258.443)" fill="#3f3d56"/>
      <circle id="Ellipse_4" data-name="Ellipse 4" cx="8.492" cy="8.492" r="8.492" transform="translate(180.915 199.114)" fill="#e6e6e6"/>
      <circle id="Ellipse_5" data-name="Ellipse 5" cx="8.492" cy="8.492" r="8.492" transform="translate(165.423 79.424)" fill="#e6e6e6"/>
      <path id="Path_22" data-name="Path 22" d="M697.567,127.123l-23.579,10.251a4.29,4.29,0,0,0-2.221,5.638l7.322,16.842a4.29,4.29,0,0,0,5.638,2.221l23.58-10.251a4.29,4.29,0,0,0,2.221-5.638l-7.322-16.842A4.29,4.29,0,0,0,697.567,127.123Zm.976,2.246a1.827,1.827,0,0,1,.441-.127l-7.972,15.041L674.638,139.8a1.836,1.836,0,0,1,.325-.183Zm8.786,20.211L683.75,159.83a1.839,1.839,0,0,1-2.416-.952l-7.256-16.691,17.234,4.716a1.224,1.224,0,0,0,1.4-.608l8.344-15.743,7.221,16.61a1.839,1.839,0,0,1-.952,2.416Z" transform="translate(-542.852 -126.768)" fill="#e6e6e6"/>
      <circle id="Ellipse_6" data-name="Ellipse 6" cx="21.47" cy="21.47" r="21.47" transform="translate(106.797 103.51)" fill="#119da4"/>
      <path id="Path_23" data-name="Path 23" d="M649.52,690.2H643.6a2.611,2.611,0,0,1-2.608-2.608V638.245a2.611,2.611,0,0,1,2.608-2.608h5.921a2.611,2.611,0,0,1,2.608,2.608v49.349A2.611,2.611,0,0,1,649.52,690.2Z" transform="translate(-524.635 -431.494)" fill="#2f2e41"/>
      <path id="Path_24" data-name="Path 24" d="M678.712,690.2h-5.921a2.61,2.61,0,0,1-2.608-2.608V638.245a2.611,2.611,0,0,1,2.608-2.608h5.921a2.611,2.611,0,0,1,2.608,2.608v49.349A2.611,2.611,0,0,1,678.712,690.2Z" transform="translate(-542.117 -431.494)" fill="#2f2e41"/>
      <path id="Path_25" data-name="Path 25" d="M714.177,552.273a2.623,2.623,0,0,1-.767-.116,2.592,2.592,0,0,1-1.539-1.271L688.737,507.3a2.607,2.607,0,0,1,1.081-3.526l5.23-2.776a2.607,2.607,0,0,1,3.526,1.081l23.133,43.591a2.607,2.607,0,0,1-1.081,3.526l-5.23,2.776a2.592,2.592,0,0,1-1.219.306Z" transform="translate(-553.044 -350.683)" fill="#119da4"/>
      <path id="Path_26" data-name="Path 26" d="M559.77,487.036a2.593,2.593,0,0,1-.916-.167h0l-46.165-17.44a2.605,2.605,0,0,1-1.515-3.361l2.089-5.539a2.615,2.615,0,0,1,3.364-1.515l46.164,17.436a2.615,2.615,0,0,1,1.519,3.36l-2.092,5.54A2.619,2.619,0,0,1,559.77,487.036Z" transform="translate(-446.795 -325.625)" fill="#119da4"/>
      <rect id="Rectangle_28" data-name="Rectangle 28" width="31.717" height="61.971" rx="6" transform="translate(112.165 150.18)" fill="#2f2e41"/>
      <path id="Path_27" data-name="Path 27" d="M665.017,384.521c1.261,2.768,2.469,6.114,1.111,9.076a4.585,4.585,0,0,1-6.836,2.256c-2.73-1.421-4.49-4.061-6.928-5.87a8.237,8.237,0,0,0-3.813-1.643,15.287,15.287,0,0,0-4.759.461,6.3,6.3,0,0,1-7.956-3.827c-.318-.705-1.355-.094-1.039.607a7.44,7.44,0,0,0,7.282,4.665c1.724-.121,3.39-.678,5.117-.758a6.837,6.837,0,0,1,4.374,1.4c2.677,1.908,4.493,4.838,7.564,6.224a6.138,6.138,0,0,0,4.635.363,6.077,6.077,0,0,0,3.1-2.7c2.015-3.47.721-7.481-.817-10.856-.321-.7-1.358-.093-1.039.607Z" transform="translate(-520.891 -280.568)" fill="#2f2e41"/>
      <path id="Path_28" data-name="Path 28" d="M668.335,435.786a7.384,7.384,0,0,1-4.248-1.012,3.263,3.263,0,0,1-1.284-2.436,2.194,2.194,0,0,1,.746-1.8,2.831,2.831,0,0,1,2.679-.386l-1.083-7.913.8-.109,1.273,9.3-.664-.3a2.429,2.429,0,0,0-2.483.022,1.41,1.41,0,0,0-.462,1.161,2.466,2.466,0,0,0,.955,1.816,6.636,6.636,0,0,0,3.8.858Z" transform="translate(-537.694 -303.638)" fill="#2f2e41"/>
      <rect id="Rectangle_29" data-name="Rectangle 29" width="4.321" height="0.802" transform="translate(119.199 119.281)" fill="#2f2e41"/>
      <rect id="Rectangle_30" data-name="Rectangle 30" width="4.321" height="0.802" transform="translate(132.839 119.281)" fill="#2f2e41"/>
      <path id="Path_29" data-name="Path 29" d="M599.589,499.539l-18.973-5.785a2.407,2.407,0,0,1-1.631-2.894l2.215-8.727a2.407,2.407,0,0,1,3.366-1.582l18.818,8.945a2.411,2.411,0,0,1,1.4,3.1l-2.093,5.54A2.411,2.411,0,0,1,599.589,499.539Z" transform="translate(-487.46 -338.484)" fill="#2f2e41"/>
      <path id="Path_30" data-name="Path 30" d="M689.623,506.5l8.137,18.089a2.407,2.407,0,0,0,3.077,1.252l8.377-3.3a2.407,2.407,0,0,0,1.144-3.539l-11.251-17.537a2.411,2.411,0,0,0-3.253-1l-5.231,2.776A2.411,2.411,0,0,0,689.623,506.5Z" transform="translate(-553.589 -350.384)" fill="#2f2e41"/>
      <path id="Path_31" data-name="Path 31" d="M409.885,351.129,354.11,339.1l-.725-.156a2.007,2.007,0,0,0-2.225,2.851l22.145,44.971a2,2,0,0,0,3.252.493l15.382-16.218a1.167,1.167,0,0,1,.858-.375,1.208,1.208,0,0,1,1.075.625l3.151,5.828a1.96,1.96,0,0,0,2.195,1.006l.016,0a1.963,1.963,0,0,0,1.555-1.864l.631-13.452a1.227,1.227,0,0,1,.123-.483,1.305,1.305,0,0,1,.316-.391l8.874-7.284a2.008,2.008,0,0,0-.847-3.514Zm.341,2.9-8.874,7.284a1.98,1.98,0,0,0-.312.316,1.865,1.865,0,0,0-.214.335,1.921,1.921,0,0,0-.146.381v0a1.9,1.9,0,0,0-.063.421l-.631,13.452a1.165,1.165,0,0,1-.932,1.118l-.008,0a1.168,1.168,0,0,1-1.32-.6l-3.151-5.831a2,2,0,0,0-1.645-1.045h0c-.046,0-.091,0-.136,0a1.951,1.951,0,0,0-.911.226,1.923,1.923,0,0,0-.524.4L375.975,386.7a1.2,1.2,0,0,1-1.951-.3l-22.145-44.971a1.207,1.207,0,0,1,1.335-1.709l.742.16,55.758,12.027a1.206,1.206,0,0,1,.512,2.11Z" transform="translate(-350.951 -253.796)" fill="#3f3d56"/>
      <path id="Path_32" data-name="Path 32" d="M404.089,363.687l-.331.731-.2-.09v0l-46.994-21.309,39.241,28.83h0l.1.08-.473.647-.682-.5-38.67-28.406a.8.8,0,0,1,.67-1.43.7.7,0,0,1,.129.045l47.031,21.329Z" transform="translate(-353.822 -255.779)" fill="#3f3d56"/>
    </g>
  </g>
</svg>
