<svg xmlns="http://www.w3.org/2000/svg" xmlns:xlink="http://www.w3.org/1999/xlink" width="1920" height="1080" viewBox="0 0 1920 1080">
  <defs>
    <clipPath id="clip-contactBG">
      <rect width="1920" height="1080"/>
    </clipPath>
  </defs>
  <g id="contactBG" clip-path="url(#clip-contactBG)">
    <rect width="1920" height="1080" fill="#fff"/>
    <g id="Group_74" data-name="Group 74">
      <path id="Path_115" data-name="Path 115" d="M5186.113,2845.1c-397.557-31.636-411.858,1421.48-800.834,1063.965s100.1-1226.992,100.1-1226.992S5583.67,2876.741,5186.113,2845.1Z" transform="translate(-4581 -2851)" fill="#119da4"/>
    </g>
    <g id="Group_75" data-name="Group 75" transform="translate(1674.224 658.354)">
      <path id="Path_20" data-name="Path 20" d="M423.467,353.948l-68.63-14.8-.892-.192a2.469,2.469,0,0,0-2.737,3.508L378.457,397.8a2.466,2.466,0,0,0,4,.606l18.926-19.956a1.436,1.436,0,0,1,1.056-.461,1.486,1.486,0,0,1,1.323.769l3.877,7.171a2.412,2.412,0,0,0,2.7,1.238l.019,0a2.415,2.415,0,0,0,1.914-2.294l.777-16.552a1.509,1.509,0,0,1,.152-.595,1.606,1.606,0,0,1,.389-.48l10.919-8.963a2.471,2.471,0,0,0-1.043-4.324Zm.419,3.562-10.919,8.963a2.436,2.436,0,0,0-.384.388l-57.87-26.245a.862.862,0,0,0-.159-.056.988.988,0,0,0-.824,1.76l47.582,34.952a2.368,2.368,0,0,0-.644.491l-18.926,19.956a1.481,1.481,0,0,1-2.4-.364l-27.249-55.336a1.485,1.485,0,0,1,1.643-2.1l.913.2,68.608,14.8a1.484,1.484,0,0,1,.63,2.6Z" transform="translate(-350.951 -234.184)" fill="#119da4"/>
      <path id="Path_21" data-name="Path 21" d="M513.506,475.559c-6.156-1.663-13.648-8.578-12.044-18.083.8-4.714,3.849-7.766,7.014-9.739a29.482,29.482,0,0,1,14.172-4.018,84.1,84.1,0,0,1,16.582,1.255c5.432.789,10.864,1.5,16.319,1.927a210.375,210.375,0,0,0,63.7-4.73q7.725-1.783,15.358-4.183a105.512,105.512,0,0,0,14.107-5.273c6.05-2.9,15.888-8.556,15.086-19.024-.425-5.55-3.694-9.983-6.991-13.071-3.986-3.734-8.6-6.191-13.116-8.577-21.014-11.1-42.069-22.063-63.1-33.094-4.909-2.574-9.851-5.08-14.615-8.1a48.377,48.377,0,0,1-12.49-10.642c-3.135-3.962-5.937-9.282-5.838-15.228a19.133,19.133,0,0,1,5.075-12.244c6.8-7.743,16.431-10.883,25.13-12.527,10.809-2.043,21.774-2.033,32.59-4.005,8.733-1.593,18.064-4.668,25.167-11.874a22.509,22.509,0,0,0,6.135-10.719,21.067,21.067,0,0,0-1.262-12.72,32.8,32.8,0,0,0-8.22-11.254,49.318,49.318,0,0,0-12.467-8.329c-9.593-4.571-19.68-6.951-29.505-10.459a64.42,64.42,0,0,1-14.161-6.562c-3.791-2.5-7.92-5.878-10.03-10.9-4.352-10.354,6.03-16.524,11.912-18.862a76.591,76.591,0,0,1,12.311-3.524c.887-.19.511-1.961-.372-1.771a73.661,73.661,0,0,0-12.928,3.775,24.988,24.988,0,0,0-9.994,6.744,14.037,14.037,0,0,0-3.172,10.976c.738,4.968,3.946,8.8,6.959,11.568a44.459,44.459,0,0,0,13.133,8.013c4.851,2.056,9.8,3.658,14.757,5.229,9.9,3.14,20.235,5.938,29.168,12.62,6.249,4.674,14.738,13.438,12.659,24.3a20.919,20.919,0,0,1-6.749,11.365,39.293,39.293,0,0,1-12.086,7.349c-19.8,7.967-41.582,2.27-60.868,13.09-6.557,3.679-14.522,10.377-14.586,20.917a25.747,25.747,0,0,0,4.875,14.465,43.7,43.7,0,0,0,11.739,11.207,136.657,136.657,0,0,0,14.018,8.116q7.913,4.156,15.83,8.3l32.028,16.8,15.914,8.345c4.857,2.547,9.838,4.99,14.254,8.729,3.616,3.061,7.888,8.084,7.519,14.32-.293,4.953-3.583,8.527-6.59,10.916a46.479,46.479,0,0,1-12.617,6.759c-5.019,1.918-10.12,3.509-15.231,4.94a205.635,205.635,0,0,1-31.956,6.255,210.131,210.131,0,0,1-32.463,1.21q-8.213-.33-16.4-1.314c-5.626-.678-11.228-1.722-16.869-2.185a44.569,44.569,0,0,0-15.278,1.025c-4.2,1.124-8.628,3.128-11.812,7.039a15.571,15.571,0,0,0-3.305,10.516,18.885,18.885,0,0,0,3.872,10.421,17.518,17.518,0,0,0,9.365,6.287c.879.238,1.255-1.533.372-1.771Z" transform="translate(-426.36 -158.393)" fill="#e6e6e6"/>
      <rect id="Rectangle_27" data-name="Rectangle 27" width="159.95" height="1.106" transform="translate(85.924 318.004)" fill="#3f3d56"/>
      <circle id="Ellipse_4" data-name="Ellipse 4" cx="10.449" cy="10.449" r="10.449" transform="translate(222.609 245.002)" fill="#e6e6e6"/>
      <circle id="Ellipse_5" data-name="Ellipse 5" cx="10.449" cy="10.449" r="10.449" transform="translate(203.546 97.728)" fill="#e6e6e6"/>
      <path id="Path_22" data-name="Path 22" d="M703.595,127.205l-29.014,12.613a5.279,5.279,0,0,0-2.733,6.938l9.009,20.724a5.279,5.279,0,0,0,6.938,2.733L716.808,157.6a5.279,5.279,0,0,0,2.733-6.938l-9.009-20.724A5.279,5.279,0,0,0,703.595,127.205Zm1.2,2.763a2.249,2.249,0,0,1,.542-.156l-9.809,18.507-20.147-5.513a2.259,2.259,0,0,1,.4-.225Zm10.811,24.869L686.593,167.45a2.262,2.262,0,0,1-2.973-1.171l-8.928-20.538,21.206,5.8a1.506,1.506,0,0,0,1.729-.748l10.267-19.371,8.885,20.439a2.262,2.262,0,0,1-1.171,2.973Z" transform="translate(-513.224 -126.768)" fill="#e6e6e6"/>
      <circle id="Ellipse_6" data-name="Ellipse 6" cx="26.418" cy="26.418" r="26.418" transform="translate(131.41 127.364)" fill="#119da4"/>
      <path id="Path_23" data-name="Path 23" d="M651.485,702.777H644.2a3.212,3.212,0,0,1-3.209-3.208V638.846a3.212,3.212,0,0,1,3.209-3.209h7.286a3.212,3.212,0,0,1,3.209,3.209v60.722A3.212,3.212,0,0,1,651.485,702.777Z" transform="translate(-497.82 -384.447)" fill="#2f2e41"/>
      <path id="Path_24" data-name="Path 24" d="M680.678,702.777h-7.285a3.212,3.212,0,0,1-3.208-3.208V638.846a3.212,3.212,0,0,1,3.209-3.209h7.286a3.212,3.212,0,0,1,3.208,3.209v60.722A3.212,3.212,0,0,1,680.678,702.777Z" transform="translate(-512.602 -384.447)" fill="#2f2e41"/>
      <path id="Path_25" data-name="Path 25" d="M720.11,564.162a3.227,3.227,0,0,1-.944-.142,3.189,3.189,0,0,1-1.893-1.564l-28.465-53.638a3.208,3.208,0,0,1,1.33-4.338l6.435-3.415a3.208,3.208,0,0,1,4.338,1.33l28.465,53.637a3.208,3.208,0,0,1-1.33,4.338l-6.435,3.415a3.189,3.189,0,0,1-1.5.376Z" transform="translate(-521.843 -316.112)" fill="#119da4"/>
      <path id="Path_26" data-name="Path 26" d="M571.009,493.533a3.19,3.19,0,0,1-1.127-.206h0l-56.8-21.46a3.205,3.205,0,0,1-1.864-4.135l2.57-6.816a3.218,3.218,0,0,1,4.14-1.865l56.8,21.455a3.217,3.217,0,0,1,1.869,4.134l-2.575,6.817A3.223,3.223,0,0,1,571.009,493.533Z" transform="translate(-431.998 -294.923)" fill="#119da4"/>
      <rect id="Rectangle_28" data-name="Rectangle 28" width="39.027" height="76.253" rx="6" transform="translate(138.015 184.791)" fill="#2f2e41"/>
      <path id="Path_27" data-name="Path 27" d="M672,384.733c1.552,3.406,3.038,7.523,1.367,11.167a5.642,5.642,0,0,1-8.411,2.776c-3.36-1.748-5.525-5-8.525-7.223a10.136,10.136,0,0,0-4.691-2.022,18.811,18.811,0,0,0-5.856.567c-2.05.382-4.17.583-6.067-.457a8.908,8.908,0,0,1-3.722-4.253c-.391-.867-1.667-.115-1.279.747a9.155,9.155,0,0,0,8.96,5.741c2.122-.149,4.171-.834,6.3-.933a8.413,8.413,0,0,1,5.382,1.721c3.294,2.348,5.529,5.953,9.307,7.658a7.553,7.553,0,0,0,5.7.447,7.477,7.477,0,0,0,3.819-3.326c2.48-4.269.887-9.2-1.006-13.358-.395-.866-1.671-.114-1.279.747Z" transform="translate(-494.654 -256.822)" fill="#2f2e41"/>
      <path id="Path_28" data-name="Path 28" d="M669.612,438.934c-1.632-.046-3.663-.1-5.227-1.246a4.015,4.015,0,0,1-1.58-3,2.7,2.7,0,0,1,.918-2.218,3.483,3.483,0,0,1,3.3-.474l-1.333-9.737.979-.134,1.566,11.447-.817-.374a2.989,2.989,0,0,0-3.055.027,1.735,1.735,0,0,0-.569,1.429,3.034,3.034,0,0,0,1.175,2.235c1.218.889,2.836,1,4.673,1.056Z" transform="translate(-508.862 -276.331)" fill="#2f2e41"/>
      <rect id="Rectangle_29" data-name="Rectangle 29" width="5.317" height="0.987" transform="translate(146.67 146.771)" fill="#2f2e41"/>
      <rect id="Rectangle_30" data-name="Rectangle 30" width="5.317" height="0.987" transform="translate(163.453 146.771)" fill="#2f2e41"/>
      <path id="Path_29" data-name="Path 29" d="M604.355,503.969l-23.345-7.118A2.962,2.962,0,0,1,579,493.289l2.725-10.739a2.962,2.962,0,0,1,4.142-1.946l23.155,11.006a2.967,2.967,0,0,1,1.725,3.816l-2.575,6.817A2.967,2.967,0,0,1,604.355,503.969Z" transform="translate(-466.384 -305.797)" fill="#2f2e41"/>
      <path id="Path_30" data-name="Path 30" d="M689.688,507.958,699.7,530.216a2.962,2.962,0,0,0,3.787,1.541l10.308-4.061a2.962,2.962,0,0,0,1.407-4.355l-13.845-21.578a2.967,2.967,0,0,0-4-1.229l-6.437,3.416A2.967,2.967,0,0,0,689.688,507.958Z" transform="translate(-522.304 -315.86)" fill="#2f2e41"/>
      <path id="Path_31" data-name="Path 31" d="M423.467,353.948l-68.63-14.8-.892-.192a2.469,2.469,0,0,0-2.737,3.508L378.457,397.8a2.466,2.466,0,0,0,4,.606l18.926-19.956a1.436,1.436,0,0,1,1.056-.461,1.486,1.486,0,0,1,1.323.769l3.877,7.171a2.412,2.412,0,0,0,2.7,1.238l.019,0a2.415,2.415,0,0,0,1.914-2.294l.777-16.552a1.509,1.509,0,0,1,.152-.595,1.606,1.606,0,0,1,.389-.48l10.919-8.963a2.471,2.471,0,0,0-1.043-4.324Zm.419,3.562-10.919,8.963a2.436,2.436,0,0,0-.384.388,2.3,2.3,0,0,0-.263.412,2.367,2.367,0,0,0-.179.469v0a2.335,2.335,0,0,0-.078.518l-.776,16.552a1.434,1.434,0,0,1-1.147,1.376l-.01,0a1.437,1.437,0,0,1-1.624-.738l-3.878-7.175A2.463,2.463,0,0,0,402.606,377h0c-.056,0-.113-.005-.168,0a2.4,2.4,0,0,0-1.122.279,2.367,2.367,0,0,0-.644.491l-18.926,19.956a1.481,1.481,0,0,1-2.4-.364l-27.249-55.336a1.485,1.485,0,0,1,1.643-2.1l.913.2,68.608,14.8a1.484,1.484,0,0,1,.63,2.6Z" transform="translate(-350.951 -234.184)" fill="#3f3d56"/>
      <path id="Path_32" data-name="Path 32" d="M415.23,368.637l-.408.9-.252-.111v0L356.745,343.2l48.284,35.474h0l.128.1-.582.8-.84-.618L356.158,344a.988.988,0,0,1,.824-1.76.864.864,0,0,1,.159.056l57.87,26.245Z" transform="translate(-353.379 -235.86)" fill="#3f3d56"/>
    </g>
  </g>
</svg>
