<svg xmlns="http://www.w3.org/2000/svg" xmlns:xlink="http://www.w3.org/1999/xlink" width="768" height="1024" viewBox="0 0 768 1024">
  <defs>
    <clipPath id="clip-contactBG_tablets">
      <rect width="768" height="1024"/>
    </clipPath>
  </defs>
  <g id="contactBG_tablets" clip-path="url(#clip-contactBG_tablets)">
    <rect width="768" height="1024" fill="#fff"/>
    <g id="Group_89" data-name="Group 89" transform="translate(18 -67)">
      <path id="Path_115" data-name="Path 115" d="M5186.113,2845.1c-397.557-31.636-411.858,1421.48-800.834,1063.965s100.1-1226.992,100.1-1226.992S5583.67,2876.741,5186.113,2845.1Z" transform="translate(-4581 -2851)" fill="#119da4"/>
    </g>
    <g id="Group_92" data-name="Group 92" transform="translate(383.999 464.956)">
      <path id="Path_20" data-name="Path 20" d="M464.234,362.411,357.022,339.284l-1.393-.3a3.857,3.857,0,0,0-4.276,5.479l42.567,86.444a3.853,3.853,0,0,0,6.251.947l29.566-31.175a2.244,2.244,0,0,1,1.649-.72,2.321,2.321,0,0,1,2.066,1.2l6.056,11.2a3.768,3.768,0,0,0,4.219,1.933l.03-.007a3.773,3.773,0,0,0,2.99-3.584l1.213-25.857a2.358,2.358,0,0,1,.237-.929,2.509,2.509,0,0,1,.608-.751l17.057-14a3.86,3.86,0,0,0-1.629-6.755Zm.655,5.565-17.057,14a3.806,3.806,0,0,0-.6.607l-90.4-41a1.349,1.349,0,0,0-.248-.087,1.544,1.544,0,0,0-1.287,2.749l74.332,54.6a3.7,3.7,0,0,0-1.007.768l-29.566,31.175a2.314,2.314,0,0,1-3.751-.568l-42.568-86.444a2.319,2.319,0,0,1,2.567-3.285l1.426.308L463.9,363.921a2.319,2.319,0,0,1,.984,4.055Z" transform="translate(-350.951 -175.317)" fill="#119da4"/>
      <path id="Path_21" data-name="Path 21" d="M521.17,636.532c-9.617-2.6-21.321-13.4-18.815-28.25,1.243-7.364,6.012-12.131,10.958-15.214,6.841-4.264,14.631-5.87,22.139-6.276,8.66-.468,17.31.712,25.9,1.961,8.485,1.232,16.971,2.336,25.494,3.01a328.649,328.649,0,0,0,99.5-7.388q12.068-2.785,23.992-6.535a164.825,164.825,0,0,0,22.038-8.237c9.451-4.537,24.82-13.366,23.567-29.718-.665-8.67-5.771-15.595-10.921-20.419-6.227-5.833-13.433-9.671-20.49-13.4-32.828-17.336-65.719-34.466-98.578-51.7-7.669-4.022-15.389-7.936-22.832-12.649-6.968-4.412-13.9-9.538-19.512-16.625-4.9-6.19-9.275-14.5-9.12-23.789.128-7.7,3.634-14.241,7.928-19.127,10.63-12.1,25.668-17,39.258-19.57,16.885-3.192,34.015-3.175,50.911-6.257,13.643-2.489,28.22-7.293,39.315-18.55a35.163,35.163,0,0,0,9.584-16.745,32.91,32.91,0,0,0-1.971-19.87,51.244,51.244,0,0,0-12.841-17.581,77.044,77.044,0,0,0-19.476-13.012c-14.985-7.141-30.743-10.859-46.093-16.339-7.528-2.687-15.132-5.635-22.122-10.251-5.922-3.911-12.373-9.183-15.668-17.022-6.8-16.174,9.42-25.814,18.609-29.465a119.652,119.652,0,0,1,19.233-5.506c1.386-.3.8-3.063-.581-2.767a115.071,115.071,0,0,0-20.2,5.9c-5.542,2.3-11.259,5.328-15.612,10.535a21.929,21.929,0,0,0-4.955,17.146c1.153,7.761,6.165,13.74,10.871,18.072,6.224,5.728,13.321,9.468,20.516,12.517,7.578,3.211,15.317,5.714,23.053,8.169,15.459,4.905,31.611,9.277,45.566,19.715,9.762,7.3,23.023,20.992,19.776,37.962-1.441,7.533-5.819,13.422-10.542,17.754a61.383,61.383,0,0,1-18.88,11.48c-30.925,12.445-64.959,3.545-95.087,20.449-10.243,5.747-22.686,16.211-22.786,32.675-.052,8.553,3.376,16.4,7.615,22.6,5.076,7.426,11.65,12.917,18.339,17.507a213.475,213.475,0,0,0,21.9,12.679q12.362,6.493,24.729,12.969l50.034,26.238,24.86,13.036c7.587,3.979,15.369,7.8,22.268,13.636,5.648,4.782,12.322,12.628,11.746,22.37-.458,7.737-5.6,13.32-10.294,17.053-6.082,4.834-12.913,7.96-19.711,10.558-7.84,3-15.81,5.482-23.794,7.718a321.243,321.243,0,0,1-49.92,9.771,328.262,328.262,0,0,1-50.713,1.89q-12.83-.516-25.619-2.052c-8.789-1.059-17.541-2.689-26.352-3.413-7.97-.654-16.017-.5-23.867,1.6-6.554,1.756-13.478,4.887-18.453,11a24.325,24.325,0,0,0-5.163,16.429,29.5,29.5,0,0,0,6.048,16.28,27.366,27.366,0,0,0,14.63,9.821c1.374.371,1.961-2.395.582-2.767Z" transform="translate(-385.034 -141.062)" fill="#e6e6e6"/>
      <rect id="Rectangle_27" data-name="Rectangle 27" width="249.871" height="1.728" transform="translate(134.228 496.78)" fill="#3f3d56"/>
      <circle id="Ellipse_4" data-name="Ellipse 4" cx="16.323" cy="16.323" r="16.323" transform="translate(347.755 382.738)" fill="#e6e6e6"/>
      <circle id="Ellipse_5" data-name="Ellipse 5" cx="16.323" cy="16.323" r="16.323" transform="translate(317.975 152.668)" fill="#e6e6e6"/>
      <path id="Path_22" data-name="Path 22" d="M721.688,127.451l-45.325,19.7a8.246,8.246,0,0,0-4.27,10.838l14.074,32.375a8.246,8.246,0,0,0,10.838,4.27l45.325-19.7A8.246,8.246,0,0,0,746.6,164.1l-14.074-32.375A8.246,8.246,0,0,0,721.688,127.451Zm1.876,4.317a3.512,3.512,0,0,1,.847-.244l-15.324,28.912-31.473-8.613a3.53,3.53,0,0,1,.625-.351Zm16.889,38.85-45.325,19.7a3.534,3.534,0,0,1-4.645-1.83l-13.948-32.084,33.128,9.066a2.353,2.353,0,0,0,2.7-1.168L728.4,134.043l13.88,31.929a3.534,3.534,0,0,1-1.83,4.645Z" transform="translate(-424.294 -126.767)" fill="#e6e6e6"/>
      <circle id="Ellipse_6" data-name="Ellipse 6" cx="41.27" cy="41.27" r="41.27" transform="translate(205.285 198.966)" fill="#119da4"/>
      <path id="Path_23" data-name="Path 23" d="M657.385,740.521H646a5.018,5.018,0,0,1-5.012-5.012v-94.86A5.018,5.018,0,0,1,646,635.637h11.382a5.018,5.018,0,0,1,5.012,5.012v94.86A5.018,5.018,0,0,1,657.385,740.521Z" transform="translate(-417.332 -243.233)" fill="#2f2e41"/>
      <path id="Path_24" data-name="Path 24" d="M686.577,740.521H675.2a5.018,5.018,0,0,1-5.012-5.012v-94.86a5.018,5.018,0,0,1,5.012-5.012h11.382a5.018,5.018,0,0,1,5.012,5.012v94.86A5.018,5.018,0,0,1,686.577,740.521Z" transform="translate(-424.014 -243.233)" fill="#2f2e41"/>
      <path id="Path_25" data-name="Path 25" d="M737.919,599.845a5.045,5.045,0,0,1-1.475-.222,4.982,4.982,0,0,1-2.958-2.443l-44.467-83.792a5.012,5.012,0,0,1,2.078-6.777l10.053-5.335a5.011,5.011,0,0,1,6.777,2.078l44.467,83.791a5.011,5.011,0,0,1-2.078,6.777l-10.053,5.335a4.984,4.984,0,0,1-2.344.588Z" transform="translate(-428.19 -212.347)" fill="#119da4"/>
      <path id="Path_26" data-name="Path 26" d="M604.742,513.034a4.983,4.983,0,0,1-1.761-.321h0l-88.739-33.524a5.008,5.008,0,0,1-2.911-6.46l4.015-10.647a5.027,5.027,0,0,1,6.467-2.913l88.738,33.516a5.026,5.026,0,0,1,2.92,6.458l-4.022,10.649A5.035,5.035,0,0,1,604.742,513.034Z" transform="translate(-387.582 -202.77)" fill="#119da4"/>
      <rect id="Rectangle_28" data-name="Rectangle 28" width="60.967" height="119.121" rx="6" transform="translate(215.603 288.676)" fill="#2f2e41"/>
      <path id="Path_27" data-name="Path 27" d="M692.94,385.369c2.425,5.321,4.746,11.753,2.136,17.445a8.814,8.814,0,0,1-13.14,4.336c-5.248-2.731-8.631-7.807-13.317-11.284a15.834,15.834,0,0,0-7.329-3.158c-3.079-.4-6.136.325-9.148.886-3.2.6-6.514.911-9.478-.713a13.916,13.916,0,0,1-5.815-6.643c-.61-1.355-2.6-.18-2,1.168,2.521,5.6,7.734,9.409,14,8.968,3.314-.233,6.516-1.3,9.836-1.457a13.143,13.143,0,0,1,8.408,2.688c5.145,3.667,8.637,9.3,14.539,11.964a11.8,11.8,0,0,0,8.91.7,11.68,11.68,0,0,0,5.966-5.2c3.874-6.67,1.386-14.38-1.571-20.868-.617-1.353-2.611-.178-2,1.168Z" transform="translate(-415.901 -185.549)" fill="#2f2e41"/>
      <path id="Path_28" data-name="Path 28" d="M673.442,448.383c-2.549-.072-5.722-.16-8.166-1.946a6.272,6.272,0,0,1-2.468-4.683,4.218,4.218,0,0,1,1.435-3.465,5.441,5.441,0,0,1,5.15-.741l-2.082-15.211,1.529-.209,2.446,17.882-1.276-.585c-1.478-.679-3.51-1.025-4.772.042a2.71,2.71,0,0,0-.889,2.232,4.741,4.741,0,0,0,1.836,3.492c1.9,1.389,4.431,1.569,7.3,1.649Z" transform="translate(-422.323 -194.367)" fill="#2f2e41"/>
      <rect id="Rectangle_29" data-name="Rectangle 29" width="8.306" height="1.542" transform="translate(229.124 229.282)" fill="#2f2e41"/>
      <rect id="Rectangle_30" data-name="Rectangle 30" width="8.306" height="1.542" transform="translate(255.343 229.282)" fill="#2f2e41"/>
      <path id="Path_29" data-name="Path 29" d="M618.659,517.266l-36.469-11.12a4.627,4.627,0,0,1-3.135-5.564l4.257-16.776a4.627,4.627,0,0,1,6.471-3.04l36.172,17.194a4.635,4.635,0,0,1,2.7,5.961l-4.023,10.649A4.635,4.635,0,0,1,618.659,517.266Z" transform="translate(-403.124 -207.685)" fill="#2f2e41"/>
      <path id="Path_30" data-name="Path 30" d="M689.882,512.325,705.523,547.1a4.627,4.627,0,0,0,5.916,2.407l16.1-6.343a4.627,4.627,0,0,0,2.2-6.8l-21.628-33.709a4.635,4.635,0,0,0-6.254-1.92L691.8,506.063A4.635,4.635,0,0,0,689.882,512.325Z" transform="translate(-428.398 -212.233)" fill="#2f2e41"/>
      <path id="Path_31" data-name="Path 31" d="M464.234,362.411,357.022,339.284l-1.393-.3a3.857,3.857,0,0,0-4.276,5.479l42.567,86.444a3.853,3.853,0,0,0,6.251.947l29.566-31.175a2.244,2.244,0,0,1,1.649-.72,2.321,2.321,0,0,1,2.066,1.2l6.056,11.2a3.768,3.768,0,0,0,4.219,1.933l.03-.007a3.773,3.773,0,0,0,2.99-3.584l1.213-25.857a2.358,2.358,0,0,1,.237-.929,2.509,2.509,0,0,1,.608-.751l17.057-14a3.86,3.86,0,0,0-1.629-6.755Zm.655,5.565-17.057,14a3.806,3.806,0,0,0-.6.607,3.583,3.583,0,0,0-.41.644,3.7,3.7,0,0,0-.28.733l0,.008a3.649,3.649,0,0,0-.121.809l-1.213,25.857a2.24,2.24,0,0,1-1.791,2.15l-.015,0a2.245,2.245,0,0,1-2.538-1.152l-6.058-11.209a3.848,3.848,0,0,0-3.161-2.009l-.007,0c-.088,0-.176-.008-.262-.005a3.751,3.751,0,0,0-1.752.435,3.7,3.7,0,0,0-1.007.768l-29.566,31.175a2.314,2.314,0,0,1-3.751-.568l-42.568-86.444a2.319,2.319,0,0,1,2.567-3.285l1.426.308L463.9,363.921a2.319,2.319,0,0,1,.984,4.055Z" transform="translate(-350.951 -175.317)" fill="#3f3d56"/>
      <path id="Path_32" data-name="Path 32" d="M448.67,383.5l-.637,1.4-.393-.174,0-.007-90.332-40.96,75.429,55.417.007,0,.2.153-.909,1.244-1.312-.966L356.389,345a1.544,1.544,0,0,1,1.287-2.749,1.354,1.354,0,0,1,.248.087l90.4,41Z" transform="translate(-352.048 -176.075)" fill="#3f3d56"/>
    </g>
  </g>
</svg>
