<svg xmlns="http://www.w3.org/2000/svg" xmlns:xlink="http://www.w3.org/1999/xlink" width="425" height="625" viewBox="0 0 425 625">
  <defs>
    <clipPath id="clip-errorBG_phones">
      <rect width="425" height="625"/>
    </clipPath>
  </defs>
  <g id="errorBG_phones" clip-path="url(#clip-errorBG_phones)">
    <rect width="425" height="625" fill="#fff"/>
    <g id="Group_81" data-name="Group 81" transform="translate(183.151 66.581)">
      <path id="Path_115" data-name="Path 115" d="M4774.06,2774.474c-225.32-17.93-233.425,805.638-453.88,603.013s56.734-695.411,56.734-695.411S4999.379,2792.4,4774.06,2774.474Z" transform="translate(-4581 -2850.999)" fill="#119da4"/>
    </g>
    <g id="Group_88" data-name="Group 88" transform="translate(155.24 245)">
      <circle id="Ellipse_73" data-name="Ellipse 73" cx="12.644" cy="12.644" r="12.644" transform="translate(15.785 12.297)" fill="#3f3d56"/>
      <circle id="Ellipse_74" data-name="Ellipse 74" cx="12.644" cy="12.644" r="12.644" transform="translate(88.323 16.512)" fill="#3f3d56"/>
      <path id="Path_99" data-name="Path 99" d="M759.614,216.718a12.643,12.643,0,0,0-11.513,7.417,12.642,12.642,0,0,1,19.92,14.668,12.642,12.642,0,0,0-8.407-22.086Z" transform="translate(-658.425 -200.65)" fill="#119da4"/>
      <path id="Path_100" data-name="Path 100" d="M426.642,197.718a12.643,12.643,0,0,1,11.513,7.417,12.642,12.642,0,0,0-19.92,14.668,12.642,12.642,0,0,1,8.407-22.086Z" transform="translate(-398.435 -185.864)" fill="#119da4"/>
      <path id="Path_101" data-name="Path 101" d="M408.031,426.326a32.5,32.5,0,1,1-9.519-23.09A32.635,32.635,0,0,1,408.031,426.326Z" transform="translate(-343 -338.385)" fill="#3f3d56"/>
      <path id="Path_102" data-name="Path 102" d="M493.037,426.326a32.5,32.5,0,0,1-2.93,13.529,38.625,38.625,0,0,1-37.547-45.182,32.635,32.635,0,0,1,40.477,31.653Z" transform="translate(-428.006 -338.385)" fill="#119da4"/>
      <circle id="Ellipse_75" data-name="Ellipse 75" cx="38.598" cy="38.598" r="38.598" transform="translate(23.993 19.396)" fill="#3f3d56"/>
      <path id="Path_103" data-name="Path 103" d="M650.31,331.655a12.644,12.644,0,0,1,17.662-2.611,12.645,12.645,0,1,0-17.662,2.611Z" transform="translate(-578.339 -272.34)" fill="#fff"/>
      <path id="Path_104" data-name="Path 104" d="M517.31,342.655a12.644,12.644,0,0,1,17.662-2.611,12.645,12.645,0,1,0-17.662,2.611Z" transform="translate(-474.842 -280.9)" fill="#fff"/>
      <circle id="Ellipse_76" data-name="Ellipse 76" cx="4.658" cy="4.658" r="4.658" transform="translate(46.176 44.463)" fill="#3f3d56"/>
      <circle id="Ellipse_77" data-name="Ellipse 77" cx="4.658" cy="4.658" r="4.658" transform="translate(76.344 40.913)" fill="#3f3d56"/>
      <circle id="Ellipse_78" data-name="Ellipse 78" cx="2.44" cy="2.44" r="2.44" transform="translate(63.034 56.885)" fill="#ff6584"/>
      <path id="Path_105" data-name="Path 105" d="M449.1,685.448v-10.73h-3.549v10.73a5.325,5.325,0,0,0-3.549,5.02h10.648a5.325,5.325,0,0,0-3.549-5.02Z" transform="translate(-420.226 -557.052)" fill="#3f3d56"/>
      <path id="Path_106" data-name="Path 106" d="M508.1,685.448v-10.73h-3.549v10.73a5.325,5.325,0,0,0-3.549,5.02h10.648a5.325,5.325,0,0,0-3.549-5.02Z" transform="translate(-466.138 -557.052)" fill="#3f3d56"/>
      <path id="Path_107" data-name="Path 107" d="M546.391,167.379a13.861,13.861,0,0,1-2.354-8.66c.335-3.03,2.319-5.986,5.241-6.854s6.541.93,7.092,3.928a24.652,24.652,0,0,1,13.061-10.878c2.554-.9,5.947-1.1,7.424,1.166.731,1.123.809,2.65,1.788,3.565,1.535,1.434,4,.424,6.092.547,2.949.172,5.323,2.925,5.695,5.855a10.8,10.8,0,0,1-2.842,8.124,32.032,32.032,0,0,1-6.866,5.555" transform="translate(-499.581 -144.282)" fill="#3f3d56"/>
      <path id="Path_108" data-name="Path 108" d="M652.15,435.771c.159-.168.323-.33.494-.486q.114-.1.231-.2l.148-.122c.086-.069.113-.086.009-.009a9.675,9.675,0,0,1,1.189-.761q.286-.154.582-.287l.14-.062c-.209.093-.045.019.009,0q.178-.071.358-.136a10.285,10.285,0,0,1,1.366-.384c.214-.044.428-.079.644-.113.145-.023-.183.02-.036.005l.191-.022q.192-.02.384-.033a10.733,10.733,0,0,1,1.386,0c.231.014.46.038.69.065-.231-.027.034.006.115.02q.19.031.378.069a10.091,10.091,0,0,1,1.329.364q.162.057.323.119l.177.071c-.03-.012-.194-.086-.028-.011.209.095.416.192.618.3a9.769,9.769,0,0,1,1.191.759c.115.085-.13-.107-.02-.015.049.041.1.08.149.121q.118.1.233.2c.2.176.382.361.562.552q.247.262.475.541s.171.212.079.1c-.077-.1.032.042.049.066q.138.184.267.375a11.61,11.61,0,0,1,.763,1.294q.161.318.3.644c.021.048.094.224.015.032l.064.156q.078.2.151.394a18.552,18.552,0,0,1,.8,2.982q.072.387.133.775.027.173.052.347s.038.283.018.129c-.018-.137.013.1.016.129.067.54.12,1.082.163,1.625.084,1.065.13,2.132.162,3.2.082,2.707.152,5.415.228,8.123l.465,16.585.465,16.585.058,2.059a1,1,0,1,0,2,0l-.478-17.042-.475-16.928-.239-8.521a54.176,54.176,0,0,0-.507-6.82c-.647-4.16-2.526-8.485-6.542-10.373a11.373,11.373,0,0,0-11.681,1.21,9.167,9.167,0,0,0-1.023.928,1,1,0,0,0,1.412,1.412Z" transform="translate(-582.432 -367.512)" fill="#119da4"/>
      <path id="Path_109" data-name="Path 109" d="M688.109,593.718A1.111,1.111,0,0,0,687,594.827l2.218,33.7a1.114,1.114,0,0,0,1.11,1.124h18.19a1.11,1.11,0,0,0,1.109-1.109l2.219-33.732a1.108,1.108,0,0,0-1.11-1.095Z" transform="translate(-610.878 -494.02)" fill="#e6e6e6"/>
      <path id="Path_110" data-name="Path 110" d="M696.026,601.218a1.109,1.109,0,0,0-1.107,1.183l2.04,30.391a1.112,1.112,0,0,0,1.107,1.035H713.1a1.112,1.112,0,0,0,1.107-1.035l2.04-30.391a1.109,1.109,0,0,0-1.107-1.183Z" transform="translate(-617.038 -499.857)" fill="#119da4"/>
      <path id="Path_111" data-name="Path 111" d="M728.444,624.718a.444.444,0,0,0-.444.444v2.44a.444.444,0,0,0,.444.444h3.771a.444.444,0,0,0,.444-.444v-2.44a.444.444,0,0,0-.444-.444Z" transform="translate(-642.783 -518.143)" fill="#e6e6e6"/>
      <path id="Path_112" data-name="Path 112" d="M747.444,653.718a.444.444,0,0,0-.444.444v2.44a.444.444,0,0,0,.444.444h3.771a.444.444,0,0,0,.444-.444v-2.44a.444.444,0,0,0-.444-.444Z" transform="translate(-657.568 -540.71)" fill="#e6e6e6"/>
      <path id="Path_113" data-name="Path 113" d="M729.444,677.718a.444.444,0,0,0-.444.444v2.44a.444.444,0,0,0,.444.444h3.771a.444.444,0,0,0,.444-.444v-2.44a.444.444,0,0,0-.444-.444Z" transform="translate(-643.561 -559.387)" fill="#e6e6e6"/>
      <path id="Path_114" data-name="Path 114" d="M407.222,553.512a5.647,5.647,0,0,1,2.644,2.328,13.317,13.317,0,0,0,2.289,2.845,3.741,3.741,0,0,0,2.945.885,2.387,2.387,0,0,0,2.089-1.965c.209-1.419-.784-2.732-1.655-3.741l-.235.568a15.1,15.1,0,0,1,3.865,1.45,4.668,4.668,0,0,0,3.874.118,3.514,3.514,0,0,0,1.712-2.476,5.094,5.094,0,0,0-.48-3.243,13.389,13.389,0,0,0-2.739-3.424l-.324.556c1.531.23,3.238.444,4.567-.54a2.707,2.707,0,0,0,1.068-1.558,3.011,3.011,0,0,0-.325-2.04,10.588,10.588,0,0,0-3.2-3.232,46.648,46.648,0,0,0-8.908-5.415c-.386-.179-.724.394-.336.575a46.912,46.912,0,0,1,7.713,4.521,21.378,21.378,0,0,1,3.367,2.779c.824.907,1.575,2.294.675,3.416-1.059,1.319-2.974,1.073-4.443.853a.336.336,0,0,0-.324.556c1.535,1.536,3.358,3.379,3.091,5.743a3.008,3.008,0,0,1-1.324,2.285,4.028,4.028,0,0,1-3.531-.133,15.007,15.007,0,0,0-4-1.456c-.313-.034-.4.373-.235.568a4.7,4.7,0,0,1,1.486,3.022,1.766,1.766,0,0,1-1.782,1.584c-2.277.138-3.427-2.233-4.581-3.788a5.934,5.934,0,0,0-2.789-2.283c-.407-.135-.582.507-.177.642Z" transform="translate(-392.983 -448.012)" fill="#119da4"/>
    </g>
  </g>
</svg>
