<svg xmlns="http://www.w3.org/2000/svg" xmlns:xlink="http://www.w3.org/1999/xlink" width="625" height="424" viewBox="0 0 625 424">
  <defs>
    <clipPath id="clip-aboutBG_phonesL">
      <rect width="625" height="424"/>
    </clipPath>
  </defs>
  <g id="aboutBG_phonesL" clip-path="url(#clip-aboutBG_phonesL)">
    <rect width="625" height="424" fill="#fff"/>
    <g id="Group_81" data-name="Group 81" transform="translate(183.151 66.581)">
      <path id="Path_115" data-name="Path 115" d="M4774.06,2774.474c-225.32-17.93-233.425,805.638-453.88,603.013s56.734-695.411,56.734-695.411S4999.379,2792.4,4774.06,2774.474Z" transform="translate(-4581 -2850.999)" fill="#119da4"/>
    </g>
    <g id="Group_84" data-name="Group 84" transform="translate(413.633 195.73)">
      <path id="Path_33" data-name="Path 33" d="M409.445,346.265c-1.03,0-2.07-.016-3.092-.048l.023-.742c1.466.046,2.963.058,4.436.038l.01.742Q410.135,346.264,409.445,346.265Zm5.845-.172-.044-.741c1.469-.087,2.956-.208,4.421-.362l.078.738C418.269,345.883,416.77,346.006,415.29,346.093Zm-13.4-.116c-1.481-.113-2.977-.262-4.448-.443l.091-.737c1.46.179,2.944.327,4.414.439Zm22.288-.816-.111-.734c1.459-.222,2.93-.479,4.369-.765l.145.728c-1.451.288-2.932.547-4.4.77Zm-31.159-.272c-1.463-.248-2.94-.533-4.389-.848l.158-.726c1.438.313,2.9.6,4.356.841Zm39.925-1.471-.178-.721c1.432-.354,2.873-.746,4.281-1.163l.211.712c-1.419.421-2.87.815-4.314,1.172Zm-48.659-.426c-1.435-.382-2.879-.8-4.292-1.249l.224-.708c1.4.443,2.835.86,4.259,1.238Zm57.228-2.117-.244-.7c1.39-.483,2.788-1.006,4.156-1.553l.276.69C444.322,339.863,442.914,340.389,441.513,340.876Zm-65.761-.582c-1.394-.512-2.8-1.065-4.168-1.643l.288-.684c1.361.574,2.753,1.122,4.136,1.631Zm74.05-2.735-.307-.676c1.335-.607,2.676-1.254,3.988-1.924l.338.661c-1.321.675-2.673,1.328-4.018,1.939Zm-82.3-.74c-1.34-.638-2.685-1.317-4-2.019l.35-.655c1.3.7,2.636,1.37,3.966,2Zm90.248-3.32-.368-.645c1.28-.73,2.558-1.5,3.8-2.282l.4.627c-1.249.79-2.536,1.564-3.826,2.3Zm-98.143-.9c-1.274-.758-2.55-1.557-3.793-2.376l.409-.62c1.233.812,2.5,1.605,3.764,2.357Zm105.688-3.875-.425-.608c1.205-.842,2.408-1.724,3.575-2.621l.452.589C467.717,326.989,466.5,327.877,465.29,328.726ZM352.131,327.68c-1.2-.87-2.4-1.782-3.558-2.711l.463-.58c1.154.921,2.342,1.826,3.531,2.69Zm120.241-4.4-.479-.568c1.123-.948,2.242-1.936,3.324-2.936l.5.545c-1.09,1.008-2.217,2-3.349,2.959ZM345.143,322.1c-1.116-.977-2.225-1.994-3.3-3.022l.514-.536c1.063,1.02,2.163,2.029,3.27,3Zm133.79-4.886-.529-.521c1.036-1.049,2.06-2.136,3.044-3.228l.552.5c-.992,1.1-2.024,2.2-3.068,3.253Zm-140.239-1.3c-1.024-1.077-2.035-2.19-3.006-3.308l.56-.486c.963,1.11,1.967,2.214,2.983,3.282Zm146.223-5.338-.573-.471c.936-1.139,1.857-2.314,2.739-3.493l.595.444C486.788,308.241,485.86,309.425,484.917,310.573Zm-152.08-1.409c-.92-1.162-1.825-2.362-2.691-3.565l.6-.434c.86,1.194,1.758,2.385,2.671,3.539Zm157.437-5.753-.614-.417c.828-1.219,1.639-2.474,2.41-3.73l.633.389c-.778,1.265-1.595,2.53-2.429,3.758Zm-162.653-1.5c-.809-1.24-1.6-2.516-2.353-3.794l.639-.377c.747,1.268,1.533,2.534,2.336,3.765Zm167.336-6.129-.65-.359c.713-1.29,1.405-2.615,2.059-3.937l.666.329c-.659,1.333-1.357,2.667-2.075,3.967ZM323.09,294.224c-.692-1.309-1.364-2.652-2-3.991l.671-.317c.627,1.329,1.293,2.662,1.98,3.96Zm175.832-6.465-.68-.3c.592-1.351,1.16-2.735,1.689-4.112l.693.266c-.533,1.389-1.106,2.783-1.7,4.144Zm-179.637-1.6c-.569-1.366-1.114-2.764-1.62-4.154l.7-.254c.5,1.38,1.043,2.767,1.607,4.122Zm182.847-6.762-.7-.233c.463-1.4.9-2.823,1.3-4.242l.715.2c-.4,1.429-.843,2.868-1.309,4.274Zm-185.9-1.627c-.442-1.415-.857-2.86-1.234-4.3l.718-.189c.374,1.425.786,2.86,1.224,4.264Zm188.317-6.977-.723-.168c.333-1.431.636-2.892.9-4.343l.73.134c-.269,1.462-.575,2.934-.91,4.377Zm-190.585-1.668c-.31-1.45-.59-2.927-.833-4.392l.732-.122c.241,1.453.519,2.919.827,4.358ZM506.17,262l-.736-.1c.2-1.454.368-2.937.5-4.407l.74.067c-.134,1.482-.3,2.976-.5,4.441Zm-193.666-1.7c-.175-1.47-.319-2.967-.427-4.449l.741-.054c.107,1.472.25,2.957.424,4.416ZM506.977,253.1l-.742-.033c.066-1.471.1-2.963.1-4.435h.742c0,1.483-.034,2.986-.1,4.468Zm-195.126-1.708c-.025-.91-.038-1.839-.038-2.76q0-.857.015-1.711l.742.013q-.015.847-.015,1.7c0,.914.013,1.836.038,2.74Zm194.478-3.8c-.015-1.472-.065-2.964-.146-4.435l.741-.041c.082,1.482.132,2.985.148,4.468ZM312.746,242.5l-.741-.046c.093-1.483.221-2.982.38-4.453l.738.08C312.965,239.543,312.838,241.03,312.746,242.5Zm193.09-3.762c-.148-1.464-.333-2.945-.548-4.4l.734-.108c.217,1.468.4,2.961.552,4.435ZM313.7,233.684l-.734-.113c.227-1.469.492-2.949.786-4.4l.728.147c-.291,1.44-.554,2.91-.779,4.367Zm190.837-3.718c-.283-1.448-.6-2.906-.95-4.333l.721-.175c.35,1.438.672,2.907.957,4.366ZM315.46,224.992l-.72-.181c.361-1.438.76-2.888,1.187-4.31l.711.214C316.214,222.126,315.817,223.565,315.46,224.992Zm186.981-3.643c-.414-1.414-.866-2.836-1.345-4.227l.7-.241c.482,1.4.938,2.835,1.356,4.26Zm-184.425-4.863-.7-.246c.493-1.4,1.026-2.814,1.583-4.191l.688.278C319.034,213.693,318.5,215.093,318.015,216.485Zm181.542-3.525c-.542-1.366-1.122-2.738-1.724-4.076l.677-.3c.607,1.349,1.192,2.73,1.737,4.107Zm-178.209-4.715-.675-.31c.62-1.35,1.28-2.7,1.962-4.025l.66.34C322.618,205.561,321.963,206.9,321.348,208.245Zm174.576-3.354c-.664-1.311-1.369-2.624-2.092-3.9l.646-.366c.73,1.289,1.439,2.613,2.108,3.933Zm-170.5-4.54-.643-.37c.741-1.286,1.522-2.573,2.322-3.826l.626.4C326.933,197.8,326.158,199.075,325.423,200.351Zm166.139-3.168c-.785-1.249-1.606-2.493-2.442-3.7l.61-.423c.842,1.214,1.67,2.468,2.461,3.726ZM330.2,192.867l-.607-.428c.856-1.214,1.751-2.424,2.66-3.6l.587.455C331.939,190.462,331.051,191.663,330.2,192.867Zm156.31-2.967c-.895-1.172-1.826-2.337-2.77-3.462l.569-.477c.951,1.134,1.889,2.308,2.791,3.489Zm-150.87-4.046-.565-.481c.961-1.128,1.962-2.251,2.975-3.338l.543.506C337.588,183.62,336.595,184.735,335.641,185.855Zm145.175-2.75c-1-1.086-2.032-2.162-3.075-3.2l.523-.527c1.051,1.044,2.093,2.128,3.1,3.222Zm-139.122-3.736-.519-.531c1.062-1.039,2.16-2.065,3.265-3.052l.494.554c-1.1.979-2.187,2-3.24,3.029Zm132.831-2.517c-1.093-.991-2.222-1.969-3.354-2.906l.474-.572c1.141.944,2.278,1.929,3.379,2.928Zm-126.217-3.39-.469-.576c1.148-.935,2.335-1.857,3.527-2.741l.442.6C350.626,171.618,349.448,172.534,348.308,173.462Zm119.379-2.267c-1.179-.888-2.393-1.759-3.606-2.59l.419-.613c1.223.837,2.446,1.714,3.634,2.609Zm-112.258-3.011-.414-.616c1.229-.827,2.494-1.637,3.761-2.407l.386.634C357.9,166.56,356.649,167.363,355.429,168.184Zm104.93-2c-1.255-.777-2.543-1.533-3.829-2.25l.361-.649c1.3.722,2.595,1.485,3.859,2.267ZM363,163.58l-.356-.651c1.3-.711,2.633-1.4,3.962-2.052l.326.667c-1.319.645-2.642,1.33-3.932,2.036Zm89.6-1.72c-1.321-.658-2.674-1.294-4.022-1.89l.3-.679c1.358.6,2.722,1.241,4.053,1.9Zm-81.65-2.17-.3-.681c1.359-.589,2.749-1.154,4.131-1.679l.264.694c-1.372.521-2.751,1.081-4.1,1.666Zm73.522-1.423c-1.375-.533-2.782-1.042-4.182-1.512l.236-.7c1.411.474,2.829.986,4.214,1.523Zm-65.24-1.721L379,155.84c1.411-.463,2.85-.9,4.279-1.294l.2.715c-1.417.393-2.846.825-4.246,1.284Zm56.821-1.1c-1.416-.4-2.86-.78-4.293-1.117l.17-.723c1.444.34,2.9.719,4.326,1.126Zm-48.275-1.268-.165-.724c1.446-.33,2.92-.632,4.379-.895l.132.73c-1.449.261-2.911.56-4.346.888Zm39.642-.767c-1.446-.271-2.918-.513-4.377-.718l.1-.735c1.47.206,2.954.45,4.411.723Zm-30.914-.808-.1-.736c1.47-.2,2.964-.361,4.442-.49l.065.74c-1.467.128-2.95.292-4.409.486Zm22.131-.426c-1.462-.138-2.951-.244-4.425-.315l.036-.742c1.485.072,2.984.179,4.458.318Zm-13.3-.345-.031-.742c1.365-.057,2.755-.086,4.134-.086h.336l0,.742h-.334c-1.368,0-2.749.029-4.1.086Z" transform="translate(-300.99 -151)" fill="#e6e6e6"/>
      <path id="Path_34" data-name="Path 34" d="M608.349,654.351v-40.6a2.148,2.148,0,0,1,2.145-2.145h4.871a2.148,2.148,0,0,1,2.145,2.145v40.6a2.148,2.148,0,0,1-2.145,2.145h-4.871A2.148,2.148,0,0,1,608.349,654.351Z" transform="translate(-499.66 -459.593)" fill="#2f2e41"/>
      <path id="Path_35" data-name="Path 35" d="M579.156,654.351v-40.6a2.148,2.148,0,0,1,2.145-2.145h4.871a2.148,2.148,0,0,1,2.145,2.145v40.6a2.148,2.148,0,0,1-2.145,2.145H581.3A2.148,2.148,0,0,1,579.156,654.351Z" transform="translate(-480.102 -459.593)" fill="#2f2e41"/>
      <rect id="Rectangle_31" data-name="Rectangle 31" width="23.683" height="26.239" rx="6" transform="translate(96.611 140.756)" fill="#2f2e41"/>
      <path id="Path_36" data-name="Path 36" d="M433.485,376.777s-9.953,4.624-18.376,7.69c-5.227-11.8-12.757-11.357-12.757-11.357l-4.565,3.143.823,4.715-.225,7.708-1.2,4.041,1.718.311.971.176.146-.132a9.975,9.975,0,0,0-.291,2.939l43.181-6.735S441.418,382.315,433.485,376.777Z" transform="translate(-358.189 -299.806)" fill="#e6e6e6"/>
      <rect id="Rectangle_32" data-name="Rectangle 32" width="8.831" height="44.559" rx="4.416" transform="matrix(-0.594, -0.804, 0.804, -0.594, 66.617, 143.168)" fill="#119da4"/>
      <path id="Path_52" data-name="Path 52" d="M2.193,0H6.639A2.193,2.193,0,0,1,8.831,2.193V42.366a2.193,2.193,0,0,1-2.193,2.193H2.193A2.193,2.193,0,0,1,0,42.366V2.193A2.193,2.193,0,0,1,2.193,0Z" transform="matrix(0.883, -0.469, 0.469, 0.883, 112.125, 113.055)" fill="#119da4"/>
      <path id="Path_37" data-name="Path 37" d="M637.372,499l-7.027,4.659a2.1,2.1,0,0,1-2.873-.717l-7.761-14.624a2.1,2.1,0,0,1,1.016-2.781l4.783-2.538a2.1,2.1,0,0,1,2.873.717l10,12.5A2.1,2.1,0,0,1,637.372,499Z" transform="translate(-507.131 -373.237)" fill="#ccc"/>
      <path id="Path_38" data-name="Path 38" d="M527.461,494.4l4.568,6.066a1.98,1.98,0,0,0,2.8.089l12.071-11.33a1.98,1.98,0,0,0,.089-2.8l-3.333-3.552a1.98,1.98,0,0,0-2.8-.089L527.55,491.6A1.98,1.98,0,0,0,527.461,494.4Z" transform="translate(-445.108 -372.929)" fill="#ccc"/>
      <rect id="Rectangle_34" data-name="Rectangle 34" width="26.093" height="50.982" rx="6" transform="translate(95.406 109.259)" fill="#ccc"/>
      <circle id="Ellipse_7" data-name="Ellipse 7" cx="17.663" cy="17.663" r="17.663" transform="translate(90.66 70.865)" fill="#119da4"/>
      <path id="Path_39" data-name="Path 39" d="M604.232,414.3a6.074,6.074,0,0,1-3.495-.832,2.684,2.684,0,0,1-1.056-2,1.805,1.805,0,0,1,.614-1.483,2.328,2.328,0,0,1,2.2-.317l-.891-6.51.654-.09,1.047,7.654-.546-.25a2,2,0,0,0-2.042.018,1.16,1.16,0,0,0-.38.955,2.029,2.029,0,0,0,.786,1.495,5.458,5.458,0,0,0,3.124.705Z" transform="translate(-493.85 -319.875)" fill="#2f2e41"/>
      <rect id="Rectangle_35" data-name="Rectangle 35" width="3.555" height="0.66" transform="translate(100.969 83.84)" fill="#2f2e41"/>
      <rect id="Rectangle_36" data-name="Rectangle 36" width="3.555" height="0.66" transform="translate(112.19 83.84)" fill="#2f2e41"/>
      <path id="Path_40" data-name="Path 40" d="M559.014,340.628a6.484,6.484,0,0,1-5.323-5.852,9.517,9.517,0,0,1,4.284-8.313,18.289,18.289,0,0,1,9.548-2.933,26.24,26.24,0,0,1,17.936,5.912c2.5,2.075,4.832,4.719,5.717,7.912a7.664,7.664,0,0,1-2.087,7.857,5.273,5.273,0,0,1-4.046,1.246,10.057,10.057,0,0,1-4.71-2.095c-2.689-1.955-4.9-4.678-8.172-5.7-2.4-.749-5.519-.09-6.987,2.082a3.953,3.953,0,0,0-.631,1.656.513.513,0,0,0,.346.609.5.5,0,0,0,.609-.346c.385-2.736,3.749-3.757,6.11-3.132,3.442.911,5.752,3.982,8.576,5.933a10.422,10.422,0,0,0,4.994,1.993,6.2,6.2,0,0,0,4.358-1.339,8.474,8.474,0,0,0,2.8-8.131c-.618-3.416-2.917-6.344-5.439-8.61a27.21,27.21,0,0,0-18.6-6.869,20.345,20.345,0,0,0-10.137,2.645,11.071,11.071,0,0,0-5.465,8.261,7.8,7.8,0,0,0,4.2,7.607,6.582,6.582,0,0,0,2.11.6c.632.072.627-.919,0-.99Z" transform="translate(-462.359 -265.903)" fill="#2f2e41"/>
      <path id="Path_41" data-name="Path 41" d="M398.326,392.61l2.1-.674c.225-.43-.186-.154.01-.573,5.3-11.31.4-18.249.4-18.249l-3.79,2.61c-.009-.021-.017-.044-.026-.065,0,0-.674-1.5-1.721-.374a26.568,26.568,0,0,1-.374,17.961l4.266,1.946,1.646-1.946.037-.187-2.947-.268Z" transform="translate(-356.669 -299.81)" fill="#ccc"/>
      <path id="Path_42" data-name="Path 42" d="M458.008,458.054c-16.839-3.742-32.517,4-32.517,4l-.043-.038-6.244-5.575-24.4-39.814,5.95.037c16.539-9.879,39.814-8.532,39.814-8.532C450.6,419.512,458.008,458.054,458.008,458.054Z" transform="translate(-356.593 -323.233)" fill="#3f3d56"/>
      <path id="Path_43" data-name="Path 43" d="M425.448,479.389l-6.244-5.575L394.807,434l5.95.037S424.47,465.356,425.448,479.389Z" transform="translate(-356.593 -340.602)" opacity="0.1"/>
      <ellipse id="Ellipse_8" data-name="Ellipse 8" cx="9.654" cy="6.137" rx="9.654" ry="6.137" transform="translate(58.767 98.819) rotate(-17.052)" fill="#119da4"/>
      <path id="Path_44" data-name="Path 44" d="M322.934,355.309c-1.344,4.97-5.95,8.048-5.95,8.048s-2.425-4.98-1.081-9.95,5.95-8.048,5.95-8.048S324.278,350.339,322.934,355.309Z" transform="translate(-303.458 -281.215)" fill="#ccc"/>
      <path id="Path_45" data-name="Path 45" d="M300.146,355.309c1.345,4.97,5.95,8.048,5.95,8.048s2.425-4.98,1.081-9.95-5.95-8.048-5.95-8.048S298.8,350.339,300.146,355.309Z" transform="translate(-292.901 -281.215)" fill="#ccc"/>
      <path id="Path_46" data-name="Path 46" d="M288.239,364.367c3.689,3.591,4.14,9.112,4.14,9.112s-5.531-.3-9.22-3.893-4.14-9.112-4.14-9.112S284.549,360.776,288.239,364.367Z" transform="translate(-279.019 -291.341)" fill="#3f3d56"/>
      <path id="Path_47" data-name="Path 47" d="M323.64,364.367c-3.689,3.591-4.14,9.112-4.14,9.112s5.531-.3,9.22-3.893,4.14-9.112,4.14-9.112S327.329,360.776,323.64,364.367Z" transform="translate(-306.14 -291.341)" fill="#3f3d56"/>
      <path id="Path_48" data-name="Path 48" d="M883.934,525.309c-1.344,4.97-5.95,8.048-5.95,8.048s-2.425-4.98-1.081-9.95,5.95-8.048,5.95-8.048S885.278,520.339,883.934,525.309Z" transform="translate(-679.311 -395.11)" fill="#ccc"/>
      <path id="Path_49" data-name="Path 49" d="M861.146,525.309c1.344,4.97,5.95,8.048,5.95,8.048s2.425-4.98,1.081-9.95-5.95-8.048-5.95-8.048S859.8,520.339,861.146,525.309Z" transform="translate(-668.754 -395.11)" fill="#ccc"/>
      <path id="Path_50" data-name="Path 50" d="M849.239,534.367c3.689,3.591,4.14,9.112,4.14,9.112s-5.531-.3-9.22-3.893-4.14-9.112-4.14-9.112S845.549,530.776,849.239,534.367Z" transform="translate(-654.872 -405.236)" fill="#3f3d56"/>
      <path id="Path_51" data-name="Path 51" d="M884.64,534.367c-3.689,3.591-4.14,9.112-4.14,9.112s5.531-.3,9.22-3.893,4.14-9.112,4.14-9.112S888.329,530.776,884.64,534.367Z" transform="translate(-681.993 -405.236)" fill="#3f3d56"/>
      <rect id="Rectangle_37" data-name="Rectangle 37" width="76.567" height="0.66" transform="translate(70.614 196.698)" fill="#3f3d56"/>
    </g>
  </g>
</svg>
