<svg xmlns="http://www.w3.org/2000/svg" xmlns:xlink="http://www.w3.org/1999/xlink" width="768" height="1024" viewBox="0 0 768 1024">
  <defs>
    <clipPath id="clip-aboutBG_tablets">
      <rect width="768" height="1024"/>
    </clipPath>
  </defs>
  <g id="aboutBG_tablets" clip-path="url(#clip-aboutBG_tablets)">
    <rect width="768" height="1024" fill="#fff"/>
    <g id="Group_89" data-name="Group 89" transform="translate(18 -67)">
      <path id="Path_115" data-name="Path 115" d="M5186.113,2845.1c-397.557-31.636-411.858,1421.48-800.834,1063.965s100.1-1226.992,100.1-1226.992S5583.67,2876.741,5186.113,2845.1Z" transform="translate(-4581 -2851)" fill="#119da4"/>
    </g>
    <g id="Group_91" data-name="Group 91" transform="translate(384 602.919)">
      <path id="Path_33" data-name="Path 33" d="M489,505.37c-1.869,0-3.757-.03-5.611-.087l.042-1.346c2.661.083,5.377.106,8.051.069l.018,1.347Q490.25,505.37,489,505.37Zm10.608-.312-.079-1.345c2.665-.157,5.365-.378,8.023-.657l.141,1.339C505.011,504.677,502.291,504.9,499.6,505.058Zm-24.318-.21c-2.688-.206-5.4-.476-8.073-.8l.164-1.337c2.649.324,5.344.593,8.011.8Zm40.449-1.482-.2-1.332c2.648-.4,5.317-.869,7.929-1.388l.263,1.321C521.092,502.491,518.4,502.962,515.736,503.366Zm-56.548-.493c-2.655-.45-5.335-.967-7.965-1.538l.286-1.317c2.61.567,5.27,1.08,7.9,1.526Zm72.456-2.669-.324-1.308c2.6-.643,5.213-1.353,7.769-2.111l.383,1.292c-2.576.764-5.209,1.48-7.828,2.127Zm-88.307-.772c-2.6-.693-5.225-1.455-7.79-2.266l.406-1.284c2.545.8,5.146,1.561,7.73,2.247Zm103.858-3.841-.442-1.273c2.522-.877,5.059-1.825,7.542-2.818l.5,1.251C552.294,493.752,549.737,494.707,547.195,495.591ZM427.85,494.535c-2.529-.93-5.075-1.933-7.564-2.982l.523-1.242c2.47,1.041,5,2.036,7.506,2.959Zm134.388-4.964-.558-1.226c2.422-1.1,4.857-2.276,7.237-3.492l.613,1.2c-2.4,1.226-4.851,2.409-7.292,3.519ZM412.87,488.228c-2.431-1.159-4.872-2.391-7.253-3.663l.635-1.188c2.363,1.262,4.785,2.486,7.2,3.636ZM576.655,482.2l-.667-1.17c2.323-1.326,4.642-2.719,6.892-4.142l.72,1.138c-2.267,1.434-4.6,2.839-6.944,4.174Zm-178.112-1.629c-2.313-1.376-4.628-2.826-6.883-4.311l.742-1.125c2.237,1.474,4.535,2.913,6.83,4.278Zm191.8-7.033-.771-1.1c2.188-1.528,4.371-3.129,6.488-4.757l.821,1.069C594.751,470.388,592.551,472,590.346,473.54Zm-205.363-1.9c-2.175-1.58-4.347-3.234-6.457-4.919l.841-1.053c2.094,1.672,4.25,3.314,6.408,4.881ZM603.2,463.662l-.868-1.03c2.039-1.72,4.068-3.513,6.032-5.329l.914.99c-1.978,1.83-4.023,3.636-6.078,5.37Zm-230.9-2.146c-2.025-1.774-4.038-3.618-5.98-5.484l.933-.972c1.928,1.851,3.925,3.682,5.935,5.443Zm242.8-8.867-.959-.946c1.88-1.9,3.739-3.876,5.525-5.858l1,.9c-1.8,2-3.673,3.984-5.567,5.9ZM360.6,450.283c-1.858-1.954-3.694-3.974-5.455-6l1.017-.883c1.748,2.014,3.569,4.018,5.413,5.957ZM625.966,440.6l-1.041-.855c1.7-2.066,3.37-4.2,4.97-6.339l1.079.807C629.362,436.364,627.677,438.514,625.966,440.6Zm-276-2.558c-1.669-2.109-3.312-4.286-4.884-6.471l1.094-.787c1.56,2.168,3.191,4.328,4.847,6.422ZM635.686,427.6l-1.115-.757c1.5-2.213,2.975-4.49,4.374-6.769l1.149.705c-1.411,2.3-2.895,4.591-4.409,6.82ZM340.5,424.883c-1.468-2.251-2.905-4.567-4.271-6.885l1.161-.684c1.356,2.3,2.782,4.6,4.239,6.832Zm303.685-11.123-1.179-.651c1.294-2.341,2.55-4.745,3.736-7.146l1.208.6c-1.2,2.418-2.463,4.84-3.766,7.2Zm-311.907-2.833c-1.257-2.375-2.475-4.812-3.622-7.242l1.219-.575c1.138,2.412,2.347,4.83,3.594,7.187Zm319.1-11.733-1.234-.541c1.074-2.452,2.1-4.963,3.065-7.463l1.258.483c-.967,2.52-2.007,5.05-3.088,7.521Zm-326.008-2.907c-1.033-2.479-2.022-5.015-2.94-7.539l1.267-.461c.911,2.5,1.892,5.021,2.917,7.481Zm331.834-12.272-1.279-.424c.841-2.534,1.634-5.123,2.358-7.7l1.3.364c-.73,2.594-1.53,5.2-2.376,7.757Zm-337.37-2.953c-.8-2.568-1.555-5.191-2.239-7.8l1.3-.342c.679,2.587,1.426,5.19,2.222,7.738ZM661.6,368.4l-1.313-.305c.6-2.6,1.155-5.249,1.64-7.881l1.325.243c-.488,2.653-1.044,5.325-1.652,7.943Zm-345.877-3.028c-.562-2.632-1.07-5.313-1.511-7.97l1.329-.221c.438,2.638.942,5.3,1.5,7.909Zm348.814-12.924-1.336-.183c.363-2.639.669-5.33.91-8l1.342.121c-.243,2.69-.552,5.4-.916,8.06ZM313.066,349.37c-.318-2.667-.579-5.384-.776-8.074l1.344-.1c.2,2.671.454,5.366.77,8.013ZM666,336.294l-1.346-.06c.12-2.67.181-5.378.181-8.048h1.347c0,2.691-.061,5.419-.182,8.109Zm-354.118-3.1c-.046-1.652-.069-3.338-.07-5.009q0-1.555.026-3.1l1.348.024q-.027,1.538-.027,3.081c0,1.659.024,3.332.069,4.972Zm352.943-6.888c-.028-2.671-.117-5.379-.265-8.048l1.345-.075c.149,2.69.239,5.418.268,8.109ZM313.507,317.06l-1.345-.084c.168-2.692.4-5.411.689-8.082l1.34.145C313.9,311.69,313.674,314.388,313.507,317.06Zm350.423-6.828c-.269-2.656-.6-5.344-.995-7.989l1.333-.2c.393,2.665.731,5.373,1,8.049Zm-348.69-9.175-1.332-.206c.413-2.666.893-5.352,1.426-7.986l1.32.267c-.529,2.614-1,5.281-1.414,7.925Zm346.335-6.748c-.514-2.628-1.094-5.274-1.724-7.864l1.309-.319c.635,2.609,1.219,5.276,1.737,7.924Zm-343.143-9.028-1.307-.328c.654-2.61,1.379-5.241,2.154-7.821l1.29.388C319.8,280.08,319.08,282.692,318.431,285.281Zm339.336-6.612c-.751-2.566-1.573-5.146-2.44-7.671l1.274-.438c.875,2.545,1.7,5.146,2.46,7.73Zm-334.7-8.826L321.8,269.4c.9-2.547,1.862-5.106,2.873-7.607l1.249.505C324.917,264.777,323.958,267.317,323.069,269.844Zm329.465-6.4c-.983-2.48-2.036-4.968-3.129-7.4l1.229-.553c1.1,2.447,2.163,4.955,3.153,7.454ZM329.117,254.89l-1.224-.562c1.125-2.451,2.323-4.908,3.56-7.3l1.2.618C331.422,250.019,330.234,252.458,329.117,254.89ZM645.94,248.8c-1.206-2.379-2.484-4.762-3.8-7.084l1.172-.664c1.324,2.34,2.611,4.741,3.826,7.138Zm-309.428-8.239-1.168-.672c1.344-2.334,2.762-4.67,4.213-6.943l1.136.725C339.253,235.929,337.846,238.247,336.513,240.563Zm301.512-5.75c-1.424-2.267-2.915-4.525-4.431-6.711l1.107-.768c1.528,2.2,3.031,4.479,4.465,6.763Zm-292.839-7.831-1.1-.776c1.553-2.2,3.177-4.4,4.828-6.526l1.065.826C348.339,222.617,346.726,224.8,345.185,226.982ZM628.859,221.6c-1.624-2.127-3.315-4.241-5.027-6.284l1.033-.865c1.725,2.059,3.429,4.189,5.065,6.331Zm-273.8-7.343-1.026-.874c1.743-2.047,3.56-4.085,5.4-6.057l.985.919C358.59,210.2,356.788,212.223,355.057,214.255Zm263.467-4.991c-1.81-1.97-3.688-3.923-5.58-5.8l.95-.956c1.907,1.9,3.8,3.862,5.622,5.847Zm-252.482-6.78-.942-.963c1.927-1.885,3.921-3.748,5.926-5.539l.9,1.005c-1.99,1.777-3.968,3.626-5.881,5.5Zm241.064-4.568c-1.984-1.8-4.032-3.573-6.087-5.274l.859-1.038c2.07,1.713,4.134,3.5,6.133,5.314Zm-229.06-6.152-.851-1.045c2.084-1.7,4.238-3.371,6.4-4.975l.8,1.082C382.252,188.419,380.114,190.08,378.046,191.764ZM594.7,187.65c-2.14-1.612-4.342-3.193-6.545-4.7l.76-1.112c2.22,1.518,4.438,3.111,6.595,4.735Zm-203.729-5.464-.752-1.118c2.23-1.5,4.526-2.97,6.825-4.369l.7,1.151C395.461,179.238,393.183,180.7,390.969,182.186Zm190.43-3.632c-2.277-1.409-4.615-2.783-6.95-4.084l.655-1.177c2.353,1.311,4.709,2.7,7,4.115ZM404.7,173.831l-.647-1.182c2.36-1.291,4.779-2.544,7.191-3.724l.592,1.211C409.448,171.306,407.047,172.549,404.7,173.831Zm162.613-3.122c-2.4-1.194-4.853-2.348-7.3-3.43l.545-1.232c2.465,1.09,4.94,2.252,7.356,3.456Zm-148.181-3.937-.536-1.236c2.466-1.069,4.988-2.094,7.5-3.047l.478,1.26c-2.49.946-4.993,1.963-7.44,3.023Zm133.429-2.583c-2.495-.967-5.048-1.891-7.59-2.743l.429-1.278c2.561.86,5.134,1.789,7.648,2.765Zm-118.4-3.124-.42-1.28c2.56-.839,5.173-1.63,7.765-2.349l.36,1.3c-2.572.714-5.164,1.5-7.705,2.331Zm103.12-2c-2.57-.733-5.191-1.415-7.79-2.028l.309-1.311c2.62.617,5.261,1.3,7.851,2.043Zm-87.61-2.3-.3-1.314c2.625-.6,5.3-1.146,7.948-1.624l.239,1.326c-2.629.474-5.282,1.017-7.888,1.612Zm71.943-1.393c-2.624-.492-5.3-.931-7.944-1.3l.187-1.334c2.668.375,5.361.816,8.005,1.312Zm-56.1-1.466-.178-1.336c2.667-.356,5.38-.655,8.062-.889l.117,1.342c-2.662.232-5.353.529-8,.882Zm40.164-.773c-2.654-.25-5.355-.443-8.03-.572l.066-1.346c2.694.131,5.416.325,8.09.577Zm-24.129-.626-.056-1.346c2.476-.1,5-.156,7.5-.157h.61l0,1.347H489c-2.483,0-4.988.053-7.446.155Z" transform="translate(-292.171 -151)" fill="#e6e6e6"/>
      <path id="Path_34" data-name="Path 34" d="M608.349,689.179V615.5a3.9,3.9,0,0,1,3.893-3.893h8.84a3.9,3.9,0,0,1,3.893,3.893v73.679a3.9,3.9,0,0,1-3.893,3.893h-8.84A3.9,3.9,0,0,1,608.349,689.179Z" transform="translate(-411.099 -335.729)" fill="#2f2e41"/>
      <path id="Path_35" data-name="Path 35" d="M579.156,689.179V615.5a3.9,3.9,0,0,1,3.893-3.893h8.84a3.9,3.9,0,0,1,3.893,3.893v73.679a3.9,3.9,0,0,1-3.893,3.893h-8.84A3.9,3.9,0,0,1,579.156,689.179Z" transform="translate(-399.39 -335.729)" fill="#2f2e41"/>
      <rect id="Rectangle_31" data-name="Rectangle 31" width="42.98" height="47.619" rx="6" transform="translate(175.331 255.446)" fill="#2f2e41"/>
      <path id="Path_36" data-name="Path 36" d="M463.06,379.767S445,388.159,429.711,393.724c-9.486-21.413-23.151-20.612-23.151-20.612l-8.285,5.7,1.494,8.556-.407,13.989-2.173,7.334,3.118.564,1.762.319.266-.24a18.1,18.1,0,0,0-.528,5.333l78.367-12.223S477.456,389.817,463.06,379.767Z" transform="translate(-326.411 -240.078)" fill="#e6e6e6"/>
      <rect id="Rectangle_32" data-name="Rectangle 32" width="16.028" height="80.866" rx="6" transform="matrix(-0.594, -0.804, 0.804, -0.594, 120.897, 259.825)" fill="#119da4"/>
      <path id="Path_52" data-name="Path 52" d="M3.98,0h8.068a3.98,3.98,0,0,1,3.98,3.98V76.886a3.98,3.98,0,0,1-3.98,3.98H3.98A3.98,3.98,0,0,1,0,76.886V3.98A3.98,3.98,0,0,1,3.98,0Z" transform="matrix(0.883, -0.469, 0.469, 0.883, 203.486, 205.174)" fill="#119da4"/>
      <path id="Path_37" data-name="Path 37" d="M651.933,512.264l-12.753,8.454a3.81,3.81,0,0,1-5.214-1.3l-14.084-26.54a3.81,3.81,0,0,1,1.844-5.047l8.68-4.607a3.81,3.81,0,0,1,5.213,1.3l18.157,22.692A3.811,3.811,0,0,1,651.933,512.264Z" transform="translate(-415.57 -284.035)" fill="#ccc"/>
      <path id="Path_38" data-name="Path 38" d="M527.9,504.305l8.289,11.008a3.594,3.594,0,0,0,5.08.161l21.907-20.563a3.594,3.594,0,0,0,.161-5.08l-6.05-6.445a3.594,3.594,0,0,0-5.08-.161l-24.147,16A3.594,3.594,0,0,0,527.9,504.305Z" transform="translate(-378.443 -283.851)" fill="#ccc"/>
      <rect id="Rectangle_34" data-name="Rectangle 34" width="47.354" height="92.523" rx="6" transform="translate(173.145 198.286)" fill="#ccc"/>
      <circle id="Ellipse_7" data-name="Ellipse 7" cx="32.055" cy="32.055" r="32.055" transform="translate(164.532 128.607)" fill="#119da4"/>
      <path id="Path_39" data-name="Path 39" d="M607.944,423.456c-1.98-.055-4.445-.125-6.342-1.511a4.871,4.871,0,0,1-1.917-3.638,3.276,3.276,0,0,1,1.114-2.691,4.226,4.226,0,0,1,4-.576l-1.617-11.815,1.187-.163,1.9,13.89-.991-.454c-1.148-.528-2.726-.8-3.706.033a2.1,2.1,0,0,0-.69,1.734,3.682,3.682,0,0,0,1.426,2.712c1.476,1.079,3.441,1.218,5.67,1.28Z" transform="translate(-407.62 -252.092)" fill="#2f2e41"/>
      <rect id="Rectangle_35" data-name="Rectangle 35" width="6.452" height="1.198" transform="translate(183.24 152.154)" fill="#2f2e41"/>
      <rect id="Rectangle_36" data-name="Rectangle 36" width="6.452" height="1.198" transform="translate(203.605 152.154)" fill="#2f2e41"/>
      <path id="Path_40" data-name="Path 40" d="M564.18,355.4c-5.2-.592-9.219-5.57-9.661-10.621-.526-6.009,2.974-11.716,7.774-15.087,5.02-3.526,11.276-5,17.328-5.323a47.622,47.622,0,0,1,32.551,10.729c4.535,3.767,8.77,8.564,10.375,14.359,1.394,5.033.26,10.734-3.788,14.259a9.569,9.569,0,0,1-7.343,2.261c-3.141-.326-6.039-1.978-8.547-3.8-4.879-3.548-8.885-8.49-14.83-10.344-4.359-1.359-10.016-.163-12.679,3.779a7.175,7.175,0,0,0-1.146,3.006.93.93,0,0,0,.627,1.105.9.9,0,0,0,1.105-.628c.7-4.965,6.8-6.817,11.088-5.684,6.246,1.653,10.439,7.227,15.564,10.768a18.913,18.913,0,0,0,9.063,3.618,11.255,11.255,0,0,0,7.908-2.429c4.378-3.457,6.052-9.4,5.084-14.756-1.121-6.2-5.294-11.513-9.872-15.626a49.381,49.381,0,0,0-33.747-12.467c-6.333.145-12.941,1.453-18.4,4.8-5.292,3.247-9.382,8.679-9.917,14.993a14.154,14.154,0,0,0,7.63,13.805,11.947,11.947,0,0,0,3.828,1.081c1.147.131,1.138-1.667,0-1.8Z" transform="translate(-388.769 -219.783)" fill="#2f2e41"/>
      <path id="Path_41" data-name="Path 41" d="M401.1,408.495l3.8-1.222c.408-.781-.338-.28.018-1.039,9.621-20.526.729-33.119.729-33.119l-6.879,4.736c-.017-.039-.031-.079-.048-.119,0,0-1.222-2.716-3.124-.679,0,0,5.976,14.533-.679,32.6l7.742,3.531,2.988-3.531.068-.34-5.348-.486Z" transform="translate(-325.502 -240.08)" fill="#ccc"/>
      <path id="Path_42" data-name="Path 42" d="M509.5,498.777c-30.559-6.791-59.013,7.266-59.013,7.266l-.077-.069-11.331-10.117L394.807,423.6l10.8.068c30.016-17.928,72.255-15.483,72.255-15.483C496.059,428.831,509.5,498.777,509.5,498.777Z" transform="translate(-325.456 -254.101)" fill="#3f3d56"/>
      <path id="Path_43" data-name="Path 43" d="M450.415,516.372l-11.331-10.117L394.807,434l10.8.068S448.64,490.906,450.415,516.372Z" transform="translate(-325.456 -264.499)" opacity="0.1"/>
      <ellipse id="Ellipse_8" data-name="Ellipse 8" cx="17.52" cy="11.137" rx="17.52" ry="11.137" transform="translate(106.651 179.338) rotate(-17.052)" fill="#119da4"/>
      <path id="Path_44" data-name="Path 44" d="M328.993,363.417c-2.44,9.02-10.8,14.606-10.8,14.606s-4.4-9.038-1.962-18.057,10.8-14.606,10.8-14.606S331.433,354.4,328.993,363.417Z" transform="translate(-293.649 -228.949)" fill="#ccc"/>
      <path id="Path_45" data-name="Path 45" d="M300.477,363.417c2.44,9.02,10.8,14.606,10.8,14.606s4.4-9.038,1.961-18.057-10.8-14.606-10.8-14.606S298.036,354.4,300.477,363.417Z" transform="translate(-287.329 -228.949)" fill="#ccc"/>
      <path id="Path_46" data-name="Path 46" d="M295.752,367.54c6.7,6.518,7.513,16.537,7.513,16.537s-10.038-.548-16.733-7.066-7.513-16.537-7.513-16.537S289.056,361.022,295.752,367.54Z" transform="translate(-279.019 -235.011)" fill="#3f3d56"/>
      <path id="Path_47" data-name="Path 47" d="M327.013,367.54c-6.7,6.518-7.513,16.537-7.513,16.537s10.037-.548,16.733-7.066,7.513-16.537,7.513-16.537S333.709,361.022,327.013,367.54Z" transform="translate(-295.254 -235.011)" fill="#3f3d56"/>
      <path id="Path_48" data-name="Path 48" d="M889.993,533.417c-2.44,9.02-10.8,14.606-10.8,14.606s-4.4-9.038-1.962-18.057,10.8-14.606,10.8-14.606S892.433,524.4,889.993,533.417Z" transform="translate(-518.641 -297.128)" fill="#ccc"/>
      <path id="Path_49" data-name="Path 49" d="M861.477,533.417c2.44,9.02,10.8,14.606,10.8,14.606s4.4-9.038,1.962-18.057-10.8-14.606-10.8-14.606S859.036,524.4,861.477,533.417Z" transform="translate(-512.321 -297.128)" fill="#ccc"/>
      <path id="Path_50" data-name="Path 50" d="M856.752,537.54c6.7,6.517,7.513,16.537,7.513,16.537s-10.037-.548-16.733-7.066-7.513-16.537-7.513-16.537S850.056,531.022,856.752,537.54Z" transform="translate(-504.011 -303.19)" fill="#3f3d56"/>
      <path id="Path_51" data-name="Path 51" d="M888.013,537.54c-6.7,6.517-7.513,16.537-7.513,16.537s10.038-.548,16.733-7.066,7.513-16.537,7.513-16.537S894.709,531.022,888.013,537.54Z" transform="translate(-520.246 -303.19)" fill="#3f3d56"/>
      <rect id="Rectangle_37" data-name="Rectangle 37" width="138.955" height="1.198" transform="translate(128.152 356.971)" fill="#3f3d56"/>
    </g>
  </g>
</svg>
