<svg xmlns="http://www.w3.org/2000/svg" xmlns:xlink="http://www.w3.org/1999/xlink" width="1024" height="768" viewBox="0 0 1024 768">
  <defs>
    <clipPath id="clip-aboutBG_web">
      <rect width="1024" height="768"/>
    </clipPath>
  </defs>
  <g id="aboutBG_web" clip-path="url(#clip-aboutBG_web)">
    <rect width="1024" height="768" fill="#fff"/>
    <g id="Group_74" data-name="Group 74" transform="translate(89 -18)">
      <path id="Path_115" data-name="Path 115" d="M4960.341,2806.406c-303.185-24.127-314.09,1084.047-610.73,811.4s76.341-935.727,76.341-935.727S5263.526,2830.532,4960.341,2806.406Z" transform="translate(-4581 -2851)" fill="#119da4"/>
    </g>
    <g id="Group_96" data-name="Group 96" transform="translate(665.851 384)">
      <path id="Path_33" data-name="Path 33" d="M477.085,481.545c-1.743,0-3.5-.028-5.233-.082l.039-1.256c2.482.077,5.016.1,7.51.064l.017,1.257Q478.253,481.544,477.085,481.545Zm9.895-.291L486.905,480c2.486-.147,5-.353,7.484-.612l.131,1.249C492.022,480.9,489.485,481.106,486.979,481.253Zm-22.683-.2c-2.507-.192-5.04-.444-7.53-.749l.153-1.247c2.471.3,4.984.553,7.472.743Zm37.729-1.382-.188-1.242c2.47-.375,4.959-.81,7.4-1.294l.245,1.232C507.022,478.859,504.514,479.3,502.025,479.675Zm-52.746-.46c-2.477-.42-4.976-.9-7.43-1.435l.267-1.229c2.435.529,4.915,1.008,7.373,1.424Zm67.585-2.49-.3-1.22c2.425-.6,4.863-1.262,7.247-1.969l.357,1.205c-2.4.713-4.859,1.38-7.3,1.984Zm-82.37-.72c-2.429-.646-4.874-1.357-7.266-2.114l.379-1.2c2.374.75,4.8,1.456,7.21,2.1Zm96.875-3.583-.412-1.187c2.353-.818,4.719-1.7,7.035-2.629l.466,1.167C536.125,470.707,533.741,471.6,531.369,472.423Zm-111.321-.984c-2.359-.867-4.733-1.8-7.055-2.781l.488-1.159c2.3.971,4.66,1.9,7,2.76Zm125.352-4.63-.52-1.144c2.26-1.027,4.531-2.123,6.75-3.257l.572,1.119c-2.237,1.143-4.525,2.247-6.8,3.282Zm-139.325-1.253c-2.268-1.081-4.544-2.23-6.765-3.417l.592-1.108c2.2,1.178,4.463,2.318,6.714,3.391Zm152.772-5.621-.622-1.091c2.167-1.237,4.33-2.536,6.428-3.864l.671,1.062c-2.114,1.338-4.294,2.648-6.477,3.893Zm-166.137-1.519c-2.157-1.283-4.317-2.636-6.42-4.022l.692-1.049c2.086,1.375,4.23,2.717,6.371,3.991Zm178.909-6.56-.719-1.03c2.041-1.426,4.077-2.919,6.052-4.437l.766,1C575.728,448.914,573.676,450.419,571.62,451.854Zm-191.556-1.77c-2.029-1.473-4.055-3.017-6.023-4.589l.784-.982c1.953,1.559,3.964,3.091,5.977,4.553Zm203.544-7.444-.81-.961c1.9-1.6,3.794-3.277,5.626-4.971l.853.923c-1.845,1.707-3.753,3.392-5.669,5.009Zm-215.374-2c-1.889-1.654-3.766-3.375-5.578-5.115l.87-.907c1.8,1.727,3.661,3.435,5.536,5.077Zm226.48-8.271-.895-.883c1.753-1.777,3.488-3.615,5.154-5.464l.934.841c-1.679,1.864-3.426,3.716-5.193,5.506Zm-237.4-2.207c-1.733-1.822-3.445-3.707-5.088-5.6l.949-.824c1.63,1.878,3.329,3.748,5.049,5.556Zm247.527-9.036-.971-.8c1.584-1.928,3.143-3.917,4.636-5.913l1.006.752C608.012,417.178,606.44,419.183,604.844,421.125ZM347.4,418.739c-1.557-1.967-3.089-4-4.556-6.036l1.02-.734c1.455,2.022,2.976,4.037,4.521,5.99ZM613.911,409l-1.04-.706c1.4-2.064,2.775-4.188,4.08-6.314l1.072.658c-1.317,2.142-2.7,4.283-4.112,6.362Zm-275.339-2.532c-1.369-2.1-2.71-4.26-3.984-6.422l1.083-.638c1.265,2.146,2.595,4.29,3.954,6.373Zm283.267-10.376-1.1-.608c1.207-2.183,2.379-4.426,3.485-6.665l1.127.557c-1.115,2.256-2.3,4.515-3.513,6.715ZM330.9,393.45c-1.172-2.216-2.309-4.489-3.378-6.755l1.137-.536c1.061,2.25,2.189,4.506,3.352,6.7Zm297.648-10.945L627.4,382c1-2.287,1.963-4.63,2.859-6.962l1.173.451c-.9,2.35-1.872,4.711-2.881,7.016Zm-304.09-2.712c-.964-2.312-1.886-4.678-2.742-7.032l1.181-.43c.849,2.336,1.765,4.684,2.721,6.978Zm309.524-11.447-1.193-.4c.784-2.363,1.524-4.779,2.2-7.18l1.21.34c-.681,2.42-1.427,4.854-2.217,7.235ZM319.3,365.593c-.748-2.4-1.45-4.842-2.088-7.273l1.216-.319c.633,2.413,1.33,4.841,2.072,7.218Zm318.784-11.811-1.224-.285c.563-2.422,1.077-4.9,1.529-7.351l1.236.227c-.455,2.475-.974,4.967-1.541,7.409Zm-322.623-2.824c-.524-2.455-1-4.956-1.41-7.434l1.24-.206c.408,2.46.879,4.942,1.4,7.378ZM640.82,338.9l-1.246-.171c.338-2.461.624-4.971.849-7.461l1.252.113c-.227,2.509-.515,5.038-.855,7.518Zm-327.838-2.87c-.3-2.488-.54-5.022-.724-7.531l1.254-.092c.182,2.491.424,5.005.718,7.475Zm329.2-12.2-1.255-.056c.112-2.49.169-5.016.169-7.507h1.257c0,2.51-.057,5.055-.17,7.564Zm-330.309-2.892c-.043-1.541-.065-3.113-.065-4.672q0-1.451.025-2.9l1.257.022q-.025,1.434-.025,2.874c0,1.547.022,3.108.065,4.638Zm329.213-6.425c-.026-2.492-.109-5.017-.247-7.507l1.255-.07c.139,2.509.223,5.053.25,7.564Zm-327.7-8.624-1.254-.079c.157-2.511.373-5.048.643-7.539l1.249.135C313.763,300.886,313.549,303.4,313.393,305.895Zm326.863-6.369c-.251-2.478-.563-4.985-.928-7.452l1.243-.184c.367,2.486.682,5.012.935,7.508Zm-325.247-8.558-1.242-.192c.385-2.486.833-4.992,1.33-7.449l1.232.249c-.493,2.438-.937,4.926-1.319,7.392Zm323.05-6.294c-.479-2.452-1.02-4.92-1.608-7.335l1.221-.3c.592,2.434,1.137,4.921,1.62,7.391Zm-320.073-8.421-1.219-.306c.61-2.434,1.286-4.889,2.009-7.3l1.2.362C319.263,271.4,318.592,273.838,317.986,276.253Zm316.521-6.167c-.7-2.393-1.467-4.8-2.276-7.156l1.188-.409c.816,2.373,1.588,4.8,2.295,7.211Zm-312.195-8.232-1.186-.417c.835-2.376,1.737-4.763,2.68-7.1l1.165.471C324.036,257.127,323.141,259.5,322.313,261.854Zm307.314-5.966c-.917-2.313-1.9-4.634-2.919-6.9l1.146-.516c1.028,2.283,2.017,4.622,2.941,6.952ZM327.953,247.9l-1.142-.525c1.05-2.286,2.167-4.578,3.321-6.813l1.117.576C330.1,243.361,329,245.636,327.953,247.9Zm295.522-5.678c-1.125-2.219-2.317-4.442-3.542-6.608l1.094-.619c1.235,2.182,2.436,4.423,3.569,6.658Zm-288.624-7.685-1.089-.627c1.254-2.177,2.576-4.356,3.93-6.477l1.059.676C337.408,230.219,336.1,232.381,334.852,234.542Zm281.24-5.364c-1.328-2.114-2.719-4.22-4.133-6.26l1.032-.716c1.425,2.056,2.827,4.178,4.165,6.308Zm-273.151-7.3-1.027-.724c1.449-2.055,2.964-4.1,4.5-6.088l.993.77C345.883,217.8,344.379,219.834,342.942,221.873Zm264.6-5.022c-1.515-1.984-3.092-3.956-4.689-5.861l.964-.807c1.609,1.92,3.2,3.907,4.725,5.906ZM352.15,210l-.957-.815c1.626-1.91,3.321-3.811,5.037-5.65l.919.857C355.445,206.22,353.764,208.107,352.15,210ZM597.9,205.347c-1.688-1.838-3.44-3.659-5.2-5.413l.886-.892c1.778,1.768,3.543,3.6,5.244,5.454ZM362.4,199.022l-.879-.9c1.8-1.758,3.657-3.5,5.527-5.166l.837.938c-1.856,1.657-3.7,3.382-5.485,5.127Zm224.857-4.261c-1.85-1.678-3.761-3.333-5.678-4.919l.8-.968c1.931,1.6,3.856,3.266,5.721,4.957Zm-213.66-5.739-.794-.975c1.944-1.583,3.953-3.144,5.971-4.64l.749,1.01C377.516,185.9,375.522,187.452,373.593,189.023Zm202.086-3.838c-2-1.5-4.05-2.978-6.105-4.384l.709-1.037c2.071,1.416,4.14,2.9,6.151,4.417Zm-190.031-5.1-.7-1.043c2.08-1.4,4.222-2.77,6.366-4.075l.653,1.074C389.837,177.34,387.712,178.7,385.647,180.089ZM563.274,176.7c-2.124-1.314-4.305-2.6-6.482-3.809l.611-1.1c2.195,1.222,4.392,2.514,6.533,3.838ZM398.459,172.3l-.6-1.1c2.2-1.2,4.458-2.373,6.708-3.473l.552,1.129C402.883,169.941,400.644,171.1,398.459,172.3Zm151.68-2.912c-2.236-1.114-4.527-2.191-6.809-3.2l.508-1.149c2.3,1.016,4.608,2.1,6.862,3.224Zm-138.218-3.673-.5-1.153c2.3-1,4.653-1.953,6.993-2.842l.446,1.175c-2.323.882-4.657,1.831-6.94,2.82Zm124.458-2.41c-2.327-.9-4.709-1.763-7.079-2.559l.4-1.192c2.388.8,4.789,1.669,7.133,2.579ZM425.94,160.388l-.391-1.194c2.388-.783,4.825-1.52,7.243-2.191l.336,1.211c-2.4.666-4.817,1.4-7.187,2.174Zm96.187-1.869c-2.4-.683-4.842-1.32-7.267-1.891l.288-1.223c2.444.576,4.907,1.217,7.323,1.905Zm-81.72-2.146-.28-1.225c2.449-.559,4.943-1.069,7.413-1.515l.223,1.237c-2.452.443-4.927.948-7.357,1.5Zm67.106-1.3c-2.447-.459-4.94-.868-7.41-1.215l.174-1.245c2.488.35,5,.761,7.467,1.224Zm-52.331-1.368-.166-1.246c2.488-.332,5.018-.611,7.52-.829l.109,1.252c-2.483.216-4.994.494-7.463.823Zm37.464-.721c-2.476-.233-5-.413-7.49-.534l.061-1.256c2.513.122,5.052.3,7.546.538ZM470.14,152.4l-.053-1.256c2.31-.1,4.664-.145,7-.146h.569l0,1.257h-.565c-2.316,0-4.653.049-6.945.145Z" transform="translate(-293.491 -151)" fill="#e6e6e6"/>
      <path id="Path_34" data-name="Path 34" d="M608.349,683.964V615.238a3.636,3.636,0,0,1,3.631-3.631h8.246a3.635,3.635,0,0,1,3.631,3.631v68.725a3.635,3.635,0,0,1-3.631,3.631H611.98A3.635,3.635,0,0,1,608.349,683.964Z" transform="translate(-424.36 -354.277)" fill="#2f2e41"/>
      <path id="Path_35" data-name="Path 35" d="M579.156,683.964V615.238a3.635,3.635,0,0,1,3.631-3.631h8.246a3.636,3.636,0,0,1,3.631,3.631v68.725a3.636,3.636,0,0,1-3.631,3.631h-8.246A3.635,3.635,0,0,1,579.156,683.964Z" transform="translate(-411.477 -354.277)" fill="#2f2e41"/>
      <rect id="Rectangle_31" data-name="Rectangle 31" width="40.09" height="44.418" rx="6" transform="translate(163.543 238.272)" fill="#2f2e41"/>
      <path id="Path_36" data-name="Path 36" d="M458.631,379.319s-16.849,7.827-31.107,13.018c-8.848-19.973-21.594-19.226-21.594-19.226l-7.728,5.321,1.394,7.981-.38,13.049-2.027,6.841,2.909.526,1.643.3.248-.224a16.887,16.887,0,0,0-.492,4.975l73.1-11.4S472.06,388.694,458.631,379.319Z" transform="translate(-331.17 -249.022)" fill="#e6e6e6"/>
      <rect id="Rectangle_32" data-name="Rectangle 32" width="14.95" height="75.429" rx="6" transform="matrix(-0.594, -0.804, 0.804, -0.594, 112.769, 242.356)" fill="#119da4"/>
      <path id="Path_52" data-name="Path 52" d="M3.712,0h7.526A3.712,3.712,0,0,1,14.95,3.712v68a3.712,3.712,0,0,1-3.712,3.712H3.712A3.712,3.712,0,0,1,0,71.717v-68A3.712,3.712,0,0,1,3.712,0Z" transform="matrix(0.883, -0.469, 0.469, 0.883, 189.805, 191.38)" fill="#119da4"/>
      <path id="Path_37" data-name="Path 37" d="M649.753,510.278l-11.9,7.886a3.554,3.554,0,0,1-4.863-1.214l-13.137-24.756a3.554,3.554,0,0,1,1.72-4.708l8.1-4.3a3.554,3.554,0,0,1,4.863,1.214l16.936,21.166A3.555,3.555,0,0,1,649.753,510.278Z" transform="translate(-429.281 -297.393)" fill="#ccc"/>
      <path id="Path_38" data-name="Path 38" d="M527.833,502.823l7.732,10.268a3.352,3.352,0,0,0,4.738.15l20.434-19.18a3.352,3.352,0,0,0,.15-4.738l-5.643-6.012a3.352,3.352,0,0,0-4.738-.15l-22.523,14.924A3.352,3.352,0,0,0,527.833,502.823Z" transform="translate(-388.426 -297.19)" fill="#ccc"/>
      <rect id="Rectangle_34" data-name="Rectangle 34" width="44.17" height="86.302" rx="6" transform="translate(161.504 184.954)" fill="#ccc"/>
      <circle id="Ellipse_7" data-name="Ellipse 7" cx="29.9" cy="29.9" r="29.9" transform="translate(153.47 119.96)" fill="#119da4"/>
      <path id="Path_39" data-name="Path 39" d="M607.388,422.085c-1.847-.052-4.146-.116-5.916-1.409a4.544,4.544,0,0,1-1.788-3.393,3.056,3.056,0,0,1,1.039-2.51,3.941,3.941,0,0,1,3.731-.537l-1.508-11.021,1.108-.152,1.772,12.956-.924-.424c-1.071-.492-2.543-.742-3.457.03a1.963,1.963,0,0,0-.644,1.617,3.434,3.434,0,0,0,1.33,2.53c1.377,1.006,3.21,1.136,5.288,1.194Z" transform="translate(-420.533 -262.242)" fill="#2f2e41"/>
      <rect id="Rectangle_35" data-name="Rectangle 35" width="6.018" height="1.117" transform="translate(170.921 141.924)" fill="#2f2e41"/>
      <rect id="Rectangle_36" data-name="Rectangle 36" width="6.018" height="1.117" transform="translate(189.916 141.924)" fill="#2f2e41"/>
      <path id="Path_40" data-name="Path 40" d="M563.406,353.184c-4.846-.553-8.6-5.2-9.011-9.907-.49-5.6,2.774-10.928,7.252-14.073,4.683-3.289,10.517-4.663,16.163-4.965a44.42,44.42,0,0,1,30.363,10.008c4.23,3.513,8.18,7.988,9.678,13.394,1.3,4.694.242,10.013-3.534,13.3a8.925,8.925,0,0,1-6.849,2.109,17.024,17.024,0,0,1-7.973-3.546c-4.551-3.309-8.288-7.919-13.833-9.649-4.066-1.268-9.342-.152-11.827,3.525a6.691,6.691,0,0,0-1.068,2.8.868.868,0,0,0,.585,1.031.843.843,0,0,0,1.031-.585c.652-4.631,6.347-6.359,10.342-5.3,5.826,1.542,9.737,6.741,14.517,10.044a17.641,17.641,0,0,0,8.454,3.374,10.5,10.5,0,0,0,7.377-2.266c4.083-3.225,5.645-8.771,4.742-13.764-1.045-5.783-4.938-10.739-9.208-14.575a46.061,46.061,0,0,0-31.478-11.628c-5.907.136-12.071,1.355-17.16,4.477-4.936,3.029-8.752,8.1-9.25,13.985a13.2,13.2,0,0,0,7.117,12.877,11.143,11.143,0,0,0,3.571,1.008c1.07.122,1.061-1.555,0-1.676Z" transform="translate(-399.789 -226.689)" fill="#2f2e41"/>
      <path id="Path_41" data-name="Path 41" d="M400.685,406.116l3.547-1.14c.38-.728-.315-.261.017-.969,8.975-19.146.68-30.892.68-30.892l-6.416,4.418c-.016-.036-.029-.074-.045-.111,0,0-1.14-2.534-2.914-.633,0,0,5.574,13.556-.633,30.4l7.221,3.294,2.787-3.294.063-.317L400,406.423Z" transform="translate(-330.169 -249.025)" fill="#ccc"/>
      <path id="Path_42" data-name="Path 42" d="M501.793,492.679c-28.5-6.334-55.045,6.778-55.045,6.778l-.072-.065-10.57-9.437-41.3-67.4,10.071.063c28-16.723,67.4-14.442,67.4-14.442C489.252,427.436,501.793,492.679,501.793,492.679Z" transform="translate(-330.119 -264.454)" fill="#3f3d56"/>
      <path id="Path_43" data-name="Path 43" d="M446.676,510.834l-10.57-9.437-41.3-67.4,10.071.063S445.02,487.08,446.676,510.834Z" transform="translate(-330.119 -275.895)" opacity="0.1"/>
      <ellipse id="Ellipse_8" data-name="Ellipse 8" cx="16.342" cy="10.388" rx="16.342" ry="10.388" transform="translate(99.48 167.28) rotate(-17.052)" fill="#119da4"/>
      <path id="Path_44" data-name="Path 44" d="M328.086,362.2c-2.276,8.413-10.071,13.624-10.071,13.624s-4.106-8.43-1.83-16.843,10.072-13.624,10.072-13.624S330.362,353.79,328.086,362.2Z" transform="translate(-295.118 -236.776)" fill="#ccc"/>
      <path id="Path_45" data-name="Path 45" d="M300.427,362.2c2.276,8.413,10.072,13.624,10.072,13.624s4.106-8.43,1.83-16.843-10.071-13.624-10.071-13.624S298.151,353.79,300.427,362.2Z" transform="translate(-288.163 -236.776)" fill="#ccc"/>
      <path id="Path_46" data-name="Path 46" d="M294.627,367.065c6.245,6.079,7.008,15.425,7.008,15.425s-9.363-.511-15.608-6.591-7.008-15.425-7.008-15.425S288.381,360.985,294.627,367.065Z" transform="translate(-279.019 -243.446)" fill="#3f3d56"/>
      <path id="Path_47" data-name="Path 47" d="M326.508,367.065c-6.245,6.079-7.008,15.425-7.008,15.425s9.363-.511,15.608-6.591,7.008-15.425,7.008-15.425S332.753,360.985,326.508,367.065Z" transform="translate(-296.884 -243.446)" fill="#3f3d56"/>
      <path id="Path_48" data-name="Path 48" d="M889.086,532.2c-2.276,8.413-10.071,13.624-10.071,13.624s-4.106-8.43-1.83-16.843,10.072-13.624,10.072-13.624S891.362,523.789,889.086,532.2Z" transform="translate(-542.701 -311.801)" fill="#ccc"/>
      <path id="Path_49" data-name="Path 49" d="M861.427,532.2c2.276,8.413,10.071,13.624,10.071,13.624s4.106-8.43,1.83-16.843-10.072-13.624-10.072-13.624S859.151,523.789,861.427,532.2Z" transform="translate(-535.747 -311.801)" fill="#ccc"/>
      <path id="Path_50" data-name="Path 50" d="M855.627,537.065c6.245,6.079,7.008,15.425,7.008,15.425s-9.363-.511-15.608-6.591-7.008-15.425-7.008-15.425S849.381,530.985,855.627,537.065Z" transform="translate(-526.602 -318.471)" fill="#3f3d56"/>
      <path id="Path_51" data-name="Path 51" d="M887.508,537.065c-6.245,6.079-7.008,15.425-7.008,15.425s9.363-.511,15.608-6.591,7.008-15.425,7.008-15.425S893.753,530.985,887.508,537.065Z" transform="translate(-544.467 -318.471)" fill="#3f3d56"/>
      <rect id="Rectangle_37" data-name="Rectangle 37" width="129.613" height="1.117" transform="translate(119.536 332.97)" fill="#3f3d56"/>
    </g>
  </g>
</svg>
