<svg xmlns="http://www.w3.org/2000/svg" xmlns:xlink="http://www.w3.org/1999/xlink" width="1920" height="1080" viewBox="0 0 1920 1080">
  <defs>
    <clipPath id="clip-aboutBG">
      <rect width="1920" height="1080"/>
    </clipPath>
  </defs>
  <g id="aboutBG" clip-path="url(#clip-aboutBG)">
    <rect width="1920" height="1080" fill="#fff"/>
    <g id="Group_74" data-name="Group 74">
      <path id="Path_115" data-name="Path 115" d="M5186.113,2845.1c-397.557-31.636-411.858,1421.48-800.834,1063.965s100.1-1226.992,100.1-1226.992S5583.67,2876.741,5186.113,2845.1Z" transform="translate(-4581 -2851)" fill="#119da4"/>
    </g>
    <g id="Group_76" data-name="Group 76" transform="translate(1568.633 648.73)">
      <path id="Path_33" data-name="Path 33" d="M473.712,474.8c-1.708,0-3.433-.027-5.127-.08l.038-1.23c2.432.076,4.913.1,7.356.063l.017,1.231Q474.856,474.8,473.712,474.8Zm9.693-.286-.072-1.229c2.435-.144,4.9-.346,7.331-.6l.129,1.224c-2.448.257-4.933.461-7.388.6Zm-22.22-.192c-2.456-.188-4.937-.435-7.376-.734l.15-1.222c2.42.3,4.883.542,7.32.728Zm36.959-1.354-.185-1.217c2.42-.367,4.858-.794,7.245-1.268l.24,1.207c-2.406.478-4.862.908-7.3,1.277Zm-51.669-.45c-2.426-.411-4.875-.884-7.278-1.405l.261-1.2c2.385.518,4.815.987,7.223,1.395Zm66.205-2.439-.3-1.2c2.375-.587,4.764-1.237,7.1-1.929l.35,1.181c-2.354.7-4.76,1.352-7.153,1.944Zm-80.689-.706c-2.38-.633-4.774-1.329-7.118-2.07l.371-1.173c2.326.735,4.7,1.426,7.063,2.054Zm94.9-3.51-.4-1.163c2.3-.8,4.623-1.668,6.891-2.575l.457,1.143c-2.285.914-4.621,1.787-6.944,2.595ZM417.84,464.9c-2.311-.849-4.637-1.766-6.912-2.724l.478-1.135c2.257.951,4.565,1.861,6.859,2.7Zm122.794-4.536-.51-1.121c2.214-1.006,4.438-2.079,6.613-3.191l.56,1.1c-2.191,1.12-4.433,2.2-6.663,3.215Zm-136.482-1.228c-2.222-1.059-4.452-2.185-6.627-3.347l.58-1.086c2.159,1.154,4.372,2.271,6.577,3.322Zm149.655-5.506-.61-1.069c2.123-1.211,4.242-2.485,6.3-3.785l.658,1.04c-2.071,1.31-4.206,2.594-6.345,3.814ZM391.06,452.141c-2.113-1.257-4.229-2.583-6.289-3.939l.678-1.028c2.044,1.347,4.144,2.662,6.241,3.909Zm175.257-6.426-.7-1.009c2-1.4,3.993-2.859,5.929-4.346l.75.976C570.342,442.834,568.332,444.308,566.318,445.715Zm-187.647-1.734c-1.987-1.443-3.972-2.955-5.9-4.495l.768-.962c1.913,1.528,3.883,3.028,5.855,4.46Zm199.39-7.292-.793-.941c1.863-1.572,3.717-3.21,5.511-4.869l.835.9c-1.808,1.672-3.676,3.322-5.554,4.907Zm-210.979-1.961c-1.851-1.621-3.689-3.306-5.465-5.011l.852-.889c1.762,1.692,3.587,3.365,5.423,4.973Zm221.858-8.1-.876-.864c1.718-1.74,3.416-3.541,5.049-5.353l.915.824c-1.645,1.826-3.356,3.64-5.087,5.394Zm-232.552-2.162c-1.7-1.785-3.375-3.631-4.984-5.485l.929-.807c1.6,1.84,3.261,3.671,4.946,5.443Zm242.475-8.852-.951-.782c1.552-1.888,3.079-3.837,4.542-5.792l.986.737C601.967,411.746,600.428,413.71,598.864,415.612Zm-252.188-2.337c-1.525-1.927-3.026-3.916-4.463-5.912l1-.719c1.426,1.981,2.916,3.955,4.429,5.868Zm261.07-9.54-1.018-.691c1.373-2.022,2.718-4.1,4-6.185l1.05.644c-1.29,2.1-2.645,4.2-4.028,6.232Zm-269.72-2.48c-1.341-2.057-2.654-4.173-3.9-6.291l1.06-.625c1.239,2.1,2.542,4.2,3.873,6.243Zm277.486-10.164-1.077-.6c1.182-2.139,2.33-4.336,3.414-6.529l1.1.546c-1.092,2.21-2.25,4.423-3.441,6.578Zm-285-2.589c-1.148-2.17-2.262-4.4-3.309-6.618l1.113-.525c1.04,2.2,2.144,4.414,3.284,6.567Zm291.574-10.721-1.128-.494c.981-2.241,1.923-4.535,2.8-6.82l1.149.441c-.884,2.3-1.833,4.615-2.822,6.872ZM324.2,375.125c-.944-2.265-1.848-4.583-2.686-6.889l1.157-.421c.832,2.289,1.729,4.588,2.665,6.836ZM627.41,363.911l-1.169-.387c.768-2.315,1.493-4.681,2.155-7.034l1.185.333c-.667,2.37-1.4,4.755-2.171,7.088Zm-308.266-2.7c-.733-2.346-1.421-4.743-2.046-7.125l1.191-.313c.62,2.364,1.3,4.743,2.03,7.071Zm312.278-11.57-1.2-.279c.551-2.373,1.055-4.8,1.5-7.2l1.211.222c-.446,2.424-.954,4.866-1.509,7.258Zm-316.039-2.766c-.513-2.4-.978-4.854-1.381-7.282l1.214-.2c.4,2.41.861,4.841,1.371,7.227Zm318.722-11.809-1.22-.167c.331-2.411.611-4.87.831-7.308l1.226.111c-.222,2.458-.5,4.935-.837,7.365Zm-321.148-2.811c-.29-2.437-.529-4.919-.709-7.377l1.228-.09c.178,2.44.415,4.9.7,7.322Zm322.487-11.948-1.23-.055c.109-2.44.165-4.914.165-7.354h1.231c0,2.459-.056,4.952-.166,7.409Zm-323.569-2.833c-.042-1.509-.063-3.05-.064-4.577q0-1.421.024-2.837l1.231.022q-.024,1.4-.024,2.815c0,1.516.022,3.044.063,4.543Zm322.495-6.294c-.025-2.441-.107-4.915-.242-7.354l1.229-.069c.136,2.458.219,4.95.245,7.409ZM313.36,302.734l-1.229-.077c.154-2.46.366-4.944.63-7.385l1.224.133C313.723,297.827,313.513,300.292,313.36,302.734Zm320.192-6.239c-.246-2.427-.552-4.883-.909-7.3l1.218-.18c.359,2.435.668,4.909.916,7.355Zm-318.609-8.383-1.217-.188c.377-2.436.815-4.89,1.3-7.3l1.207.244c-.483,2.389-.918,4.825-1.292,7.241ZM631.4,281.946c-.469-2.4-1-4.819-1.575-7.185l1.2-.291c.58,2.384,1.114,4.82,1.587,7.24ZM317.86,273.7l-1.194-.3c.6-2.384,1.26-4.789,1.968-7.147l1.179.354C319.111,268.945,318.453,271.331,317.86,273.7Zm310.062-6.041c-.686-2.344-1.437-4.7-2.23-7.01l1.164-.4c.8,2.325,1.556,4.7,2.248,7.064ZM322.1,259.591l-1.161-.408c.818-2.327,1.7-4.666,2.626-6.951l1.142.462c-.917,2.267-1.794,4.588-2.606,6.9Zm301.043-5.845c-.9-2.266-1.86-4.54-2.859-6.759l1.123-.506c1.007,2.236,1.976,4.528,2.881,6.811Zm-295.517-7.819-1.119-.514c1.028-2.239,2.123-4.485,3.253-6.674l1.094.564C329.731,241.476,328.645,243.7,327.624,245.927Zm289.491-5.562c-1.1-2.173-2.269-4.351-3.47-6.473l1.071-.607c1.21,2.138,2.386,4.332,3.5,6.523Zm-282.734-7.528-1.067-.614c1.228-2.133,2.523-4.267,3.85-6.344l1.038.662c-1.316,2.061-2.6,4.18-3.82,6.3Zm275.5-5.254c-1.3-2.071-2.663-4.134-4.049-6.132l1.011-.7c1.4,2.014,2.77,4.092,4.08,6.179Zm-267.576-7.156-1.006-.709c1.419-2.013,2.9-4.019,4.412-5.963l.973.754C345.188,216.439,343.714,218.43,342.306,220.427Zm259.2-4.92c-1.484-1.943-3.029-3.875-4.593-5.742l.944-.791c1.576,1.881,3.133,3.827,4.628,5.785ZM351.327,208.8l-.937-.8c1.593-1.871,3.253-3.733,4.934-5.535l.9.84C354.555,205.093,352.908,206.941,351.327,208.8Zm240.738-4.56c-1.654-1.8-3.37-3.584-5.1-5.3l.868-.873c1.742,1.732,3.471,3.529,5.137,5.343Zm-230.7-6.2-.861-.88c1.76-1.722,3.582-3.425,5.414-5.061l.82.919c-1.818,1.623-3.626,3.313-5.373,5.022Zm220.268-4.174c-1.812-1.644-3.684-3.265-5.562-4.819l.785-.949c1.892,1.565,3.778,3.2,5.6,4.856Zm-209.3-5.621-.777-.955c1.9-1.551,3.872-3.08,5.849-4.546l.733.989C376.175,185.191,374.222,186.708,372.332,188.247Zm197.962-3.759c-1.956-1.473-3.968-2.917-5.98-4.294l.695-1.016c2.028,1.387,4.055,2.843,6.026,4.327ZM384.141,179.5l-.687-1.021c2.038-1.371,4.136-2.714,6.236-3.992l.64,1.052C388.245,176.8,386.163,178.135,384.141,179.5Zm174-3.319c-2.081-1.288-4.217-2.543-6.35-3.731l.6-1.075c2.15,1.2,4.3,2.463,6.4,3.76Zm-161.451-4.315-.591-1.08c2.156-1.18,4.367-2.324,6.571-3.4l.541,1.106c-2.187,1.07-4.381,2.206-6.521,3.377Zm148.584-2.852c-2.191-1.091-4.435-2.146-6.67-3.134l.5-1.126c2.253,1,4.514,2.058,6.722,3.158Zm-135.4-3.6-.489-1.13c2.253-.977,4.558-1.913,6.85-2.784l.437,1.151c-2.275.864-4.562,1.793-6.8,2.762Zm121.918-2.36c-2.28-.884-4.613-1.727-6.935-2.507l.392-1.167c2.34.785,4.691,1.635,6.988,2.526ZM423.611,160.2l-.384-1.17c2.34-.767,4.727-1.489,7.095-2.146l.329,1.186c-2.35.652-4.719,1.369-7.04,2.13Zm94.224-1.831c-2.348-.669-4.743-1.293-7.118-1.853l.283-1.2c2.394.564,4.807,1.192,7.174,1.867Zm-80.052-2.1-.274-1.2c2.4-.548,4.842-1.047,7.262-1.484l.219,1.211c-2.4.434-4.827.929-7.207,1.473Zm65.737-1.272c-2.4-.45-4.839-.85-7.258-1.19l.171-1.219c2.438.342,4.9.746,7.315,1.2Zm-51.263-1.34-.163-1.22c2.437-.325,4.916-.6,7.367-.812l.107,1.226c-2.433.212-4.892.483-7.311.806Zm36.7-.706c-2.425-.228-4.893-.4-7.337-.523l.06-1.23c2.462.119,4.949.3,7.392.527Zm-22.047-.572-.052-1.23c2.263-.094,4.569-.142,6.855-.143h.557l0,1.231h-.554c-2.269,0-4.558.048-6.8.142Z" transform="translate(-293.865 -151)" fill="#e6e6e6"/>
      <path id="Path_34" data-name="Path 34" d="M608.349,682.487V615.164a3.561,3.561,0,0,1,3.557-3.557h8.078a3.561,3.561,0,0,1,3.557,3.557v67.323a3.561,3.561,0,0,1-3.557,3.557h-8.078A3.561,3.561,0,0,1,608.349,682.487Z" transform="translate(-428.115 -359.529)" fill="#2f2e41"/>
      <path id="Path_35" data-name="Path 35" d="M579.156,682.487V615.164a3.561,3.561,0,0,1,3.557-3.557h8.078a3.561,3.561,0,0,1,3.557,3.557v67.323a3.561,3.561,0,0,1-3.557,3.557h-8.078A3.561,3.561,0,0,1,579.156,682.487Z" transform="translate(-414.899 -359.529)" fill="#2f2e41"/>
      <rect id="Rectangle_31" data-name="Rectangle 31" width="39.272" height="43.511" rx="6" transform="translate(160.206 233.409)" fill="#2f2e41"/>
      <path id="Path_36" data-name="Path 36" d="M457.378,379.193s-16.505,7.668-30.472,12.752c-8.667-19.566-21.154-18.833-21.154-18.833l-7.57,5.212,1.365,7.818-.372,12.782-1.986,6.7,2.849.515,1.61.292.243-.219a16.54,16.54,0,0,0-.482,4.873l71.606-11.169S470.532,388.376,457.378,379.193Z" transform="translate(-332.517 -251.554)" fill="#e6e6e6"/>
      <rect id="Rectangle_32" data-name="Rectangle 32" width="14.645" height="73.89" rx="6" transform="matrix(-0.594, -0.804, 0.804, -0.594, 110.467, 237.41)" fill="#119da4"/>
      <path id="Path_52" data-name="Path 52" d="M3.636,0h7.372a3.636,3.636,0,0,1,3.636,3.636V70.253a3.636,3.636,0,0,1-3.636,3.636H3.636A3.636,3.636,0,0,1,0,70.253V3.636A3.636,3.636,0,0,1,3.636,0Z" transform="matrix(0.883, -0.469, 0.469, 0.883, 185.932, 187.474)" fill="#119da4"/>
      <path id="Path_37" data-name="Path 37" d="M649.135,509.715l-11.653,7.725a3.481,3.481,0,0,1-4.764-1.189L619.85,492a3.481,3.481,0,0,1,1.685-4.612l7.932-4.209a3.482,3.482,0,0,1,4.764,1.189L650.82,505.1A3.482,3.482,0,0,1,649.135,509.715Z" transform="translate(-433.163 -301.175)" fill="#ccc"/>
      <path id="Path_38" data-name="Path 38" d="M527.814,502.4l7.574,10.058a3.284,3.284,0,0,0,4.641.147l20.017-18.789a3.284,3.284,0,0,0,.147-4.641l-5.528-5.889a3.284,3.284,0,0,0-4.641-.147l-22.063,14.62A3.284,3.284,0,0,0,527.814,502.4Z" transform="translate(-391.252 -300.967)" fill="#ccc"/>
      <rect id="Rectangle_34" data-name="Rectangle 34" width="43.269" height="84.541" rx="6" transform="translate(158.208 181.18)" fill="#ccc"/>
      <circle id="Ellipse_7" data-name="Ellipse 7" cx="29.29" cy="29.29" r="29.29" transform="translate(150.338 117.512)" fill="#119da4"/>
      <path id="Path_39" data-name="Path 39" d="M607.231,421.7c-1.81-.051-4.062-.114-5.795-1.38a4.45,4.45,0,0,1-1.751-3.324,2.994,2.994,0,0,1,1.018-2.458,3.861,3.861,0,0,1,3.655-.526l-1.477-10.8,1.085-.149,1.736,12.692-.905-.415c-1.049-.482-2.491-.727-3.386.03a1.923,1.923,0,0,0-.631,1.584,3.363,3.363,0,0,0,1.3,2.478c1.348.986,3.144,1.113,5.18,1.17Z" transform="translate(-424.189 -265.116)" fill="#2f2e41"/>
      <rect id="Rectangle_35" data-name="Rectangle 35" width="5.895" height="1.095" transform="translate(167.432 139.028)" fill="#2f2e41"/>
      <rect id="Rectangle_36" data-name="Rectangle 36" width="5.895" height="1.095" transform="translate(186.04 139.028)" fill="#2f2e41"/>
      <path id="Path_40" data-name="Path 40" d="M563.187,352.558c-4.747-.541-8.424-5.09-8.828-9.7-.48-5.49,2.717-10.7,7.1-13.786,4.587-3.222,10.3-4.567,15.833-4.864a43.514,43.514,0,0,1,29.743,9.8c4.144,3.441,8.014,7.825,9.48,13.121,1.274,4.6.237,9.808-3.461,13.029a8.743,8.743,0,0,1-6.71,2.066,16.675,16.675,0,0,1-7.81-3.474c-4.458-3.242-8.119-7.758-13.551-9.452-3.983-1.242-9.151-.149-11.585,3.453a6.556,6.556,0,0,0-1.047,2.747.85.85,0,0,0,.573,1.01.826.826,0,0,0,1.01-.573c.639-4.537,6.217-6.229,10.131-5.193,5.707,1.511,9.538,6.6,14.221,9.839a17.281,17.281,0,0,0,8.282,3.306,10.284,10.284,0,0,0,7.226-2.22c4-3.159,5.53-8.592,4.646-13.483-1.024-5.664-4.837-10.519-9.02-14.278a45.121,45.121,0,0,0-30.836-11.391c-5.787.133-11.824,1.328-16.81,4.386-4.836,2.967-8.573,7.93-9.062,13.7a12.933,12.933,0,0,0,6.971,12.614,10.919,10.919,0,0,0,3.5.987c1.048.12,1.039-1.523,0-1.642Z" transform="translate(-402.909 -228.645)" fill="#2f2e41"/>
      <path id="Path_41" data-name="Path 41" d="M400.567,405.443l3.475-1.117c.372-.714-.309-.256.016-.949,8.791-18.755.666-30.262.666-30.262l-6.285,4.328c-.016-.036-.028-.072-.044-.108,0,0-1.117-2.482-2.854-.621,0,0,5.46,13.279-.621,29.784l7.074,3.227,2.73-3.227.062-.31-4.886-.444Z" transform="translate(-331.49 -251.557)" fill="#ccc"/>
      <path id="Path_42" data-name="Path 42" d="M499.61,490.953c-27.923-6.2-53.922,6.639-53.922,6.639l-.071-.063-10.354-9.244-40.457-66.022,9.866.062c27.426-16.381,66.021-14.147,66.021-14.147C487.324,427.041,499.61,490.953,499.61,490.953Z" transform="translate(-331.439 -267.385)" fill="#3f3d56"/>
      <path id="Path_43" data-name="Path 43" d="M445.618,509.266l-10.354-9.245L394.807,434l9.866.062S444,486,445.618,509.266Z" transform="translate(-331.439 -279.122)" opacity="0.1"/>
      <ellipse id="Ellipse_8" data-name="Ellipse 8" cx="16.009" cy="10.176" rx="16.009" ry="10.176" transform="translate(97.45 163.867) rotate(-17.052)" fill="#119da4"/>
      <path id="Path_44" data-name="Path 44" d="M327.829,361.859c-2.229,8.242-9.866,13.346-9.866,13.346s-4.022-8.258-1.792-16.5,9.866-13.346,9.866-13.346S330.058,353.618,327.829,361.859Z" transform="translate(-295.533 -238.992)" fill="#ccc"/>
      <path id="Path_45" data-name="Path 45" d="M300.413,361.859c2.23,8.242,9.866,13.346,9.866,13.346s4.022-8.258,1.792-16.5-9.866-13.346-9.866-13.346S298.183,353.618,300.413,361.859Z" transform="translate(-288.4 -238.992)" fill="#ccc"/>
      <path id="Path_46" data-name="Path 46" d="M294.308,366.93c6.118,5.955,6.865,15.11,6.865,15.11s-9.172-.5-15.289-6.456-6.865-15.11-6.865-15.11S288.19,360.975,294.308,366.93Z" transform="translate(-279.019 -245.834)" fill="#3f3d56"/>
      <path id="Path_47" data-name="Path 47" d="M326.365,366.93c-6.118,5.955-6.865,15.11-6.865,15.11s9.172-.5,15.289-6.456,6.865-15.11,6.865-15.11S332.483,360.975,326.365,366.93Z" transform="translate(-297.346 -245.834)" fill="#3f3d56"/>
      <path id="Path_48" data-name="Path 48" d="M888.829,531.859c-2.229,8.242-9.866,13.346-9.866,13.346s-4.022-8.258-1.792-16.5,9.866-13.346,9.866-13.346S891.058,523.617,888.829,531.859Z" transform="translate(-549.513 -315.955)" fill="#ccc"/>
      <path id="Path_49" data-name="Path 49" d="M861.413,531.859c2.229,8.242,9.866,13.346,9.866,13.346s4.022-8.258,1.792-16.5-9.866-13.346-9.866-13.346S859.183,523.617,861.413,531.859Z" transform="translate(-542.379 -315.955)" fill="#ccc"/>
      <path id="Path_50" data-name="Path 50" d="M855.308,536.93c6.118,5.955,6.865,15.11,6.865,15.11s-9.172-.5-15.289-6.456-6.865-15.11-6.865-15.11S849.19,530.975,855.308,536.93Z" transform="translate(-532.998 -322.798)" fill="#3f3d56"/>
      <path id="Path_51" data-name="Path 51" d="M887.365,536.93c-6.118,5.955-6.865,15.11-6.865,15.11s9.172-.5,15.289-6.456,6.865-15.11,6.865-15.11S893.483,530.975,887.365,536.93Z" transform="translate(-551.325 -322.798)" fill="#3f3d56"/>
      <rect id="Rectangle_37" data-name="Rectangle 37" width="126.968" height="1.095" transform="translate(117.096 326.175)" fill="#3f3d56"/>
    </g>
  </g>
</svg>
