<svg xmlns="http://www.w3.org/2000/svg" xmlns:xlink="http://www.w3.org/1999/xlink" width="1024" height="768" viewBox="0 0 1024 768">
  <defs>
    <clipPath id="clip-contactBG_web">
      <rect width="1024" height="768"/>
    </clipPath>
  </defs>
  <g id="contactBG_web" clip-path="url(#clip-contactBG_web)">
    <rect width="1024" height="768" fill="#fff"/>
    <g id="Group_74" data-name="Group 74" transform="translate(89 -18)">
      <path id="Path_115" data-name="Path 115" d="M4960.341,2806.406c-303.185-24.127-314.09,1084.047-610.73,811.4s76.341-935.727,76.341-935.727S5263.526,2830.532,4960.341,2806.406Z" transform="translate(-4581 -2851)" fill="#119da4"/>
    </g>
    <g id="Group_97" data-name="Group 97" transform="translate(766.393 383.999)">
      <path id="Path_20" data-name="Path 20" d="M426.956,354.673l-71.932-15.517-.935-.2a2.588,2.588,0,0,0-2.869,3.676l28.56,58a2.585,2.585,0,0,0,4.194.635l19.837-20.916a1.506,1.506,0,0,1,1.107-.483,1.558,1.558,0,0,1,1.386.806l4.063,7.516a2.528,2.528,0,0,0,2.831,1.3l.02,0a2.532,2.532,0,0,0,2.006-2.4l.814-17.348a1.582,1.582,0,0,1,.159-.623,1.683,1.683,0,0,1,.408-.5l11.444-9.394a2.59,2.59,0,0,0-1.093-4.532Zm.439,3.734L415.952,367.8a2.554,2.554,0,0,0-.4.407L354.894,340.7a.905.905,0,0,0-.167-.058,1.036,1.036,0,0,0-.864,1.844l49.871,36.634a2.482,2.482,0,0,0-.675.515l-19.837,20.916a1.552,1.552,0,0,1-2.517-.381l-28.56-58a1.556,1.556,0,0,1,1.722-2.2l.957.207,71.909,15.511a1.556,1.556,0,0,1,.66,2.721Z" transform="translate(-350.951 -229.146)" fill="#119da4"/>
      <path id="Path_21" data-name="Path 21" d="M514.162,489.336c-6.452-1.743-14.3-8.991-12.624-18.954.834-4.941,4.034-8.139,7.352-10.207a30.9,30.9,0,0,1,14.854-4.211c5.81-.314,11.614.478,17.38,1.316,5.693.827,11.386,1.567,17.1,2.019a220.5,220.5,0,0,0,66.76-4.957q8.1-1.869,16.1-4.384a110.59,110.59,0,0,0,14.786-5.526c6.341-3.044,16.653-8.968,15.812-19.939-.446-5.817-3.872-10.463-7.327-13.7-4.178-3.914-9.012-6.489-13.747-8.989-22.025-11.631-44.093-23.125-66.139-34.686-5.145-2.7-10.325-5.324-15.318-8.486a50.7,50.7,0,0,1-13.091-11.154c-3.286-4.153-6.223-9.728-6.119-15.961a20.054,20.054,0,0,1,5.319-12.833c7.132-8.116,17.221-11.406,26.34-13.13,11.329-2.141,22.822-2.13,34.158-4.2,9.153-1.67,18.933-4.893,26.378-12.446a23.592,23.592,0,0,0,6.43-11.235,22.08,22.08,0,0,0-1.322-13.332,34.382,34.382,0,0,0-8.615-11.8,51.692,51.692,0,0,0-13.067-8.73c-10.054-4.791-20.626-7.286-30.925-10.962a67.523,67.523,0,0,1-14.842-6.877c-3.973-2.624-8.3-6.161-10.512-11.42-4.561-10.852,6.32-17.319,12.485-19.769a80.276,80.276,0,0,1,12.9-3.694c.93-.2.535-2.055-.39-1.857a77.2,77.2,0,0,0-13.55,3.957c-3.718,1.545-7.554,3.575-10.475,7.068a14.713,14.713,0,0,0-3.324,11.5c.774,5.207,4.136,9.219,7.294,12.125a46.6,46.6,0,0,0,13.765,8.4c5.084,2.155,10.277,3.834,15.467,5.481,10.372,3.291,21.209,6.224,30.571,13.227,6.55,4.9,15.447,14.084,13.268,25.47a21.925,21.925,0,0,1-7.073,11.912,41.186,41.186,0,0,1-12.667,7.7c-20.748,8.35-43.583,2.379-63.8,13.72-6.873,3.856-15.22,10.877-15.288,21.923a26.985,26.985,0,0,0,5.109,15.161,45.8,45.8,0,0,0,12.3,11.746,143.221,143.221,0,0,0,14.693,8.507q8.294,4.356,16.591,8.7l33.569,17.6,16.679,8.747c5.091,2.669,10.312,5.23,14.94,9.149,3.79,3.209,8.267,8.473,7.88,15.009-.307,5.191-3.755,8.937-6.907,11.442a48.717,48.717,0,0,1-13.225,7.084c-5.26,2.011-10.607,3.678-15.964,5.178a215.534,215.534,0,0,1-33.493,6.556,220.244,220.244,0,0,1-34.025,1.268q-8.608-.346-17.189-1.377c-5.9-.71-11.768-1.8-17.68-2.29a46.716,46.716,0,0,0-16.013,1.074c-4.4,1.178-9.043,3.279-12.38,7.377a16.32,16.32,0,0,0-3.464,11.022,19.793,19.793,0,0,0,4.058,10.923,18.361,18.361,0,0,0,9.816,6.589c.922.249,1.316-1.607.39-1.857Z" transform="translate(-422.823 -156.91)" fill="#e6e6e6"/>
      <rect id="Rectangle_27" data-name="Rectangle 27" width="167.646" height="1.159" transform="translate(90.058 333.305)" fill="#3f3d56"/>
      <circle id="Ellipse_4" data-name="Ellipse 4" cx="10.952" cy="10.952" r="10.952" transform="translate(233.32 256.791)" fill="#e6e6e6"/>
      <circle id="Ellipse_5" data-name="Ellipse 5" cx="10.952" cy="10.952" r="10.952" transform="translate(213.34 102.43)" fill="#e6e6e6"/>
      <path id="Path_22" data-name="Path 22" d="M705.143,127.226l-30.41,13.22a5.533,5.533,0,0,0-2.865,7.272l9.443,21.721a5.533,5.533,0,0,0,7.272,2.865l30.41-13.22a5.533,5.533,0,0,0,2.865-7.272l-9.443-21.721A5.533,5.533,0,0,0,705.143,127.226Zm1.259,2.9a2.356,2.356,0,0,1,.568-.164l-10.281,19.4-21.116-5.779a2.369,2.369,0,0,1,.419-.235Zm11.331,26.065-30.41,13.22a2.371,2.371,0,0,1-3.116-1.228l-9.358-21.526,22.226,6.082a1.579,1.579,0,0,0,1.812-.784l10.761-20.3,9.313,21.422a2.371,2.371,0,0,1-1.228,3.116Z" transform="translate(-505.612 -126.767)" fill="#e6e6e6"/>
      <circle id="Ellipse_6" data-name="Ellipse 6" cx="27.689" cy="27.689" r="27.689" transform="translate(137.733 133.493)" fill="#119da4"/>
      <path id="Path_23" data-name="Path 23" d="M651.99,706.007h-7.636a3.367,3.367,0,0,1-3.363-3.363V639a3.367,3.367,0,0,1,3.363-3.363h7.636A3.367,3.367,0,0,1,655.353,639v63.644A3.367,3.367,0,0,1,651.99,706.007Z" transform="translate(-490.931 -372.361)" fill="#2f2e41"/>
      <path id="Path_24" data-name="Path 24" d="M681.183,706.007h-7.636a3.367,3.367,0,0,1-3.363-3.363V639a3.367,3.367,0,0,1,3.363-3.363h7.636A3.367,3.367,0,0,1,684.546,639v63.644A3.367,3.367,0,0,1,681.183,706.007Z" transform="translate(-505.02 -372.361)" fill="#2f2e41"/>
      <path id="Path_25" data-name="Path 25" d="M721.634,567.216a3.386,3.386,0,0,1-.99-.149,3.343,3.343,0,0,1-1.985-1.639l-29.834-56.219a3.363,3.363,0,0,1,1.394-4.547l6.745-3.58a3.362,3.362,0,0,1,4.547,1.394L731.346,558.7a3.362,3.362,0,0,1-1.394,4.547l-6.745,3.58a3.344,3.344,0,0,1-1.573.394Z" transform="translate(-513.827 -307.231)" fill="#119da4"/>
      <path id="Path_26" data-name="Path 26" d="M573.9,495.2a3.343,3.343,0,0,1-1.181-.216h0l-59.538-22.492a3.36,3.36,0,0,1-1.953-4.334l2.693-7.144a3.373,3.373,0,0,1,4.339-1.954l59.537,22.487a3.372,3.372,0,0,1,1.959,4.333l-2.7,7.145A3.378,3.378,0,0,1,573.9,495.2Z" transform="translate(-428.196 -287.036)" fill="#119da4"/>
      <rect id="Rectangle_28" data-name="Rectangle 28" width="40.905" height="79.922" rx="6" transform="translate(144.656 193.682)" fill="#2f2e41"/>
      <path id="Path_27" data-name="Path 27" d="M673.788,384.788c1.627,3.57,3.184,7.885,1.433,11.7a5.913,5.913,0,0,1-8.816,2.909c-3.521-1.833-5.791-5.238-8.935-7.571a10.623,10.623,0,0,0-4.917-2.119,19.714,19.714,0,0,0-6.137.594c-2.149.4-4.37.611-6.359-.479a9.337,9.337,0,0,1-3.9-4.457c-.41-.909-1.748-.121-1.34.783a9.6,9.6,0,0,0,9.391,6.017c2.224-.157,4.372-.875,6.6-.977a8.818,8.818,0,0,1,5.641,1.8c3.452,2.461,5.795,6.24,9.755,8.027a7.916,7.916,0,0,0,5.978.469,7.837,7.837,0,0,0,4-3.486c2.6-4.475.93-9.648-1.054-14-.414-.908-1.752-.12-1.34.783Z" transform="translate(-487.913 -250.722)" fill="#2f2e41"/>
      <path id="Path_28" data-name="Path 28" d="M669.939,439.743c-1.71-.048-3.839-.108-5.479-1.306A4.208,4.208,0,0,1,662.8,435.3a2.83,2.83,0,0,1,.963-2.325,3.651,3.651,0,0,1,3.455-.5l-1.4-10.206,1.026-.14,1.641,12-.856-.392a3.133,3.133,0,0,0-3.2.028,1.818,1.818,0,0,0-.6,1.5,3.181,3.181,0,0,0,1.232,2.343c1.276.932,2.973,1.053,4.9,1.106Z" transform="translate(-501.456 -269.315)" fill="#2f2e41"/>
      <rect id="Rectangle_29" data-name="Rectangle 29" width="5.573" height="1.035" transform="translate(153.727 153.833)" fill="#2f2e41"/>
      <rect id="Rectangle_30" data-name="Rectangle 30" width="5.573" height="1.035" transform="translate(171.318 153.833)" fill="#2f2e41"/>
      <path id="Path_29" data-name="Path 29" d="M605.579,505.107l-24.468-7.461a3.1,3.1,0,0,1-2.1-3.733l2.856-11.255a3.1,3.1,0,0,1,4.342-2.04l24.269,11.536a3.11,3.11,0,0,1,1.808,4l-2.7,7.145A3.11,3.11,0,0,1,605.579,505.107Z" transform="translate(-460.97 -297.399)" fill="#2f2e41"/>
      <path id="Path_30" data-name="Path 30" d="M689.7,508.332,700.2,531.661a3.1,3.1,0,0,0,3.969,1.615l10.8-4.256a3.1,3.1,0,0,0,1.475-4.565l-14.511-22.617a3.11,3.11,0,0,0-4.2-1.288l-6.747,3.58A3.11,3.11,0,0,0,689.7,508.332Z" transform="translate(-514.266 -306.991)" fill="#2f2e41"/>
      <path id="Path_31" data-name="Path 31" d="M426.956,354.673l-71.932-15.517-.935-.2a2.588,2.588,0,0,0-2.869,3.676l28.56,58a2.585,2.585,0,0,0,4.194.635l19.837-20.916a1.506,1.506,0,0,1,1.107-.483,1.558,1.558,0,0,1,1.386.806l4.063,7.516a2.528,2.528,0,0,0,2.831,1.3l.02,0a2.532,2.532,0,0,0,2.006-2.4l.814-17.348a1.582,1.582,0,0,1,.159-.623,1.683,1.683,0,0,1,.408-.5l11.444-9.394a2.59,2.59,0,0,0-1.093-4.532Zm.439,3.734L415.952,367.8a2.554,2.554,0,0,0-.4.407,2.4,2.4,0,0,0-.275.432,2.478,2.478,0,0,0-.188.492v.005a2.449,2.449,0,0,0-.081.543l-.814,17.348a1.5,1.5,0,0,1-1.2,1.442l-.01,0a1.506,1.506,0,0,1-1.7-.773l-4.064-7.521a2.581,2.581,0,0,0-2.121-1.348h0c-.059,0-.118-.006-.176,0a2.516,2.516,0,0,0-1.175.292,2.48,2.48,0,0,0-.675.515l-19.837,20.916a1.552,1.552,0,0,1-2.517-.381l-28.56-58a1.556,1.556,0,0,1,1.722-2.2l.957.207,71.909,15.511a1.556,1.556,0,0,1,.66,2.721Z" transform="translate(-350.951 -229.146)" fill="#3f3d56"/>
      <path id="Path_32" data-name="Path 32" d="M418.092,369.909l-.427.942-.264-.117v-.005l-60.606-27.481L407.4,380.429h0l.134.1-.61.834-.88-.648-49.871-36.634a1.036,1.036,0,0,1,.864-1.844.909.909,0,0,1,.167.058l60.654,27.508Z" transform="translate(-353.265 -230.743)" fill="#3f3d56"/>
    </g>
  </g>
</svg>
