<svg xmlns="http://www.w3.org/2000/svg" xmlns:xlink="http://www.w3.org/1999/xlink" width="1920" height="1080" viewBox="0 0 1920 1080">
  <defs>
    <clipPath id="clip-errorBG">
      <rect width="1920" height="1080"/>
    </clipPath>
  </defs>
  <g id="errorBG" clip-path="url(#clip-errorBG)">
    <rect width="1920" height="1080" fill="#fff"/>
    <g id="Group_74" data-name="Group 74">
      <path id="Path_115" data-name="Path 115" d="M5186.113,2845.1c-397.557-31.636-411.858,1421.48-800.834,1063.965s100.1-1226.992,100.1-1226.992S5583.67,2876.741,5186.113,2845.1Z" transform="translate(-4581 -2851)" fill="#119da4"/>
    </g>
    <g id="Group_77" data-name="Group 77" transform="translate(867.24 429)">
      <circle id="Ellipse_73" data-name="Ellipse 73" cx="20.704" cy="20.704" r="20.704" transform="translate(25.999 20.136)" fill="#3f3d56"/>
      <circle id="Ellipse_74" data-name="Ellipse 74" cx="20.704" cy="20.704" r="20.704" transform="translate(144.773 27.037)" fill="#3f3d56"/>
      <path id="Path_99" data-name="Path 99" d="M766.952,216.718A20.7,20.7,0,0,0,748.1,228.863a20.7,20.7,0,0,1,32.617,24.018,20.7,20.7,0,0,0-13.766-36.163Z" transform="translate(-601.112 -190.408)" fill="#119da4"/>
      <path id="Path_100" data-name="Path 100" d="M434.7,197.718a20.7,20.7,0,0,1,18.851,12.145,20.7,20.7,0,0,0-32.617,24.018A20.7,20.7,0,0,1,434.7,197.718Z" transform="translate(-388.362 -178.309)" fill="#119da4"/>
      <path id="Path_101" data-name="Path 101" d="M449.635,447.111A53.214,53.214,0,1,1,434.049,409.3,53.437,53.437,0,0,1,449.635,447.111Z" transform="translate(-343 -303.117)" fill="#3f3d56"/>
      <path id="Path_102" data-name="Path 102" d="M519.2,447.111a53.215,53.215,0,0,1-4.8,22.153,63.245,63.245,0,0,1-61.479-73.981A53.437,53.437,0,0,1,519.2,447.111Z" transform="translate(-412.561 -303.116)" fill="#119da4"/>
      <circle id="Ellipse_75" data-name="Ellipse 75" cx="63.201" cy="63.201" r="63.201" transform="translate(39.438 31.759)" fill="#3f3d56"/>
      <path id="Path_103" data-name="Path 103" d="M653.576,346.193a20.7,20.7,0,0,1,28.92-4.275,20.7,20.7,0,1,0-28.92,4.275Z" transform="translate(-535.578 -249.072)" fill="#fff"/>
      <path id="Path_104" data-name="Path 104" d="M520.576,357.193a20.7,20.7,0,0,1,28.92-4.275,20.7,20.7,0,1,0-28.92,4.275Z" transform="translate(-450.887 -256.077)" fill="#fff"/>
      <circle id="Ellipse_76" data-name="Ellipse 76" cx="7.628" cy="7.628" r="7.628" transform="translate(75.761 72.803)" fill="#3f3d56"/>
      <circle id="Ellipse_77" data-name="Ellipse 77" cx="7.628" cy="7.628" r="7.628" transform="translate(125.159 66.992)" fill="#3f3d56"/>
      <circle id="Ellipse_78" data-name="Ellipse 78" cx="3.995" cy="3.995" r="3.995" transform="translate(103.366 93.144)" fill="#ff6584"/>
      <path id="Path_105" data-name="Path 105" d="M453.623,692.287V674.718h-5.812v17.569A8.719,8.719,0,0,0,442,700.507h17.435a8.719,8.719,0,0,0-5.811-8.219Z" transform="translate(-406.194 -482.052)" fill="#3f3d56"/>
      <path id="Path_106" data-name="Path 106" d="M512.623,692.287V674.718h-5.812v17.569A8.719,8.719,0,0,0,501,700.507h17.435a8.719,8.719,0,0,0-5.811-8.219Z" transform="translate(-443.764 -482.052)" fill="#3f3d56"/>
      <path id="Path_107" data-name="Path 107" d="M547.93,182.1c-2.633-4.24-4.4-9.22-3.854-14.18s3.8-9.8,8.582-11.223,10.71,1.524,11.612,6.432a40.364,40.364,0,0,1,21.386-17.811c4.181-1.473,9.738-1.807,12.156,1.908,1.2,1.839,1.325,4.34,2.927,5.838,2.513,2.349,6.542.694,9.976.9,4.829.282,8.716,4.789,9.324,9.587s-1.517,9.621-4.654,13.3-7.218,6.413-11.243,9.1" transform="translate(-471.13 -144.282)" fill="#3f3d56"/>
      <path id="Path_108" data-name="Path 108" d="M653.236,438.719c.26-.275.529-.541.809-.8q.186-.169.378-.33.12-.1.242-.2c.141-.113.185-.141.015-.014a15.84,15.84,0,0,1,1.946-1.246q.468-.251.953-.471l.229-.1c-.343.152-.074.031.014,0q.291-.117.586-.222a16.846,16.846,0,0,1,2.236-.628c.35-.073.7-.129,1.054-.185.237-.038-.3.033-.06.008.1-.011.209-.025.313-.036q.314-.033.628-.054a17.573,17.573,0,0,1,2.269-.008c.378.023.753.061,1.129.106-.379-.045.055.01.188.032q.31.051.619.113a16.528,16.528,0,0,1,2.177.6q.266.093.528.2c.1.038.194.077.29.116-.049-.02-.318-.141-.045-.018.342.155.68.315,1.012.491a15.993,15.993,0,0,1,1.95,1.243c.188.138-.212-.176-.033-.024.08.068.163.132.243.2q.193.162.381.33c.32.288.626.59.921.9q.4.429.777.885s.28.348.129.158c-.127-.159.052.069.081.108q.225.3.438.613a19.028,19.028,0,0,1,1.249,2.119q.264.52.5,1.054c.034.078.153.367.024.053q.052.128.1.255.128.321.247.645a30.379,30.379,0,0,1,1.312,4.883q.119.633.217,1.269.044.284.085.568s.062.463.03.211c-.029-.224.021.169.026.212.11.885.2,1.772.268,2.661.138,1.743.212,3.49.265,5.238.135,4.433.249,8.867.374,13.3l.762,27.156.762,27.156.095,3.371a1.634,1.634,0,0,0,3.269,0l-.783-27.905-.777-27.718-.391-13.953a88.7,88.7,0,0,0-.83-11.166c-1.059-6.812-4.135-13.893-10.712-16.986a18.623,18.623,0,0,0-19.126,1.982,15.024,15.024,0,0,0-1.675,1.519,1.634,1.634,0,0,0,2.311,2.312Z" transform="translate(-538.928 -326.951)" fill="#119da4"/>
      <path id="Path_109" data-name="Path 109" d="M688.816,593.718A1.818,1.818,0,0,0,687,595.534l3.631,55.186a1.824,1.824,0,0,0,1.817,1.84h29.784a1.818,1.818,0,0,0,1.816-1.816l3.633-55.233a1.815,1.815,0,0,0-1.817-1.793Z" transform="translate(-562.204 -430.473)" fill="#e6e6e6"/>
      <path id="Path_110" data-name="Path 110" d="M696.733,601.218a1.816,1.816,0,0,0-1.812,1.937l3.34,49.761a1.821,1.821,0,0,0,1.812,1.695h24.619a1.821,1.821,0,0,0,1.812-1.695l3.34-49.761a1.816,1.816,0,0,0-1.812-1.937Z" transform="translate(-567.245 -435.249)" fill="#119da4"/>
      <path id="Path_111" data-name="Path 111" d="M728.726,624.718a.727.727,0,0,0-.727.726v4a.727.727,0,0,0,.726.727H734.9a.727.727,0,0,0,.727-.726v-4a.728.728,0,0,0-.726-.727Z" transform="translate(-588.312 -450.213)" fill="#e6e6e6"/>
      <path id="Path_112" data-name="Path 112" d="M747.726,653.718a.727.727,0,0,0-.726.726v4a.727.727,0,0,0,.726.726H753.9a.727.727,0,0,0,.726-.726v-4a.727.727,0,0,0-.726-.727Z" transform="translate(-600.411 -468.679)" fill="#e6e6e6"/>
      <path id="Path_113" data-name="Path 113" d="M729.726,677.718a.727.727,0,0,0-.727.726v4a.727.727,0,0,0,.726.726H735.9a.727.727,0,0,0,.727-.726v-4a.727.727,0,0,0-.726-.727Z" transform="translate(-588.949 -483.962)" fill="#e6e6e6"/>
      <path id="Path_114" data-name="Path 114" d="M407.368,565.571a9.247,9.247,0,0,1,4.329,3.811,21.8,21.8,0,0,0,3.748,4.658,6.126,6.126,0,0,0,4.823,1.45,3.908,3.908,0,0,0,3.421-3.218c.343-2.323-1.283-4.473-2.709-6.125l-.385.93c2.272.245,4.248,1.54,6.329,2.374,1.994.8,4.352,1.235,6.343.193a5.754,5.754,0,0,0,2.8-4.055,8.341,8.341,0,0,0-.786-5.31,21.924,21.924,0,0,0-4.485-5.606l-.53.911c2.507.376,5.3.727,7.478-.884a4.433,4.433,0,0,0,1.748-2.552,4.931,4.931,0,0,0-.533-3.34c-1.144-2.228-3.3-3.8-5.239-5.292a76.376,76.376,0,0,0-14.586-8.866c-.632-.294-1.186.645-.55.941a76.8,76.8,0,0,1,12.63,7.4,35,35,0,0,1,5.512,4.551c1.349,1.485,2.578,3.757,1.1,5.593-1.733,2.16-4.87,1.758-7.275,1.4a.55.55,0,0,0-.53.911c2.513,2.515,5.5,5.533,5.061,9.4a4.926,4.926,0,0,1-2.167,3.742c-1.775,1.055-3.994.512-5.782-.217-2.17-.885-4.17-2.128-6.546-2.384-.512-.055-.66.611-.385.93,1.153,1.336,2.536,3.075,2.434,4.948a2.892,2.892,0,0,1-2.918,2.594c-3.728.226-5.611-3.656-7.5-6.2a9.715,9.715,0,0,0-4.566-3.738c-.667-.221-.953.831-.29,1.051Z" transform="translate(-383.901 -392.824)" fill="#119da4"/>
    </g>
  </g>
</svg>
