<svg xmlns="http://www.w3.org/2000/svg" xmlns:xlink="http://www.w3.org/1999/xlink" width="768" height="1024" viewBox="0 0 768 1024">
  <defs>
    <clipPath id="clip-errorBG_tablets">
      <rect width="768" height="1024"/>
    </clipPath>
  </defs>
  <g id="errorBG_tablets" clip-path="url(#clip-errorBG_tablets)">
    <rect width="768" height="1024" fill="#fff"/>
    <g id="Group_89" data-name="Group 89" transform="translate(18 -67)">
      <path id="Path_115" data-name="Path 115" d="M5186.113,2845.1c-397.557-31.636-411.858,1421.48-800.834,1063.965s100.1-1226.992,100.1-1226.992S5583.67,2876.741,5186.113,2845.1Z" transform="translate(-4581 -2851)" fill="#119da4"/>
    </g>
    <g id="Group_94" data-name="Group 94" transform="translate(296.24 408)">
      <circle id="Ellipse_73" data-name="Ellipse 73" cx="19.407" cy="19.407" r="19.407" transform="translate(24.356 18.875)" fill="#3f3d56"/>
      <circle id="Ellipse_74" data-name="Ellipse 74" cx="19.407" cy="19.407" r="19.407" transform="translate(135.69 25.344)" fill="#3f3d56"/>
      <path id="Path_99" data-name="Path 99" d="M765.771,216.718A19.406,19.406,0,0,0,748.1,228.1a19.4,19.4,0,0,1,30.574,22.514,19.4,19.4,0,0,0-12.9-33.9Z" transform="translate(-610.334 -192.055)" fill="#119da4"/>
      <path id="Path_100" data-name="Path 100" d="M433.405,197.718a19.406,19.406,0,0,1,17.67,11.385A19.4,19.4,0,0,0,420.5,231.616a19.4,19.4,0,0,1,12.9-33.9Z" transform="translate(-389.983 -179.524)" fill="#119da4"/>
      <path id="Path_101" data-name="Path 101" d="M442.941,443.767a49.881,49.881,0,1,1-14.609-35.44A50.09,50.09,0,0,1,442.941,443.767Z" transform="translate(-343 -308.791)" fill="#3f3d56"/>
      <path id="Path_102" data-name="Path 102" d="M514.987,443.766a49.88,49.88,0,0,1-4.5,20.766,59.284,59.284,0,0,1-57.628-69.347,50.09,50.09,0,0,1,62.126,48.582Z" transform="translate(-415.046 -308.791)" fill="#119da4"/>
      <circle id="Ellipse_75" data-name="Ellipse 75" cx="59.242" cy="59.242" r="59.242" transform="translate(36.953 29.77)" fill="#3f3d56"/>
      <path id="Path_103" data-name="Path 103" d="M653.05,343.854a19.407,19.407,0,0,1,27.109-4.007,19.408,19.408,0,1,0-27.109,4.007Z" transform="translate(-542.458 -252.816)" fill="#fff"/>
      <path id="Path_104" data-name="Path 104" d="M520.05,354.854a19.407,19.407,0,0,1,27.109-4.007,19.408,19.408,0,1,0-27.109,4.007Z" transform="translate(-454.741 -260.071)" fill="#fff"/>
      <circle id="Ellipse_76" data-name="Ellipse 76" cx="7.15" cy="7.15" r="7.15" transform="translate(71.001 68.243)" fill="#3f3d56"/>
      <circle id="Ellipse_77" data-name="Ellipse 77" cx="7.15" cy="7.15" r="7.15" transform="translate(117.305 62.796)" fill="#3f3d56"/>
      <circle id="Ellipse_78" data-name="Ellipse 78" cx="3.745" cy="3.745" r="3.745" transform="translate(96.876 87.31)" fill="#ff6584"/>
      <path id="Path_105" data-name="Path 105" d="M452.9,691.187V674.718h-5.448v16.469a8.174,8.174,0,0,0-5.448,7.7h16.343a8.173,8.173,0,0,0-5.447-7.7Z" transform="translate(-408.451 -494.119)" fill="#3f3d56"/>
      <path id="Path_106" data-name="Path 106" d="M511.9,691.187V674.718h-5.448v16.469a8.174,8.174,0,0,0-5.448,7.7h16.343a8.173,8.173,0,0,0-5.447-7.7Z" transform="translate(-447.363 -494.119)" fill="#3f3d56"/>
      <path id="Path_107" data-name="Path 107" d="M547.683,179.733c-2.468-3.974-4.126-8.642-3.613-13.292s3.56-9.187,8.044-10.52,10.039,1.428,10.885,6.029a37.836,37.836,0,0,1,20.047-16.7c3.919-1.381,9.128-1.694,11.394,1.789,1.122,1.724,1.242,4.068,2.744,5.472,2.355,2.2,6.132.651,9.351.839,4.526.265,8.17,4.489,8.74,8.987s-1.422,9.018-4.363,12.469-6.766,6.011-10.539,8.526" transform="translate(-475.708 -144.282)" fill="#3f3d56"/>
      <path id="Path_108" data-name="Path 108" d="M653.062,438.245c.244-.258.5-.507.758-.745q.174-.158.355-.31.112-.095.227-.187c.132-.106.174-.132.014-.013a14.848,14.848,0,0,1,1.824-1.168q.439-.236.893-.441l.215-.1c-.321.143-.069.029.013,0q.272-.109.549-.208a15.776,15.776,0,0,1,2.1-.589c.328-.068.658-.121.988-.174.223-.036-.28.031-.056.008l.294-.033q.294-.031.589-.051a16.474,16.474,0,0,1,2.127-.008c.354.022.706.058,1.058.1-.355-.042.052.01.177.03q.291.048.58.106a15.479,15.479,0,0,1,2.04.559q.249.087.5.183c.091.035.182.072.272.109-.046-.018-.3-.133-.043-.016.32.145.638.3.949.46a15,15,0,0,1,1.828,1.165c.177.13-.2-.165-.031-.023.075.063.153.123.228.186q.181.152.357.31c.3.27.587.553.863.847q.379.4.729.83s.263.326.121.148c-.119-.149.049.065.076.1q.211.283.411.575a17.8,17.8,0,0,1,1.171,1.987q.247.488.467.988c.032.073.144.344.023.049q.049.12.1.24.12.3.232.605a28.477,28.477,0,0,1,1.23,4.578q.111.593.2,1.19.041.266.079.533s.058.434.028.2c-.027-.21.02.159.025.2.1.829.185,1.661.251,2.494.13,1.634.2,3.272.249,4.91.126,4.156.234,8.312.35,12.468l.714,25.455.714,25.455.089,3.16a1.532,1.532,0,0,0,3.064,0l-.734-26.157-.729-25.982-.367-13.079a83.15,83.15,0,0,0-.778-10.467c-.993-6.385-3.876-13.022-10.041-15.922a17.457,17.457,0,0,0-17.928,1.858,14.076,14.076,0,0,0-1.57,1.424,1.532,1.532,0,0,0,2.167,2.167Z" transform="translate(-545.927 -333.477)" fill="#119da4"/>
      <path id="Path_109" data-name="Path 109" d="M688.7,593.718a1.7,1.7,0,0,0-1.7,1.7l3.4,51.73a1.71,1.71,0,0,0,1.7,1.724h27.919a1.7,1.7,0,0,0,1.7-1.7l3.405-51.774a1.7,1.7,0,0,0-1.7-1.68Z" transform="translate(-570.036 -440.697)" fill="#e6e6e6"/>
      <path id="Path_110" data-name="Path 110" d="M696.619,601.218a1.7,1.7,0,0,0-1.7,1.816l3.13,46.645a1.707,1.707,0,0,0,1.7,1.589h23.077a1.707,1.707,0,0,0,1.7-1.589l3.13-46.645a1.7,1.7,0,0,0-1.7-1.816Z" transform="translate(-575.257 -445.644)" fill="#119da4"/>
      <path id="Path_111" data-name="Path 111" d="M728.681,624.718a.682.682,0,0,0-.681.681v3.745a.682.682,0,0,0,.681.681h5.788a.682.682,0,0,0,.681-.681V625.4a.682.682,0,0,0-.681-.681Z" transform="translate(-597.076 -461.143)" fill="#e6e6e6"/>
      <path id="Path_112" data-name="Path 112" d="M747.681,653.718a.682.682,0,0,0-.681.681v3.745a.682.682,0,0,0,.681.681h5.788a.682.682,0,0,0,.681-.681V654.4a.682.682,0,0,0-.681-.681Z" transform="translate(-609.607 -480.269)" fill="#e6e6e6"/>
      <path id="Path_113" data-name="Path 113" d="M729.681,677.718a.682.682,0,0,0-.681.681v3.745a.682.682,0,0,0,.681.681h5.788a.682.682,0,0,0,.681-.681V678.4a.682.682,0,0,0-.681-.681Z" transform="translate(-597.736 -496.098)" fill="#e6e6e6"/>
      <path id="Path_114" data-name="Path 114" d="M407.345,563.631A8.668,8.668,0,0,1,411.4,567.2a20.44,20.44,0,0,0,3.513,4.367,5.742,5.742,0,0,0,4.521,1.359,3.664,3.664,0,0,0,3.207-3.016c.321-2.177-1.2-4.193-2.54-5.742l-.361.872c2.13.23,3.982,1.444,5.932,2.225,1.869.749,4.079,1.157,5.946.181a5.394,5.394,0,0,0,2.628-3.8,7.818,7.818,0,0,0-.737-4.977,20.549,20.549,0,0,0-4.2-5.255l-.5.854c2.35.353,4.97.682,7.009-.828a4.156,4.156,0,0,0,1.639-2.392,4.622,4.622,0,0,0-.5-3.131c-1.072-2.088-3.1-3.56-4.91-4.961a71.6,71.6,0,0,0-13.673-8.311c-.592-.275-1.112.6-.516.882a72,72,0,0,1,11.839,6.939,32.817,32.817,0,0,1,5.167,4.266c1.265,1.392,2.417,3.521,1.035,5.242-1.625,2.024-4.565,1.647-6.82,1.309a.515.515,0,0,0-.5.854c2.356,2.357,5.154,5.187,4.744,8.814a4.617,4.617,0,0,1-2.032,3.507c-1.664.989-3.744.48-5.42-.2-2.034-.83-3.909-1.994-6.136-2.235-.48-.052-.619.573-.361.872,1.081,1.253,2.377,2.882,2.281,4.638a2.711,2.711,0,0,1-2.735,2.431c-3.495.211-5.259-3.427-7.031-5.813a9.107,9.107,0,0,0-4.28-3.5c-.625-.207-.893.779-.272.985Z" transform="translate(-385.363 -401.703)" fill="#119da4"/>
    </g>
  </g>
</svg>
