<svg xmlns="http://www.w3.org/2000/svg" xmlns:xlink="http://www.w3.org/1999/xlink" width="425" height="625" viewBox="0 0 425 625">
  <defs>
    <clipPath id="clip-homeBG_phones">
      <rect width="425" height="625"/>
    </clipPath>
  </defs>
  <g id="homeBG_phones" clip-path="url(#clip-homeBG_phones)">
    <rect width="425" height="625" fill="#fff"/>
    <g id="Group_81" data-name="Group 81" transform="translate(183.151 66.581)">
      <path id="Path_115" data-name="Path 115" d="M4774.06,2774.474c-225.32-17.93-233.425,805.638-453.88,603.013s56.734-695.411,56.734-695.411S4999.379,2792.4,4774.06,2774.474Z" transform="translate(-4581 -2850.999)" fill="#119da4"/>
    </g>
    <g id="Group_82" data-name="Group 82" transform="translate(195.075 461.869)">
      <circle id="Ellipse_9" data-name="Ellipse 9" cx="1.854" cy="1.854" r="1.854" transform="translate(220.357 4.447)" fill="#f2f2f2"/>
      <circle id="Ellipse_10" data-name="Ellipse 10" cx="1.854" cy="1.854" r="1.854" transform="translate(212.968 4.447)" fill="#f2f2f2"/>
      <circle id="Ellipse_11" data-name="Ellipse 11" cx="1.854" cy="1.854" r="1.854" transform="translate(205.579 4.447)" fill="#f2f2f2"/>
      <circle id="Ellipse_12" data-name="Ellipse 12" cx="1.854" cy="1.854" r="1.854" transform="translate(198.19 4.447)" fill="#f2f2f2"/>
      <circle id="Ellipse_13" data-name="Ellipse 13" cx="1.854" cy="1.854" r="1.854" transform="translate(220.357 12.188)" fill="#f2f2f2"/>
      <circle id="Ellipse_14" data-name="Ellipse 14" cx="1.854" cy="1.854" r="1.854" transform="translate(212.968 12.188)" fill="#f2f2f2"/>
      <circle id="Ellipse_15" data-name="Ellipse 15" cx="1.854" cy="1.854" r="1.854" transform="translate(205.579 12.188)" fill="#f2f2f2"/>
      <circle id="Ellipse_16" data-name="Ellipse 16" cx="1.854" cy="1.854" r="1.854" transform="translate(198.19 12.188)" fill="#f2f2f2"/>
      <circle id="Ellipse_17" data-name="Ellipse 17" cx="1.854" cy="1.854" r="1.854" transform="translate(220.357 19.928)" fill="#f2f2f2"/>
      <circle id="Ellipse_18" data-name="Ellipse 18" cx="1.854" cy="1.854" r="1.854" transform="translate(212.968 19.928)" fill="#f2f2f2"/>
      <circle id="Ellipse_19" data-name="Ellipse 19" cx="1.854" cy="1.854" r="1.854" transform="translate(205.579 19.928)" fill="#f2f2f2"/>
      <circle id="Ellipse_20" data-name="Ellipse 20" cx="1.854" cy="1.854" r="1.854" transform="translate(198.19 19.928)" fill="#f2f2f2"/>
      <circle id="Ellipse_21" data-name="Ellipse 21" cx="1.854" cy="1.854" r="1.854" transform="translate(220.357 27.669)" fill="#f2f2f2"/>
      <circle id="Ellipse_22" data-name="Ellipse 22" cx="1.854" cy="1.854" r="1.854" transform="translate(212.968 27.669)" fill="#f2f2f2"/>
      <circle id="Ellipse_23" data-name="Ellipse 23" cx="1.854" cy="1.854" r="1.854" transform="translate(205.579 27.669)" fill="#f2f2f2"/>
      <circle id="Ellipse_24" data-name="Ellipse 24" cx="1.854" cy="1.854" r="1.854" transform="translate(198.19 27.669)" fill="#f2f2f2"/>
      <circle id="Ellipse_25" data-name="Ellipse 25" cx="1.854" cy="1.854" r="1.854" transform="translate(220.357 35.41)" fill="#f2f2f2"/>
      <circle id="Ellipse_26" data-name="Ellipse 26" cx="1.854" cy="1.854" r="1.854" transform="translate(212.968 35.41)" fill="#f2f2f2"/>
      <circle id="Ellipse_27" data-name="Ellipse 27" cx="1.854" cy="1.854" r="1.854" transform="translate(205.579 35.41)" fill="#f2f2f2"/>
      <circle id="Ellipse_28" data-name="Ellipse 28" cx="1.854" cy="1.854" r="1.854" transform="translate(198.19 35.41)" fill="#f2f2f2"/>
      <circle id="Ellipse_29" data-name="Ellipse 29" cx="1.854" cy="1.854" r="1.854" transform="translate(220.357 43.15)" fill="#f2f2f2"/>
      <circle id="Ellipse_30" data-name="Ellipse 30" cx="1.854" cy="1.854" r="1.854" transform="translate(212.968 43.15)" fill="#f2f2f2"/>
      <circle id="Ellipse_31" data-name="Ellipse 31" cx="1.854" cy="1.854" r="1.854" transform="translate(205.579 43.15)" fill="#f2f2f2"/>
      <circle id="Ellipse_32" data-name="Ellipse 32" cx="1.854" cy="1.854" r="1.854" transform="translate(198.19 43.15)" fill="#f2f2f2"/>
      <path id="Path_53" data-name="Path 53" d="M855.789,601.791a38.26,38.26,0,0,0,3.257-8.957,13.185,13.185,0,0,0-1.326-9.248c-1.664-2.717-4.939-4.559-8.065-3.945a8.888,8.888,0,0,0-5.836,4.848A26.309,26.309,0,0,0,841.657,592a30.755,30.755,0,0,0-1.284-8.658,10.378,10.378,0,0,0-5.61-6.406c-2.726-1.069-6.272-.228-7.709,2.323-2.024,3.595.66,8.637-1.668,12.043a6.39,6.39,0,1,0-12.6,2.039,8.611,8.611,0,0,0,3.418,4.94,28.222,28.222,0,0,0,5.417,3.466Z" transform="translate(-636.734 -473.939)" fill="#f2f2f2"/>
      <path id="Path_54" data-name="Path 54" d="M818.9,616.051a42.282,42.282,0,0,1,7.882,3.37A14.531,14.531,0,0,1,832.2,624.8a9.563,9.563,0,0,1,1.183,3.973c.018.292.474.294.456,0a11.218,11.218,0,0,0-3.179-6.855,20.1,20.1,0,0,0-6.984-4.561c-1.525-.648-3.087-1.2-4.65-1.744-.278-.1-.4.344-.121.44Z" transform="translate(-641.069 -501.837)" fill="#fff"/>
      <path id="Path_55" data-name="Path 55" d="M873.489,578.809a41.1,41.1,0,0,1,3.954,8.777,41.6,41.6,0,0,1,1.824,9.452,41.084,41.084,0,0,1,.043,5.4c-.017.293.439.292.456,0a41.629,41.629,0,0,0-.585-9.7,42.128,42.128,0,0,0-2.8-9.3,41.074,41.074,0,0,0-2.5-4.863.228.228,0,0,0-.394.23Z" transform="translate(-680.1 -475.356)" fill="#fff"/>
      <path id="Path_56" data-name="Path 56" d="M937.764,588.493A66.523,66.523,0,0,0,932.857,605q-.385,2.4-.6,4.82c-.026.292.431.291.456,0a66.283,66.283,0,0,1,3.652-16.635q.812-2.263,1.789-4.461c.118-.266-.275-.5-.394-.23Z" transform="translate(-722.042 -482.419)" fill="#fff"/>
      <path id="Path_57" data-name="Path 57" d="M428.639,663.059H199.287a.287.287,0,1,1,0-.573H428.639a.287.287,0,1,1,0,.573Z" transform="translate(-199 -535.284)" fill="#3f3d56"/>
      <path id="Path_58" data-name="Path 58" d="M508.941,273.419H469.169a2.159,2.159,0,0,1-2.156-2.156V220.948a2.159,2.159,0,0,1,2.156-2.156h39.772a2.159,2.159,0,0,1,2.156,2.156v50.314a2.159,2.159,0,0,1-2.156,2.156Zm-39.772-54.147a1.679,1.679,0,0,0-1.677,1.677v50.314a1.679,1.679,0,0,0,1.677,1.677h39.772a1.679,1.679,0,0,0,1.677-1.677V220.949a1.679,1.679,0,0,0-1.677-1.677Z" transform="translate(-390.176 -218.793)" fill="#3f3d56"/>
      <path id="Path_59" data-name="Path 59" d="M507.893,272.082h-8.755A1.079,1.079,0,0,1,498.06,271V260.672a1.079,1.079,0,0,1,1.078-1.078h8.755a1.079,1.079,0,0,1,1.078,1.078V271A1.079,1.079,0,0,1,507.893,272.082Z" transform="translate(-412.323 -247.897)" fill="#119da4"/>
      <path id="Path_60" data-name="Path 60" d="M567.229,288.8h-8.755a1.079,1.079,0,0,1-1.078-1.078V277.386a1.079,1.079,0,0,1,1.078-1.078h8.755a1.079,1.079,0,0,1,1.078,1.078v10.331a1.079,1.079,0,0,1-1.078,1.078Z" transform="translate(-454.648 -259.819)" fill="#ccc"/>
      <path id="Path_61" data-name="Path 61" d="M519.593,339.774h-8.755a1.079,1.079,0,0,1-1.078-1.078V328.364a1.079,1.079,0,0,1,1.078-1.078h8.755a1.079,1.079,0,0,1,1.078,1.078V338.7a1.079,1.079,0,0,1-1.078,1.078Z" transform="translate(-420.668 -296.182)"/>
      <circle id="Ellipse_33" data-name="Ellipse 33" cx="1.854" cy="1.854" r="1.854" transform="translate(31.382 1.534)" fill="#f2f2f2"/>
      <circle id="Ellipse_34" data-name="Ellipse 34" cx="1.854" cy="1.854" r="1.854" transform="translate(31.382 8.923)" fill="#f2f2f2"/>
      <circle id="Ellipse_35" data-name="Ellipse 35" cx="1.854" cy="1.854" r="1.854" transform="translate(31.382 16.312)" fill="#f2f2f2"/>
      <circle id="Ellipse_36" data-name="Ellipse 36" cx="1.854" cy="1.854" r="1.854" transform="translate(31.382 23.701)" fill="#f2f2f2"/>
      <circle id="Ellipse_37" data-name="Ellipse 37" cx="1.854" cy="1.854" r="1.854" transform="translate(39.123 1.534)" fill="#f2f2f2"/>
      <circle id="Ellipse_38" data-name="Ellipse 38" cx="1.854" cy="1.854" r="1.854" transform="translate(39.123 8.923)" fill="#f2f2f2"/>
      <circle id="Ellipse_39" data-name="Ellipse 39" cx="1.854" cy="1.854" r="1.854" transform="translate(39.123 16.312)" fill="#f2f2f2"/>
      <circle id="Ellipse_40" data-name="Ellipse 40" cx="1.854" cy="1.854" r="1.854" transform="translate(39.123 23.701)" fill="#f2f2f2"/>
      <circle id="Ellipse_41" data-name="Ellipse 41" cx="1.854" cy="1.854" r="1.854" transform="translate(46.864 1.534)" fill="#f2f2f2"/>
      <circle id="Ellipse_42" data-name="Ellipse 42" cx="1.854" cy="1.854" r="1.854" transform="translate(46.864 8.923)" fill="#f2f2f2"/>
      <circle id="Ellipse_43" data-name="Ellipse 43" cx="1.854" cy="1.854" r="1.854" transform="translate(46.864 16.312)" fill="#f2f2f2"/>
      <circle id="Ellipse_44" data-name="Ellipse 44" cx="1.854" cy="1.854" r="1.854" transform="translate(46.864 23.701)" fill="#f2f2f2"/>
      <circle id="Ellipse_45" data-name="Ellipse 45" cx="1.854" cy="1.854" r="1.854" transform="translate(54.604 1.534)" fill="#f2f2f2"/>
      <circle id="Ellipse_46" data-name="Ellipse 46" cx="1.854" cy="1.854" r="1.854" transform="translate(54.604 8.923)" fill="#f2f2f2"/>
      <circle id="Ellipse_47" data-name="Ellipse 47" cx="1.854" cy="1.854" r="1.854" transform="translate(54.604 16.312)" fill="#f2f2f2"/>
      <circle id="Ellipse_48" data-name="Ellipse 48" cx="1.854" cy="1.854" r="1.854" transform="translate(54.604 23.701)" fill="#f2f2f2"/>
      <circle id="Ellipse_49" data-name="Ellipse 49" cx="1.854" cy="1.854" r="1.854" transform="translate(62.345 1.534)" fill="#f2f2f2"/>
      <circle id="Ellipse_50" data-name="Ellipse 50" cx="1.854" cy="1.854" r="1.854" transform="translate(62.345 8.923)" fill="#f2f2f2"/>
      <circle id="Ellipse_51" data-name="Ellipse 51" cx="1.854" cy="1.854" r="1.854" transform="translate(62.345 16.312)" fill="#f2f2f2"/>
      <circle id="Ellipse_52" data-name="Ellipse 52" cx="1.854" cy="1.854" r="1.854" transform="translate(62.345 23.701)" fill="#f2f2f2"/>
      <circle id="Ellipse_53" data-name="Ellipse 53" cx="1.854" cy="1.854" r="1.854" transform="translate(70.085 1.534)" fill="#f2f2f2"/>
      <circle id="Ellipse_54" data-name="Ellipse 54" cx="1.854" cy="1.854" r="1.854" transform="translate(70.085 8.923)" fill="#f2f2f2"/>
      <circle id="Ellipse_55" data-name="Ellipse 55" cx="1.854" cy="1.854" r="1.854" transform="translate(70.085 16.312)" fill="#f2f2f2"/>
      <circle id="Ellipse_56" data-name="Ellipse 56" cx="1.854" cy="1.854" r="1.854" transform="translate(70.085 23.701)" fill="#f2f2f2"/>
      <circle id="Ellipse_57" data-name="Ellipse 57" cx="12.045" cy="12.045" r="12.045" transform="translate(39.859 106.192)" fill="#2f2e41"/>
      <rect id="Rectangle_38" data-name="Rectangle 38" width="6.556" height="3.659" transform="translate(41.461 129.087) rotate(-26.601)" fill="#2f2e41"/>
      <ellipse id="Ellipse_58" data-name="Ellipse 58" cx="1.143" cy="3.049" rx="1.143" ry="3.049" transform="translate(38.152 129.622) rotate(-56.601)" fill="#2f2e41"/>
      <rect id="Rectangle_39" data-name="Rectangle 39" width="3.659" height="6.556" transform="translate(54.846 129.421) rotate(-63.399)" fill="#2f2e41"/>
      <ellipse id="Ellipse_59" data-name="Ellipse 59" cx="3.049" cy="1.143" rx="3.049" ry="1.143" transform="translate(59.304 131.071) rotate(-33.399)" fill="#2f2e41"/>
      <circle id="Ellipse_60" data-name="Ellipse 60" cx="4.116" cy="4.116" r="4.116" transform="translate(46.944 111.174)" fill="#fff"/>
      <path id="Path_62" data-name="Path 62" d="M367.783,620.371a1.422,1.422,0,0,1,2.01,2.01A1.422,1.422,0,0,1,367.783,620.371Z" transform="translate(-319.133 -504.981)" fill="#3f3d56"/>
      <path id="Path_63" data-name="Path 63" d="M368.824,564.5c.181-4.459-3.662-8.236-8.584-8.436s-9.059,3.253-9.24,7.712,3.24,5.472,8.162,5.672S368.643,568.958,368.824,564.5Z" transform="translate(-307.419 -459.366)" fill="#ccc"/>
      <ellipse id="Ellipse_61" data-name="Ellipse 61" cx="1.891" cy="6.022" rx="1.891" ry="6.022" transform="translate(59.068 116.637) rotate(-40.645)" fill="#2f2e41"/>
      <ellipse id="Ellipse_62" data-name="Ellipse 62" cx="6.022" cy="1.891" rx="6.022" ry="1.891" transform="translate(34.059 123.312) rotate(-49.355)" fill="#2f2e41"/>
      <path id="Path_64" data-name="Path 64" d="M378.047,644.21a2.744,2.744,0,0,1-5.4.983v-.005c-.27-1.491.883-2.019,2.375-2.289S377.777,642.719,378.047,644.21Z" transform="translate(-322.836 -521.227)" fill="#fff"/>
      <path id="Path_65" data-name="Path 65" d="M739.77,546.116H723.712a.717.717,0,0,1-.717.717H707.233a3.693,3.693,0,0,0-.6.573,3.558,3.558,0,0,0-.832,2.294v.573a3.585,3.585,0,0,0,3.584,3.584H739.77a3.587,3.587,0,0,0,3.584-3.584V549.7A3.589,3.589,0,0,0,739.77,546.116Z" transform="translate(-560.503 -452.276)" fill="#3f3d56"/>
      <rect id="Rectangle_40" data-name="Rectangle 40" width="3.727" height="26.375" transform="translate(162.35 101.438)" fill="#3f3d56"/>
      <path id="Path_66" data-name="Path 66" d="M752.521,655.216c0,.4-5.648.156-12.614.156s-12.614.247-12.614-.156,5.648-3.6,12.614-3.6S752.521,654.813,752.521,655.216Z" transform="translate(-575.836 -527.533)" fill="#3f3d56"/>
      <path id="Path_67" data-name="Path 67" d="M729.842,535.32l-.625-3.911a1.885,1.885,0,0,0-2.156-1.562l-6.448,1.029L709.57,532.64l-3.592.573h7.792a.717.717,0,0,1,.717.717v.565a.717.717,0,0,1-.717.717H693.94a1.815,1.815,0,0,0-.7.573,1.86,1.86,0,0,0-.355,1.422l.178,1.112.215,1.35.232,1.451a1.881,1.881,0,0,0,2.15,1.56l5.123-.817,14.776-2.359,12.718-2.03A1.889,1.889,0,0,0,729.842,535.32Z" transform="translate(-551.278 -440.655)" fill="#119da4"/>
      <path id="Path_68" data-name="Path 68" d="M700.895,549.189a1.823,1.823,0,0,0-.725-.573h-5.482a1.812,1.812,0,0,0-.728.573,1.854,1.854,0,0,0-.393,1.144v21.849a1.881,1.881,0,0,0,1.878,1.878h3.965a1.88,1.88,0,0,0,1.878-1.878V550.333A1.858,1.858,0,0,0,700.895,549.189Z" transform="translate(-551.779 -454.059)" fill="#119da4"/>
      <path id="Path_69" data-name="Path 69" d="M693.411,411.424l-.037-.049-2.46-3.03a1.81,1.81,0,0,0-.467-.41,1.378,1.378,0,0,0-.3-.155,1.8,1.8,0,0,0-.49-.12,1.9,1.9,0,0,0-.338-.006l-.006,0a1.859,1.859,0,0,0-1.038.413l-5.049,4.094-6.488,5.264-9.682,7.855-.705.573H678.6l.708-.573,2.342-1.9.166-.132,11.313-9.177.009-.006a1.851,1.851,0,0,0,.536-.7,1.892,1.892,0,0,0,.149-.565,1.863,1.863,0,0,0-.41-1.376Z" transform="translate(-532.363 -353.506)" fill="#119da4"/>
      <path id="Path_70" data-name="Path 70" d="M718.819,411.317a4.673,4.673,0,0,0-1.021-2.093,4.621,4.621,0,0,0-1.906-1.347c-.115-.043-.226-.083-.341-.115a4.918,4.918,0,0,0-.791-.166l-.006,0a4.677,4.677,0,0,0-3.383.935l-8.733,6.674a1.853,1.853,0,0,0-.616,1.31,1.9,1.9,0,0,0,.158.852c.029.06.06.12.095.178a1.649,1.649,0,0,0,.241.321l1.4,1.571,3.254,3.65.092.1.209.238a1.878,1.878,0,0,0,2.658.117l7.531-8.09a4.648,4.648,0,0,0,.915-1.442A4.721,4.721,0,0,0,718.819,411.317Z" transform="translate(-557.809 -353.448)" fill="#2f2e41"/>
      <circle id="Ellipse_63" data-name="Ellipse 63" cx="14.37" cy="14.37" r="14.37" transform="translate(149.97 18.749)" fill="#119da4"/>
      <path id="Path_71" data-name="Path 71" d="M699.074,528.42l-.393-2.466-.232-1.448a1.882,1.882,0,0,0-2.153-1.56l-10.444,1.666-2.832.453-.573.092v3.134h9.392a.717.717,0,0,1,.717.717v.565a.717.717,0,0,1-.717.717H662.117c0,.006,0,.011,0,.017l.178,1.112.447,2.8a1.881,1.881,0,0,0,2.15,1.56l5.123-.817,1.115-.178.215-.034,7.506-1.2,5.106-.817,8.1-1.293.121-.02,5.33-.849A1.883,1.883,0,0,0,699.074,528.42Z" transform="translate(-529.346 -435.733)" fill="#119da4"/>
      <path id="Path_72" data-name="Path 72" d="M753.109,426.488c0,11.714-1.19,18.721-19.538,16.714l-.074-.009a54.479,54.479,0,0,1-9.67-1.849,28.719,28.719,0,0,1-4.771-1.869c-.361-.184-.708-.376-1.049-.573h13.7a.717.717,0,0,0,.717-.717v-.565a.717.717,0,0,0-.717-.717h-9.392V418.8a2.1,2.1,0,0,0-2.1-2.1h.387c.066-.189.132-.381.2-.573.7-1.935.628-3.457,1.617-5.352,1.359-2.615,1.368-5.244,3.154-7.454,1.33-1.643-2.744-3.435-1.247-4.667,2.876-2.374,6.006-3.842,9.183-3.842C745.222,394.806,753.109,414.774,753.109,426.488Z" transform="translate(-569.213 -344.345)" fill="#2f2e41"/>
      <path id="Path_73" data-name="Path 73" d="M764.063,330.146l.015-.537a4.441,4.441,0,0,1-2.542-.574,1.65,1.65,0,0,1-.639-1.216.944.944,0,0,1,.31-.777,1.626,1.626,0,0,1,1.661-.015l.444.2L762.461,321l-.532.073.725,5.3a1.9,1.9,0,0,0-1.793.258,1.469,1.469,0,0,0-.5,1.206,2.183,2.183,0,0,0,.859,1.631A4.942,4.942,0,0,0,764.063,330.146Z" transform="translate(-599.422 -291.702)" fill="#2f2e41"/>
      <rect id="Rectangle_41" data-name="Rectangle 41" width="2.892" height="0.537" transform="translate(156.984 29.832)" fill="#2f2e41"/>
      <rect id="Rectangle_42" data-name="Rectangle 42" width="2.892" height="0.537" transform="translate(166.112 29.832)" fill="#2f2e41"/>
      <path id="Path_74" data-name="Path 74" d="M752.809,428.687l-1.138-.791-2.119-1.471a1.882,1.882,0,0,0-2.615.473l-6.906,9.94-6.43,9.254-.573.826v12.3h.052a1.872,1.872,0,0,0,1.173-.573,1.673,1.673,0,0,0,.181-.221l2-2.884,4.945-7.118,5.126-7.374.487-.7,6.284-9.045a1.639,1.639,0,0,0,.095-.149,1.52,1.52,0,0,0,.077-.152A1.878,1.878,0,0,0,752.809,428.687Z" transform="translate(-579.927 -366.661)" fill="#119da4"/>
      <path id="Path_75" data-name="Path 75" d="M769.324,419.494a4.614,4.614,0,0,0-.636-.35,4.69,4.69,0,0,0-5.728,1.479l-6.525,8.847a1.871,1.871,0,0,0,.625,2.592l5.94,3.727.075.046.3.186a1.884,1.884,0,0,0,2.583-.631l4.607-9.145.077-.152,0,0,.284-.57A4.691,4.691,0,0,0,769.324,419.494Z" transform="translate(-596.422 -361.401)" fill="#2f2e41"/>
      <path id="Path_76" data-name="Path 76" d="M662.747,548.616V570.2a1.88,1.88,0,0,0,1.878,1.878h3.965a1.88,1.88,0,0,0,1.878-1.878V548.616Z" transform="translate(-529.795 -454.059)" fill="#119da4"/>
      <path id="Path_77" data-name="Path 77" d="M649.161,489.365h-8.819V471.831a2.678,2.678,0,0,0-2.675-2.675h-32.7a2.678,2.678,0,0,0-2.678,2.674v18a2.678,2.678,0,0,0,2.678,2.675h44.2c.046,0,.089,0,.132-.006s.08-.011.12-.017a1.3,1.3,0,0,0,1.038-1.267v-.565a1.29,1.29,0,0,0-1.29-1.29Zm0,2.572h-44.2a2.105,2.105,0,0,1-2.1-2.1v-18a2.105,2.105,0,0,1,2.1-2.1h32.7a2.1,2.1,0,0,1,2.1,2.1v18.107h9.392a.717.717,0,0,1,.717.717v.565A.717.717,0,0,1,649.161,491.936Z" transform="translate(-486.669 -397.38)" fill="#3f3d56"/>
      <circle id="Ellipse_64" data-name="Ellipse 64" cx="2.205" cy="2.205" r="2.205" transform="translate(132.442 81.249)" fill="#119da4"/>
      <rect id="Rectangle_43" data-name="Rectangle 43" width="0.573" height="2.58" transform="translate(153.092 92.289)" fill="#3f3d56"/>
      <ellipse id="Ellipse_65" data-name="Ellipse 65" cx="6.173" cy="1.938" rx="6.173" ry="1.938" transform="matrix(0.357, -0.934, 0.934, 0.357, 59.126, 79.026)" fill="#2f2e41"/>
      <circle id="Ellipse_66" data-name="Ellipse 66" cx="12.347" cy="12.347" r="12.347" transform="translate(37.563 93.483) rotate(-80.783)" fill="#2f2e41"/>
      <rect id="Rectangle_44" data-name="Rectangle 44" width="3.751" height="6.721" transform="translate(46.101 92.964)" fill="#2f2e41"/>
      <rect id="Rectangle_45" data-name="Rectangle 45" width="3.751" height="6.721" transform="translate(53.604 92.964)" fill="#2f2e41"/>
      <ellipse id="Ellipse_67" data-name="Ellipse 67" cx="3.126" cy="1.172" rx="3.126" ry="1.172" transform="translate(46.101 98.591)" fill="#2f2e41"/>
      <ellipse id="Ellipse_68" data-name="Ellipse 68" cx="3.126" cy="1.172" rx="3.126" ry="1.172" transform="translate(53.604 98.435)" fill="#2f2e41"/>
      <circle id="Ellipse_69" data-name="Ellipse 69" cx="4.22" cy="4.22" r="4.22" transform="matrix(1, -0.029, 0.029, 1, 47.698, 76.055)" fill="#fff"/>
      <circle id="Ellipse_70" data-name="Ellipse 70" cx="1.407" cy="1.407" r="1.407" transform="translate(50.634 78.742)" fill="#3f3d56"/>
      <path id="Path_78" data-name="Path 78" d="M337.2,443.531c-1-4.465,2.19-8.976,7.118-10.077s9.731,1.627,10.728,6.092-2.269,6.112-7.2,7.212S338.2,448,337.2,443.531Z" transform="translate(-297.45 -371.739)" fill="#119da4"/>
      <ellipse id="Ellipse_71" data-name="Ellipse 71" cx="1.938" cy="6.173" rx="1.938" ry="6.173" transform="translate(31.413 76.651) rotate(-64.626)" fill="#2f2e41"/>
      <path id="Path_79" data-name="Path 79" d="M358.277,521.07c0,1.208,3.112,3.595,6.564,3.595s6.69-3.4,6.69-4.611-3.237.234-6.69.234S358.277,519.862,358.277,521.07Z" transform="translate(-312.614 -433.342)" fill="#fff"/>
      <path id="Path_80" data-name="Path 80" d="M431.488,466.985l-9.089,1.774a.986.986,0,0,1-.837-.221,1,1,0,0,1-.349-.809A23.765,23.765,0,0,0,419.1,456.9a1,1,0,0,1,.019-.88.986.986,0,0,1,.692-.52l9.089-1.774a1,1,0,0,1,1.126.633,38.9,38.9,0,0,1,2.268,11.619A1,1,0,0,1,431.488,466.985Z" transform="translate(-355.933 -386.357)" fill="#119da4"/>
      <path id="Path_81" data-name="Path 81" d="M292.488,495.985l-9.089,1.774a.986.986,0,0,1-.837-.221,1,1,0,0,1-.349-.808A23.764,23.764,0,0,0,280.1,485.9a1,1,0,0,1,.019-.88.986.986,0,0,1,.692-.52l9.089-1.774a1,1,0,0,1,1.126.633,38.9,38.9,0,0,1,2.268,11.619A1,1,0,0,1,292.488,495.985Z" transform="translate(-256.783 -407.043)" fill="#ccc"/>
      <path id="Path_82" data-name="Path 82" d="M747.01,267.62a10.9,10.9,0,0,1-8.184.284,10.749,10.749,0,0,1-6.89-9.539l-.647.371,2.728,1.92a.433.433,0,0,0,.632-.257,5.756,5.756,0,0,1,2.8-3.645,7.511,7.511,0,0,1,5-.831,14.151,14.151,0,0,1,8.812,5.8,15.852,15.852,0,0,1,2.478,5.172.43.43,0,0,0,.829-.229,16.757,16.757,0,0,0-6.172-9.031c-3.081-2.287-7.393-3.67-11.017-1.823a6.684,6.684,0,0,0-3.56,4.356l.632-.257-2.728-1.919a.433.433,0,0,0-.647.371,11.774,11.774,0,0,0,3.369,7.71,11.446,11.446,0,0,0,8.008,3.35,11.647,11.647,0,0,0,4.99-1.063C747.946,268.133,747.51,267.391,747.01,267.62Z" transform="translate(-578.535 -244.59)" fill="#2f2e41"/>
      <path id="Path_83" data-name="Path 83" d="M334.619,641.909l-9.089,1.774a.986.986,0,0,1-.837-.221,1,1,0,0,1-.349-.809,23.765,23.765,0,0,0-2.115-10.833,1,1,0,0,1,.019-.88.986.986,0,0,1,.692-.52l9.089-1.774a1,1,0,0,1,1.126.633,38.9,38.9,0,0,1,2.268,11.619A1,1,0,0,1,334.619,641.909Z" transform="translate(-286.835 -511.132)" fill="#119da4"/>
    </g>
  </g>
</svg>
