<svg xmlns="http://www.w3.org/2000/svg" xmlns:xlink="http://www.w3.org/1999/xlink" width="1920" height="1080" viewBox="0 0 1920 1080">
  <defs>
    <clipPath id="clip-projectsBG">
      <rect width="1920" height="1080"/>
    </clipPath>
  </defs>
  <g id="projectsBG" clip-path="url(#clip-projectsBG)">
    <rect width="1920" height="1080" fill="#fff"/>
    <g id="Group_74" data-name="Group 74">
      <path id="Path_115" data-name="Path 115" d="M5186.113,2845.1c-397.557-31.636-411.858,1421.48-800.834,1063.965s100.1-1226.992,100.1-1226.992S5583.67,2876.741,5186.113,2845.1Z" transform="translate(-4581 -2851)" fill="#119da4"/>
    </g>
    <g id="Group_79" data-name="Group 79" transform="translate(1517.293 703.42)">
      <circle id="Ellipse_79" data-name="Ellipse 79" cx="30.278" cy="30.278" r="30.278" transform="translate(244.389 110.045)" fill="#119da4" opacity="0.4"/>
      <rect id="Rectangle_47" data-name="Rectangle 47" width="168.845" height="45.762" transform="translate(106.514 182.219)" fill="#3f3d56"/>
      <path id="Path_116" data-name="Path 116" d="M660.814,259.15l-6.742,3.191,5.967-4.462a33.666,33.666,0,0,0-3.258-4.287l-29.239,7.267,26.411-10.075a33.663,33.663,0,0,0-3.835-2.923l-44.553,7.176a33.39,33.39,0,0,0-7.313,20.837h67.065A33.373,33.373,0,0,0,660.814,259.15Z" transform="translate(-396.27 -190.308)" fill="#f2f2f2"/>
      <path id="Path_117" data-name="Path 117" d="M406.569,121.772a196.594,196.594,0,0,0-237.027,50.951C231.252,159.2,338.693,135.8,406.569,121.772Z" transform="translate(-136.684 -101.971)" fill="#f2f2f2"/>
      <rect id="Rectangle_48" data-name="Rectangle 48" width="402.387" height="0.789" transform="translate(0 273.742)" fill="#2f2e41"/>
      <path id="Path_118" data-name="Path 118" d="M647.08,266.829l-22.828-33.907s34.57,12.069,30.647,33.907Z" transform="translate(-412.013 -181.262)" fill="#3f3d56"/>
      <path id="Path_119" data-name="Path 119" d="M671.91,266.83l22.827-33.907s-34.57,12.069-30.647,33.907Z" transform="translate(-435.947 -181.262)" fill="#119da4"/>
      <path id="Path_120" data-name="Path 120" d="M524.991,410.351H355.752V157.873H524.991Zm-168.45-.789H524.2v-250.9H356.541Z" transform="translate(-249.435 -135.82)" fill="#2f2e41"/>
      <rect id="Rectangle_49" data-name="Rectangle 49" width="168.45" height="0.789" transform="translate(106.909 28.042)" fill="#2f2e41"/>
      <circle id="Ellipse_80" data-name="Ellipse 80" cx="1.578" cy="1.578" r="1.578" transform="translate(109.67 23.631)" fill="#119da4"/>
      <circle id="Ellipse_81" data-name="Ellipse 81" cx="1.578" cy="1.578" r="1.578" transform="translate(114.01 23.631)" fill="#119da4"/>
      <circle id="Ellipse_82" data-name="Ellipse 82" cx="1.578" cy="1.578" r="1.578" transform="translate(118.349 23.631)" fill="#119da4"/>
      <rect id="Rectangle_50" data-name="Rectangle 50" width="7.101" height="3.945" transform="translate(112.826 33.493)" fill="#119da4"/>
      <rect id="Rectangle_51" data-name="Rectangle 51" width="34.716" height="3.945" transform="translate(112.826 64.659)" fill="#119da4"/>
      <rect id="Rectangle_52" data-name="Rectangle 52" width="34.716" height="3.945" transform="translate(271.02 37.438) rotate(180)" fill="#f2f2f2"/>
      <rect id="Rectangle_53" data-name="Rectangle 53" width="58.386" height="2.367" transform="translate(112.826 71.365)" fill="#f2f2f2"/>
      <rect id="Rectangle_54" data-name="Rectangle 54" width="55.23" height="2.367" transform="translate(112.826 76.494)" fill="#f2f2f2"/>
      <rect id="Rectangle_55" data-name="Rectangle 55" width="40.239" height="2.367" transform="translate(112.826 81.622)" fill="#f2f2f2"/>
      <rect id="Rectangle_56" data-name="Rectangle 56" width="22.881" height="2.367" transform="translate(126.239 151.843)" fill="#f2f2f2"/>
      <rect id="Rectangle_57" data-name="Rectangle 57" width="21.644" height="2.367" transform="translate(126.239 156.971)" fill="#f2f2f2"/>
      <rect id="Rectangle_58" data-name="Rectangle 58" width="15.769" height="2.367" transform="translate(126.239 162.1)" fill="#f2f2f2"/>
      <rect id="Rectangle_59" data-name="Rectangle 59" width="22.881" height="2.367" transform="translate(179.496 151.843)" fill="#f2f2f2"/>
      <rect id="Rectangle_60" data-name="Rectangle 60" width="21.644" height="2.367" transform="translate(179.496 156.971)" fill="#f2f2f2"/>
      <rect id="Rectangle_61" data-name="Rectangle 61" width="15.769" height="2.367" transform="translate(179.496 162.1)" fill="#f2f2f2"/>
      <rect id="Rectangle_62" data-name="Rectangle 62" width="22.881" height="2.367" transform="translate(234.726 151.843)" fill="#f2f2f2"/>
      <rect id="Rectangle_63" data-name="Rectangle 63" width="21.644" height="2.367" transform="translate(234.726 156.971)" fill="#f2f2f2"/>
      <rect id="Rectangle_64" data-name="Rectangle 64" width="15.769" height="2.367" transform="translate(234.726 162.1)" fill="#f2f2f2"/>
      <rect id="Rectangle_65" data-name="Rectangle 65" width="34.716" height="3.945" transform="translate(161.744 241.393)" fill="#119da4"/>
      <rect id="Rectangle_66" data-name="Rectangle 66" width="58.386" height="2.367" transform="translate(161.744 248.1)" fill="#f2f2f2"/>
      <rect id="Rectangle_67" data-name="Rectangle 67" width="55.23" height="2.367" transform="translate(161.744 253.228)" fill="#f2f2f2"/>
      <rect id="Rectangle_68" data-name="Rectangle 68" width="40.239" height="2.367" transform="translate(161.744 258.357)" fill="#f2f2f2"/>
      <rect id="Rectangle_69" data-name="Rectangle 69" width="137.285" height="0.789" transform="translate(123.28 107.264)" fill="#119da4" opacity="0.3"/>
      <rect id="Rectangle_70" data-name="Rectangle 70" width="29.193" height="26.037" transform="translate(123.083 121.072)" fill="#119da4" opacity="0.3"/>
      <rect id="Rectangle_71" data-name="Rectangle 71" width="29.193" height="26.037" transform="translate(176.34 121.072)" fill="#3f3d56"/>
      <rect id="Rectangle_72" data-name="Rectangle 72" width="29.193" height="26.037" transform="translate(231.57 121.072)" fill="#3f3d56"/>
      <path id="Path_121" data-name="Path 121" d="M560.02,454.236l-.385-.008c.008-.427.249-10.478,4.206-13.257l.221.315C560.265,443.954,560.021,454.134,560.02,454.236Z" transform="translate(-372.887 -307.237)" fill="#119da4"/>
      <circle id="Ellipse_83" data-name="Ellipse 83" cx="1.926" cy="1.926" r="1.926" transform="translate(191.065 129.757)" fill="#119da4"/>
      <path id="Path_122" data-name="Path 122" d="M569.723,450a6,6,0,0,1-3.093.134,5.464,5.464,0,0,1,5.618-1.927A6,6,0,0,1,569.723,450Z" transform="translate(-377.122 -311.521)" fill="#119da4"/>
      <path id="Path_123" data-name="Path 123" d="M700.02,454.236l-.385-.008c.008-.427.249-10.478,4.206-13.257l.221.315C700.265,443.954,700.021,454.134,700.02,454.236Z" transform="translate(-457.657 -307.237)" fill="#119da4"/>
      <circle id="Ellipse_84" data-name="Ellipse 84" cx="1.926" cy="1.926" r="1.926" transform="translate(246.294 129.757)" fill="#119da4"/>
      <path id="Path_124" data-name="Path 124" d="M709.723,450a6,6,0,0,1-3.093.134,5.464,5.464,0,0,1,5.618-1.927A6,6,0,0,1,709.723,450Z" transform="translate(-461.892 -311.521)" fill="#119da4"/>
      <rect id="Rectangle_73" data-name="Rectangle 73" width="34.716" height="3.945" transform="translate(112.826 196.815)" fill="#119da4"/>
      <rect id="Rectangle_74" data-name="Rectangle 74" width="58.386" height="2.367" transform="translate(112.826 203.522)" fill="#f2f2f2"/>
      <rect id="Rectangle_75" data-name="Rectangle 75" width="55.23" height="2.367" transform="translate(112.826 208.65)" fill="#f2f2f2"/>
      <rect id="Rectangle_76" data-name="Rectangle 76" width="40.239" height="2.367" transform="translate(112.826 213.779)" fill="#f2f2f2"/>
      <circle id="Ellipse_85" data-name="Ellipse 85" cx="12.327" cy="12.327" r="12.327" transform="translate(229.007 189.932)" fill="#119da4" opacity="0.4"/>
      <circle id="Ellipse_86" data-name="Ellipse 86" cx="8.647" cy="8.647" r="8.647" transform="translate(209.872 199.499)" fill="#119da4" opacity="0.4"/>
      <circle id="Ellipse_87" data-name="Ellipse 87" cx="31.165" cy="31.165" r="31.165" transform="translate(34.913 198.591)" fill="#2f2e41"/>
      <rect id="Rectangle_77" data-name="Rectangle 77" width="9.468" height="16.963" transform="translate(51.876 254.215)" fill="#2f2e41"/>
      <rect id="Rectangle_78" data-name="Rectangle 78" width="9.468" height="16.963" transform="translate(70.812 254.215)" fill="#2f2e41"/>
      <ellipse id="Ellipse_88" data-name="Ellipse 88" cx="7.89" cy="2.959" rx="7.89" ry="2.959" transform="translate(51.876 268.417)" fill="#2f2e41"/>
      <ellipse id="Ellipse_89" data-name="Ellipse 89" cx="7.89" cy="2.959" rx="7.89" ry="2.959" transform="translate(70.812 268.022)" fill="#2f2e41"/>
      <circle id="Ellipse_90" data-name="Ellipse 90" cx="10.651" cy="10.651" r="10.651" transform="translate(56.216 211.214)" fill="#fff"/>
      <circle id="Ellipse_91" data-name="Ellipse 91" cx="3.55" cy="3.55" r="3.55" transform="translate(63.317 213.581)" fill="#3f3d56"/>
      <path id="Path_125" data-name="Path 125" d="M176.412,570.921c-2.516-11.27,5.528-22.657,17.967-25.435s24.563,4.107,27.08,15.377-5.728,15.426-18.167,18.2S178.928,582.19,176.412,570.921Z" transform="translate(-140.565 -370.148)" fill="#119da4"/>
      <ellipse id="Ellipse_92" data-name="Ellipse 92" cx="15.583" cy="4.892" rx="15.583" ry="4.892" transform="translate(78.656 207.341) rotate(-65.077)" fill="#2f2e41"/>
      <ellipse id="Ellipse_93" data-name="Ellipse 93" cx="4.892" cy="15.583" rx="4.892" ry="15.583" transform="translate(20.845 193.255) rotate(-27.893)" fill="#2f2e41"/>
      <circle id="Ellipse_98" data-name="Ellipse 98" cx="10.651" cy="10.651" r="10.651" transform="translate(340.898 211.493)" fill="#fff"/>
      <path id="Path_127" data-name="Path 127" d="M966.97,707.8c.009,3.05-7.828,9.1-16.543,9.12s-16.91-8.54-16.919-11.59,8.173.569,16.888.544S966.958,704.747,966.97,707.8Z" transform="translate(-599.268 -466.564)" fill="#fff"/>
      <circle id="Ellipse_102" data-name="Ellipse 102" cx="31.165" cy="31.165" r="31.165" transform="translate(43.949 106.352)" fill="#2f2e41"/>
      <rect id="Rectangle_81" data-name="Rectangle 81" width="9.468" height="16.963" transform="translate(56.784 159.056) rotate(10.261)" fill="#2f2e41"/>
      <rect id="Rectangle_82" data-name="Rectangle 82" width="9.468" height="16.963" transform="translate(75.417 162.429) rotate(10.261)" fill="#2f2e41"/>
      <ellipse id="Ellipse_103" data-name="Ellipse 103" cx="2.959" cy="7.89" rx="2.959" ry="7.89" transform="matrix(0.646, -0.763, 0.763, 0.646, 70.744, 179.22)" fill="#2f2e41"/>
      <ellipse id="Ellipse_104" data-name="Ellipse 104" cx="2.959" cy="7.89" rx="2.959" ry="7.89" transform="matrix(0.646, -0.763, 0.763, 0.646, 52.499, 175.918)" fill="#2f2e41"/>
      <circle id="Ellipse_105" data-name="Ellipse 105" cx="10.651" cy="10.651" r="10.651" transform="translate(66.645 119.243)" fill="#fff"/>
      <circle id="Ellipse_106" data-name="Ellipse 106" cx="3.55" cy="3.55" r="3.55" transform="translate(78.123 122.526)" fill="#3f3d56"/>
      <path id="Path_128" data-name="Path 128" d="M214.313,331.081c-.469-11.538,9.475-21.31,22.21-21.828s23.439,8.417,23.908,19.954-8.384,14.159-21.119,14.677S214.781,342.619,214.313,331.081Z" transform="translate(-163.783 -227.468)" fill="#119da4"/>
      <ellipse id="Ellipse_107" data-name="Ellipse 107" cx="15.583" cy="4.892" rx="15.583" ry="4.892" transform="matrix(0.975, -0.223, 0.223, 0.975, 87.609, 130.553)" fill="#2f2e41"/>
      <ellipse id="Ellipse_108" data-name="Ellipse 108" cx="15.583" cy="4.892" rx="15.583" ry="4.892" transform="matrix(0.975, -0.223, 0.223, 0.975, 26.432, 140.727)" fill="#2f2e41"/>
      <path id="Path_129" data-name="Path 129" d="M254.784,476.011a7.1,7.1,0,0,0,13.975,2.53c.7-3.859-2.285-5.225-6.144-5.923S255.482,472.152,254.784,476.011Z" transform="translate(-188.229 -326.211)" fill="#fff"/>
      <rect id="Rectangle_83" data-name="Rectangle 83" width="29.193" height="26.037" transform="translate(120.533 103.818) rotate(16.689)" fill="#3f3d56"/>
      <path id="Path_130" data-name="Path 130" d="M398.557,418.131l-.367-.118c.13-.406,3.248-9.966,7.836-11.49l.121.365C401.744,408.352,398.588,418.033,398.557,418.131Z" transform="translate(-275.132 -286.378)" fill="#119da4"/>
      <circle id="Ellipse_109" data-name="Ellipse 109" cx="1.926" cy="1.926" r="1.926" transform="translate(131.509 116.838)" fill="#119da4"/>
      <path id="Path_131" data-name="Path 131" d="M413.99,416.549a6,6,0,0,1-3-.76,5.464,5.464,0,0,1,5.934-.232A6,6,0,0,1,413.99,416.549Z" transform="translate(-282.881 -291.385)" fill="#119da4"/>
    </g>
    <g id="Group_80" data-name="Group 80" transform="translate(1430.451 721.348)">
      <path id="Path_84" data-name="Path 84" d="M961.473,648.553a8.639,8.639,0,0,1-3.1-7.448,6.984,6.984,0,0,1,5.192-5.929,5.879,5.879,0,0,1,6.694,3.72c.458-5.159.986-10.535,3.729-14.928a15.81,15.81,0,0,1,11.448-7.334,14.185,14.185,0,0,1,12.478,5.094,12.874,12.874,0,0,1,1.583,13.254c-1.5,3.112-4.264,5.428-7.16,7.313a46.209,46.209,0,0,1-31.6,6.914" transform="translate(-510.757 -393.963)" fill="#f2f2f2"/>
      <path id="Path_85" data-name="Path 85" d="M1002.928,619.306a76.242,76.242,0,0,0-22.4,30.294c-.214.524.636.752.848.234a75.4,75.4,0,0,1,22.177-29.906c.439-.357-.186-.976-.622-.622Z" transform="translate(-520.383 -395.113)" fill="#fff"/>
      <path id="Path_86" data-name="Path 86" d="M3.393,0h8.346a3.393,3.393,0,0,1,3.393,3.393V68.78a7.566,7.566,0,0,1-7.566,7.566h0A7.566,7.566,0,0,1,0,68.78V3.393A3.393,3.393,0,0,1,3.393,0Z" transform="translate(353.16 129.903) rotate(-67.094)" fill="#119da4"/>
      <path id="Path_87" data-name="Path 87" d="M840.652,433.781c-1.048-1.629-3.569-1.67-5.184-.6s-2.542,2.888-3.4,4.626a35.076,35.076,0,0,0-3.62,9.626c-.558,3.4,0,7.144,2.276,9.726,2.165,2.457,5.481,3.492,8.622,4.419l29.468,8.694c3.117.92,6.53,1.829,9.535.591a9.736,9.736,0,0,0,4.538-4.3,15.079,15.079,0,0,0-2.422-17.7c-5.3-5.225-13.476-5.651-20.737-7.277a54.868,54.868,0,0,1-19.973-8.964" transform="translate(-454.23 -313.967)" fill="#2f2e41"/>
      <path id="Path_88" data-name="Path 88" d="M936.884,617.768h-8.346a3.68,3.68,0,0,1-3.675-3.676V544.532a3.68,3.68,0,0,1,3.676-3.675h8.346a3.68,3.68,0,0,1,3.676,3.676v69.561a3.68,3.68,0,0,1-3.675,3.676Z" transform="translate(-496.211 -361.07)" fill="#119da4"/>
      <path id="Path_89" data-name="Path 89" d="M907.692,617.768h-8.346a3.68,3.68,0,0,1-3.675-3.676V544.532a3.68,3.68,0,0,1,3.676-3.675h8.346a3.68,3.68,0,0,1,3.676,3.676v69.561a3.68,3.68,0,0,1-3.675,3.676Z" transform="translate(-483.526 -361.07)" fill="#119da4"/>
      <circle id="Ellipse_72" data-name="Ellipse 72" cx="28.839" cy="28.839" r="28.839" transform="translate(399.157 49.513)" fill="#119da4"/>
      <path id="Path_90" data-name="Path 90" d="M873.67,359.093c-1.869-.052-4.2-.117-5.988-1.426a4.6,4.6,0,0,1-1.81-3.434,3.094,3.094,0,0,1,1.052-2.541,3.992,3.992,0,0,1,3.776-.544l-1.526-11.154,1.12-.154,1.794,13.113-.936-.429c-1.085-.5-2.574-.751-3.5.031a1.988,1.988,0,0,0-.652,1.637,3.476,3.476,0,0,0,1.347,2.56c1.395,1.019,3.249,1.15,5.353,1.209Z" transform="translate(-470.575 -273.723)" fill="#2f2e41"/>
      <rect id="Rectangle_46" data-name="Rectangle 46" width="6.091" height="1.131" transform="translate(406.192 67.232)" fill="#2f2e41"/>
      <path id="Path_91" data-name="Path 91" d="M899.979,326.276a7.908,7.908,0,0,0,4.833-6.484,8.628,8.628,0,0,0-3.454-7.584c-4.919-3.713-11.7-1.363-16.853-4.423a6.346,6.346,0,0,1-2.89-7.122c.708-3.043,3.012-5.265,5.633-6.79a32.654,32.654,0,0,1,17.431-3.921,40.712,40.712,0,0,1,30.75,16.49,50.211,50.211,0,0,1,7.933,15.827c1.745,5.856,2.711,12.267,1.6,18.335a20.064,20.064,0,0,1-9.231,13.936c-4.683,3.049-10.175,4.613-15.6,5.747-1.352.283-2.71.536-4.07.774-1.073.188-.618,1.823.451,1.636,10.92-1.915,23.779-5.3,28.557-16.529,2.571-6.043,2.388-12.884,1.172-19.224a52.792,52.792,0,0,0-6.431-16.99c-6.346-10.666-16.676-18.649-28.978-20.993a38.212,38.212,0,0,0-18.471.893c-5.658,1.766-12.083,5.283-12.626,11.88a7.866,7.866,0,0,0,3.736,7.414c2.454,1.525,5.412,1.9,8.23,2.144,3.039.266,6.521.448,8.958,2.523a6.674,6.674,0,0,1,1.816,8,6.029,6.029,0,0,1-2.956,2.827.878.878,0,0,0-.592,1.043.853.853,0,0,0,1.043.592Z" transform="translate(-476.592 -251.296)" fill="#2f2e41"/>
      <path id="Path_92" data-name="Path 92" d="M919.939,434.662l-.118-.212a3.393,3.393,0,0,0-2.892-1.744l-14.881-.326v-1.968a3.393,3.393,0,0,0-3.393-3.393h-9.047a3.393,3.393,0,0,0-3.393,3.393v1.621l-13.49-.3a3.393,3.393,0,0,0-2.979,1.639h0a79.32,79.32,0,0,0-1.421,79.492l.118.212a3.393,3.393,0,0,0,2.891,1.744l44.2.969a3.392,3.392,0,0,0,2.979-1.639h0a79.32,79.32,0,0,0,1.421-79.492Z" transform="translate(-467.307 -311.605)" fill="#2f2e41"/>
      <path id="Path_93" data-name="Path 93" d="M3.393,0h8.346a3.393,3.393,0,0,1,3.393,3.393V68.78a7.566,7.566,0,0,1-7.566,7.566h0A7.566,7.566,0,0,1,0,68.781V3.393A3.393,3.393,0,0,1,3.393,0Z" transform="matrix(-0.976, -0.216, 0.216, -0.976, 418.761, 203.801)" fill="#119da4"/>
      <path id="Path_94" data-name="Path 94" d="M884.21,488.944c-1.445,1.29-1.09,3.786.219,5.214s3.251,2.058,5.1,2.632a35.076,35.076,0,0,0,10.075,2.068c3.441.019,7.055-1.119,9.249-3.771,2.088-2.523,2.591-5.96,3.014-9.208l3.971-30.466c.42-3.223.784-6.735-.909-9.51a9.737,9.737,0,0,0-4.956-3.809,15.079,15.079,0,0,0-17.107,5.165c-4.331,6.05-3.47,14.195-3.939,21.621a54.87,54.87,0,0,1-5.725,21.13" transform="translate(-478.109 -317.778)" fill="#2f2e41"/>
      <path id="Path_98" data-name="Path 98" d="M948.909,676.048H841.869a.673.673,0,1,1,0-1.347h107.04a.673.673,0,0,1,0,1.347Z" transform="translate(-459.856 -419.23)" fill="#3f3d56"/>
    </g>
  </g>
</svg>
