<svg xmlns="http://www.w3.org/2000/svg" xmlns:xlink="http://www.w3.org/1999/xlink" width="768" height="1024" viewBox="0 0 768 1024">
  <defs>
    <clipPath id="clip-projectsBG_tablets">
      <rect width="768" height="1024"/>
    </clipPath>
  </defs>
  <g id="projectsBG_tablets" clip-path="url(#clip-projectsBG_tablets)">
    <rect width="768" height="1024" fill="#fff"/>
    <g id="Group_89" data-name="Group 89" transform="translate(18 -67)">
      <path id="Path_115" data-name="Path 115" d="M5186.113,2845.1c-397.557-31.636-411.858,1421.48-800.834,1063.965s100.1-1226.992,100.1-1226.992S5583.67,2876.741,5186.113,2845.1Z" transform="translate(-4581 -2851)" fill="#119da4"/>
    </g>
    <g id="Group_93" data-name="Group 93" transform="translate(-1133.293 -5.248)">
      <g id="Group_79" data-name="Group 79" transform="translate(1517.293 703.419)">
        <circle id="Ellipse_79" data-name="Ellipse 79" cx="28.873" cy="28.873" r="28.873" transform="translate(233.046 104.937)" fill="#119da4" opacity="0.4"/>
        <rect id="Rectangle_47" data-name="Rectangle 47" width="161.008" height="43.638" transform="translate(101.57 173.762)" fill="#3f3d56"/>
        <path id="Path_116" data-name="Path 116" d="M657.91,258.626l-6.429,3.043,5.69-4.255a32.1,32.1,0,0,0-3.107-4.088l-27.882,6.93,25.185-9.607a32.091,32.091,0,0,0-3.657-2.788L605.225,254.7a31.841,31.841,0,0,0-6.973,19.87H662.2A31.824,31.824,0,0,0,657.91,258.626Z" transform="translate(-405.644 -192.979)" fill="#f2f2f2"/>
        <path id="Path_117" data-name="Path 117" d="M395.568,120.853a187.469,187.469,0,0,0-226.026,48.586C228.387,156.546,330.842,134.226,395.568,120.853Z" transform="translate(-138.209 -101.97)" fill="#f2f2f2"/>
        <rect id="Rectangle_48" data-name="Rectangle 48" width="383.711" height="0.752" transform="translate(0 261.037)" fill="#2f2e41"/>
        <path id="Path_118" data-name="Path 118" d="M646.02,265.256l-21.768-32.334s32.966,11.509,29.224,32.334Z" transform="translate(-421.863 -183.66)" fill="#3f3d56"/>
        <path id="Path_119" data-name="Path 119" d="M671.532,265.256,693.3,232.922s-32.966,11.509-29.225,32.334Z" transform="translate(-446.521 -183.66)" fill="#119da4"/>
        <path id="Path_120" data-name="Path 120" d="M517.136,398.633H355.752V157.873H517.136ZM356.5,397.88H516.384V158.625H356.5Z" transform="translate(-254.37 -136.843)" fill="#2f2e41"/>
        <rect id="Rectangle_49" data-name="Rectangle 49" width="160.632" height="0.752" transform="translate(101.947 26.741)" fill="#2f2e41"/>
        <circle id="Ellipse_80" data-name="Ellipse 80" cx="1.505" cy="1.505" r="1.505" transform="translate(104.58 22.534)" fill="#119da4"/>
        <circle id="Ellipse_81" data-name="Ellipse 81" cx="1.505" cy="1.505" r="1.505" transform="translate(108.718 22.534)" fill="#119da4"/>
        <circle id="Ellipse_82" data-name="Ellipse 82" cx="1.505" cy="1.505" r="1.505" transform="translate(112.856 22.534)" fill="#119da4"/>
        <rect id="Rectangle_50" data-name="Rectangle 50" width="6.771" height="3.762" transform="translate(107.589 31.939)" fill="#119da4"/>
        <rect id="Rectangle_51" data-name="Rectangle 51" width="33.104" height="3.762" transform="translate(107.589 61.658)" fill="#119da4"/>
        <rect id="Rectangle_52" data-name="Rectangle 52" width="33.104" height="3.762" transform="translate(258.44 35.701) rotate(180)" fill="#f2f2f2"/>
        <rect id="Rectangle_53" data-name="Rectangle 53" width="55.676" height="2.257" transform="translate(107.589 68.053)" fill="#f2f2f2"/>
        <rect id="Rectangle_54" data-name="Rectangle 54" width="52.666" height="2.257" transform="translate(107.589 72.943)" fill="#f2f2f2"/>
        <rect id="Rectangle_55" data-name="Rectangle 55" width="38.371" height="2.257" transform="translate(107.589 77.834)" fill="#f2f2f2"/>
        <rect id="Rectangle_56" data-name="Rectangle 56" width="21.819" height="2.257" transform="translate(120.38 144.795)" fill="#f2f2f2"/>
        <rect id="Rectangle_57" data-name="Rectangle 57" width="20.639" height="2.257" transform="translate(120.38 149.686)" fill="#f2f2f2"/>
        <rect id="Rectangle_58" data-name="Rectangle 58" width="15.037" height="2.257" transform="translate(120.38 154.576)" fill="#f2f2f2"/>
        <rect id="Rectangle_59" data-name="Rectangle 59" width="21.819" height="2.257" transform="translate(171.165 144.795)" fill="#f2f2f2"/>
        <rect id="Rectangle_60" data-name="Rectangle 60" width="20.639" height="2.257" transform="translate(171.165 149.686)" fill="#f2f2f2"/>
        <rect id="Rectangle_61" data-name="Rectangle 61" width="15.037" height="2.257" transform="translate(171.165 154.576)" fill="#f2f2f2"/>
        <rect id="Rectangle_62" data-name="Rectangle 62" width="21.819" height="2.257" transform="translate(223.831 144.795)" fill="#f2f2f2"/>
        <rect id="Rectangle_63" data-name="Rectangle 63" width="20.639" height="2.257" transform="translate(223.831 149.686)" fill="#f2f2f2"/>
        <rect id="Rectangle_64" data-name="Rectangle 64" width="15.037" height="2.257" transform="translate(223.831 154.576)" fill="#f2f2f2"/>
        <rect id="Rectangle_65" data-name="Rectangle 65" width="33.104" height="3.762" transform="translate(154.237 230.19)" fill="#119da4"/>
        <rect id="Rectangle_66" data-name="Rectangle 66" width="55.676" height="2.257" transform="translate(154.237 236.585)" fill="#f2f2f2"/>
        <rect id="Rectangle_67" data-name="Rectangle 67" width="52.666" height="2.257" transform="translate(154.237 241.475)" fill="#f2f2f2"/>
        <rect id="Rectangle_68" data-name="Rectangle 68" width="38.371" height="2.257" transform="translate(154.237 246.366)" fill="#f2f2f2"/>
        <rect id="Rectangle_69" data-name="Rectangle 69" width="130.913" height="0.752" transform="translate(117.558 102.286)" fill="#119da4" opacity="0.3"/>
        <rect id="Rectangle_70" data-name="Rectangle 70" width="27.838" height="24.828" transform="translate(117.37 115.453)" fill="#119da4" opacity="0.3"/>
        <rect id="Rectangle_71" data-name="Rectangle 71" width="27.838" height="24.828" transform="translate(168.156 115.453)" fill="#3f3d56"/>
        <rect id="Rectangle_72" data-name="Rectangle 72" width="27.838" height="24.828" transform="translate(220.822 115.453)" fill="#3f3d56"/>
        <path id="Path_121" data-name="Path 121" d="M560,453.62l-.367-.007c.008-.407.237-9.992,4.011-12.641l.211.3C560.235,443.815,560,453.523,560,453.62Z" transform="translate(-381.554 -313.444)" fill="#119da4"/>
        <circle id="Ellipse_83" data-name="Ellipse 83" cx="1.836" cy="1.836" r="1.836" transform="translate(182.197 123.734)" fill="#119da4"/>
        <path id="Path_122" data-name="Path 122" d="M569.579,449.912a5.717,5.717,0,0,1-2.95.127,5.21,5.21,0,0,1,5.357-1.837A5.716,5.716,0,0,1,569.579,449.912Z" transform="translate(-385.918 -317.857)" fill="#119da4"/>
        <path id="Path_123" data-name="Path 123" d="M700,453.62l-.367-.007c.008-.407.237-9.992,4.011-12.641l.211.3C700.235,443.815,700,453.523,700,453.62Z" transform="translate(-468.888 -313.444)" fill="#119da4"/>
        <circle id="Ellipse_84" data-name="Ellipse 84" cx="1.836" cy="1.836" r="1.836" transform="translate(234.863 123.734)" fill="#119da4"/>
        <path id="Path_124" data-name="Path 124" d="M709.579,449.912a5.717,5.717,0,0,1-2.95.127,5.21,5.21,0,0,1,5.357-1.837A5.717,5.717,0,0,1,709.579,449.912Z" transform="translate(-473.252 -317.857)" fill="#119da4"/>
        <rect id="Rectangle_73" data-name="Rectangle 73" width="33.104" height="3.762" transform="translate(107.589 187.68)" fill="#119da4"/>
        <rect id="Rectangle_74" data-name="Rectangle 74" width="55.676" height="2.257" transform="translate(107.589 194.076)" fill="#f2f2f2"/>
        <rect id="Rectangle_75" data-name="Rectangle 75" width="52.666" height="2.257" transform="translate(107.589 198.966)" fill="#f2f2f2"/>
        <rect id="Rectangle_76" data-name="Rectangle 76" width="38.371" height="2.257" transform="translate(107.589 203.857)" fill="#f2f2f2"/>
        <circle id="Ellipse_85" data-name="Ellipse 85" cx="11.755" cy="11.755" r="11.755" transform="translate(218.378 181.117)" fill="#119da4" opacity="0.4"/>
        <circle id="Ellipse_86" data-name="Ellipse 86" cx="8.246" cy="8.246" r="8.246" transform="translate(200.131 190.24)" fill="#119da4" opacity="0.4"/>
        <circle id="Ellipse_87" data-name="Ellipse 87" cx="29.719" cy="29.719" r="29.719" transform="translate(33.293 189.373)" fill="#2f2e41"/>
        <rect id="Rectangle_77" data-name="Rectangle 77" width="9.028" height="16.176" transform="translate(49.469 242.416)" fill="#2f2e41"/>
        <rect id="Rectangle_78" data-name="Rectangle 78" width="9.028" height="16.176" transform="translate(67.526 242.416)" fill="#2f2e41"/>
        <ellipse id="Ellipse_88" data-name="Ellipse 88" cx="7.524" cy="2.821" rx="7.524" ry="2.821" transform="translate(49.469 255.958)" fill="#2f2e41"/>
        <ellipse id="Ellipse_89" data-name="Ellipse 89" cx="7.524" cy="2.821" rx="7.524" ry="2.821" transform="translate(67.526 255.582)" fill="#2f2e41"/>
        <circle id="Ellipse_90" data-name="Ellipse 90" cx="10.157" cy="10.157" r="10.157" transform="translate(53.607 201.411)" fill="#fff"/>
        <circle id="Ellipse_91" data-name="Ellipse 91" cx="3.386" cy="3.386" r="3.386" transform="translate(60.378 203.668)" fill="#3f3d56"/>
        <path id="Path_125" data-name="Path 125" d="M176.39,569.711c-2.4-10.747,5.271-21.606,17.133-24.255s23.423,3.916,25.823,14.663-5.462,14.71-17.324,17.359S178.79,580.458,176.39,569.711Z" transform="translate(-142.207 -378.257)" fill="#119da4"/>
        <ellipse id="Ellipse_92" data-name="Ellipse 92" cx="14.859" cy="4.665" rx="14.859" ry="4.665" transform="translate(75.005 197.717) rotate(-65.077)" fill="#2f2e41"/>
        <ellipse id="Ellipse_93" data-name="Ellipse 93" cx="4.665" cy="14.859" rx="4.665" ry="14.859" transform="translate(19.877 184.285) rotate(-27.893)" fill="#2f2e41"/>
        <circle id="Ellipse_98" data-name="Ellipse 98" cx="10.157" cy="10.157" r="10.157" transform="translate(325.076 201.677)" fill="#fff"/>
        <path id="Path_127" data-name="Path 127" d="M965.417,707.625c.008,2.909-7.465,8.673-15.776,8.7s-16.125-8.144-16.134-11.052,7.794.542,16.1.519S965.405,704.717,965.417,707.625Z" transform="translate(-614.781 -477.589)" fill="#fff"/>
        <circle id="Ellipse_102" data-name="Ellipse 102" cx="29.719" cy="29.719" r="29.719" transform="translate(41.909 101.416)" fill="#2f2e41"/>
        <rect id="Rectangle_81" data-name="Rectangle 81" width="9.028" height="16.176" transform="translate(54.148 151.674) rotate(10.261)" fill="#2f2e41"/>
        <rect id="Rectangle_82" data-name="Rectangle 82" width="9.028" height="16.176" transform="translate(71.916 154.89) rotate(10.261)" fill="#2f2e41"/>
        <ellipse id="Ellipse_103" data-name="Ellipse 103" cx="2.821" cy="7.524" rx="2.821" ry="7.524" transform="matrix(0.646, -0.763, 0.763, 0.646, 67.461, 170.902)" fill="#2f2e41"/>
        <ellipse id="Ellipse_104" data-name="Ellipse 104" cx="2.821" cy="7.524" rx="2.821" ry="7.524" transform="matrix(0.646, -0.763, 0.763, 0.646, 50.062, 167.753)" fill="#2f2e41"/>
        <circle id="Ellipse_105" data-name="Ellipse 105" cx="10.157" cy="10.157" r="10.157" transform="translate(63.552 113.709)" fill="#fff"/>
        <circle id="Ellipse_106" data-name="Ellipse 106" cx="3.386" cy="3.386" r="3.386" transform="translate(74.497 116.839)" fill="#3f3d56"/>
        <path id="Path_128" data-name="Path 128" d="M214.312,330.067c-.447-11,9.036-20.321,21.18-20.815s22.351,8.026,22.8,19.028-7.995,13.5-20.139,14S214.759,341.069,214.312,330.067Z" transform="translate(-166.128 -231.263)" fill="#119da4"/>
        <ellipse id="Ellipse_107" data-name="Ellipse 107" cx="14.859" cy="4.665" rx="14.859" ry="4.665" transform="matrix(0.975, -0.223, 0.223, 0.975, 83.543, 124.494)" fill="#2f2e41"/>
        <ellipse id="Ellipse_108" data-name="Ellipse 108" cx="14.859" cy="4.665" rx="14.859" ry="4.665" transform="matrix(0.975, -0.223, 0.223, 0.975, 25.206, 134.195)" fill="#2f2e41"/>
        <path id="Path_129" data-name="Path 129" d="M254.778,475.839a6.771,6.771,0,0,0,13.326,2.412c.666-3.68-2.179-4.982-5.859-5.648S255.444,472.159,254.778,475.839Z" transform="translate(-191.313 -332.992)" fill="#fff"/>
        <rect id="Rectangle_83" data-name="Rectangle 83" width="27.838" height="24.828" transform="translate(114.939 99) rotate(16.689)" fill="#3f3d56"/>
        <path id="Path_130" data-name="Path 130" d="M398.54,417.592l-.35-.112c.124-.387,3.1-9.5,7.472-10.957l.116.348C401.579,408.267,398.57,417.5,398.54,417.592Z" transform="translate(-280.843 -291.954)" fill="#119da4"/>
        <circle id="Ellipse_109" data-name="Ellipse 109" cx="1.836" cy="1.836" r="1.836" transform="translate(125.405 111.415)" fill="#119da4"/>
        <path id="Path_131" data-name="Path 131" d="M413.851,416.468a5.717,5.717,0,0,1-2.862-.725,5.21,5.21,0,0,1,5.659-.222A5.717,5.717,0,0,1,413.851,416.468Z" transform="translate(-288.827 -297.113)" fill="#119da4"/>
      </g>
      <g id="Group_80" data-name="Group 80" transform="translate(1771.25 755.734)">
        <path id="Path_84" data-name="Path 84" d="M961.328,647.067a8.238,8.238,0,0,1-2.956-7.1,6.66,6.66,0,0,1,4.951-5.654,5.606,5.606,0,0,1,6.383,3.548c.437-4.92.94-10.046,3.556-14.235a15.077,15.077,0,0,1,10.916-6.994,13.527,13.527,0,0,1,11.9,4.858,12.276,12.276,0,0,1,1.51,12.639c-1.43,2.968-4.066,5.176-6.827,6.973a44.065,44.065,0,0,1-30.137,6.593" transform="translate(-868.3 -439.512)" fill="#f2f2f2"/>
        <path id="Path_85" data-name="Path 85" d="M1001.887,619.3a72.7,72.7,0,0,0-21.364,28.888c-.2.5.607.717.808.223a71.9,71.9,0,0,1,21.148-28.518c.419-.341-.178-.931-.593-.593Z" transform="translate(-878.507 -440.731)" fill="#fff"/>
        <path id="Path_86" data-name="Path 86" d="M3.235,0h7.959A3.235,3.235,0,0,1,14.43,3.235V65.588A7.215,7.215,0,0,1,7.215,72.8h0A7.215,7.215,0,0,1,0,65.588V3.235A3.235,3.235,0,0,1,3.235,0Z" transform="translate(0 88.656) rotate(-67.094)" fill="#119da4"/>
        <path id="Path_87" data-name="Path 87" d="M840.076,433.719c-1-1.554-3.4-1.592-4.944-.573a10.577,10.577,0,0,0-3.24,4.411,33.447,33.447,0,0,0-3.452,9.18c-.532,3.238,0,6.812,2.17,9.274,2.065,2.343,5.226,3.33,8.222,4.214l28.1,8.29c2.973.877,6.226,1.744,9.092.564a9.283,9.283,0,0,0,4.327-4.1,14.379,14.379,0,0,0-2.309-16.883c-5.052-4.983-12.851-5.388-19.775-6.939a52.321,52.321,0,0,1-19.046-8.548" transform="translate(-808.358 -354.684)" fill="#2f2e41"/>
        <path id="Path_88" data-name="Path 88" d="M936.326,614.2h-7.959a3.509,3.509,0,0,1-3.5-3.5V544.361a3.509,3.509,0,0,1,3.505-3.5h7.959a3.509,3.509,0,0,1,3.5,3.505v66.332A3.509,3.509,0,0,1,936.326,614.2Z" transform="translate(-852.875 -404.633)" fill="#119da4"/>
        <path id="Path_89" data-name="Path 89" d="M907.134,614.2h-7.959a3.509,3.509,0,0,1-3.5-3.5V544.361a3.509,3.509,0,0,1,3.505-3.5h7.959a3.509,3.509,0,0,1,3.5,3.505v66.332A3.509,3.509,0,0,1,907.134,614.2Z" transform="translate(-839.424 -404.633)" fill="#119da4"/>
        <circle id="Ellipse_72" data-name="Ellipse 72" cx="27.5" cy="27.5" r="27.5" transform="translate(43.863 11.998)" fill="#119da4"/>
        <path id="Path_90" data-name="Path 90" d="M873.308,358.2c-1.783-.049-4-.111-5.71-1.36a4.385,4.385,0,0,1-1.725-3.275,2.95,2.95,0,0,1,1-2.423,3.807,3.807,0,0,1,3.6-.518l-1.456-10.637,1.068-.146,1.711,12.5-.892-.409c-1.034-.474-2.454-.716-3.337.03a1.9,1.9,0,0,0-.622,1.561,3.315,3.315,0,0,0,1.284,2.442c1.33.971,3.1,1.1,5.1,1.153Z" transform="translate(-825.691 -312.01)" fill="#2f2e41"/>
        <rect id="Rectangle_46" data-name="Rectangle 46" width="5.808" height="1.078" transform="translate(50.571 28.894)" fill="#2f2e41"/>
        <path id="Path_91" data-name="Path 91" d="M899.038,324.51a7.541,7.541,0,0,0,4.609-6.183,8.228,8.228,0,0,0-3.294-7.232c-4.691-3.54-11.159-1.3-16.071-4.218a6.051,6.051,0,0,1-2.756-6.791c.675-2.9,2.872-5.021,5.372-6.475a31.139,31.139,0,0,1,16.622-3.739A38.822,38.822,0,0,1,932.843,305.6a47.885,47.885,0,0,1,7.565,15.092c1.664,5.584,2.585,11.7,1.53,17.484a19.133,19.133,0,0,1-8.8,13.289c-4.466,2.908-9.7,4.4-14.872,5.48-1.289.27-2.584.511-3.881.738-1.024.18-.59,1.739.43,1.56,10.413-1.826,22.675-5.054,27.232-15.761,2.452-5.762,2.277-12.286,1.118-18.332a50.344,50.344,0,0,0-6.132-16.2c-6.051-10.171-15.9-17.783-27.633-20.019a36.438,36.438,0,0,0-17.613.851c-5.4,1.684-11.522,5.037-12.04,11.329a7.5,7.5,0,0,0,3.563,7.07c2.34,1.454,5.161,1.81,7.848,2.045,2.9.253,6.219.427,8.542,2.406a6.364,6.364,0,0,1,1.732,7.627,5.749,5.749,0,0,1-2.819,2.7.837.837,0,0,0-.565.995.813.813,0,0,0,.995.565Z" transform="translate(-832.071 -288.228)" fill="#2f2e41"/>
        <path id="Path_92" data-name="Path 92" d="M917.08,434.307l-.112-.2a3.235,3.235,0,0,0-2.757-1.663l-14.191-.311v-1.877a3.235,3.235,0,0,0-3.235-3.235h-8.627a3.235,3.235,0,0,0-3.235,3.235V431.8l-12.864-.282a3.235,3.235,0,0,0-2.841,1.563h0a75.639,75.639,0,0,0-1.355,75.8l.112.2a3.235,3.235,0,0,0,2.757,1.663l42.153.924a3.235,3.235,0,0,0,2.841-1.563h0A75.638,75.638,0,0,0,917.08,434.307Z" transform="translate(-822.225 -352.179)" fill="#2f2e41"/>
        <path id="Path_93" data-name="Path 93" d="M3.235,0h7.959a3.235,3.235,0,0,1,3.235,3.235V65.588A7.215,7.215,0,0,1,7.215,72.8h0A7.215,7.215,0,0,1,0,65.588V3.235A3.235,3.235,0,0,1,3.235,0Z" transform="matrix(-0.976, -0.216, 0.216, -0.976, 62.556, 159.124)" fill="#119da4"/>
        <path id="Path_94" data-name="Path 94" d="M884.163,486.729c-1.378,1.23-1.04,3.611.209,4.972a10.576,10.576,0,0,0,4.864,2.509,33.446,33.446,0,0,0,9.607,1.972c3.282.019,6.728-1.067,8.82-3.6,1.991-2.406,2.47-5.684,2.874-8.781l3.787-29.052c.4-3.073.747-6.423-.867-9.068a9.286,9.286,0,0,0-4.726-3.632,14.379,14.379,0,0,0-16.312,4.925c-4.13,5.77-3.309,13.536-3.756,20.617a52.325,52.325,0,0,1-5.459,20.15" transform="translate(-833.679 -358.725)" fill="#2f2e41"/>
        <path id="Path_98" data-name="Path 98" d="M943.909,675.986H841.837a.642.642,0,0,1,0-1.284H943.909a.642.642,0,0,1,0,1.284Z" transform="translate(-814.323 -466.305)" fill="#3f3d56"/>
      </g>
    </g>
  </g>
</svg>
