<svg xmlns="http://www.w3.org/2000/svg" xmlns:xlink="http://www.w3.org/1999/xlink" width="425" height="625" viewBox="0 0 425 625">
  <defs>
    <clipPath id="clip-projectsBG_phones">
      <rect width="425" height="625"/>
    </clipPath>
  </defs>
  <g id="projectsBG_phones" clip-path="url(#clip-projectsBG_phones)">
    <rect width="425" height="625" fill="#fff"/>
    <g id="Group_81" data-name="Group 81" transform="translate(183.151 66.581)">
      <path id="Path_115" data-name="Path 115" d="M4774.06,2774.474c-225.32-17.93-233.425,805.638-453.88,603.013s56.734-695.411,56.734-695.411S4999.379,2792.4,4774.06,2774.474Z" transform="translate(-4581 -2850.999)" fill="#119da4"/>
    </g>
    <g id="Group_87" data-name="Group 87" transform="translate(-1318.11 -264.419)">
      <g id="Group_79" data-name="Group 79" transform="translate(1517.293 703.419)">
        <circle id="Ellipse_79" data-name="Ellipse 79" cx="16.99" cy="16.99" r="16.99" transform="translate(137.132 61.749)" fill="#119da4" opacity="0.4"/>
        <rect id="Rectangle_47" data-name="Rectangle 47" width="94.742" height="25.678" transform="translate(59.767 102.247)" fill="#3f3d56"/>
        <path id="Path_116" data-name="Path 116" d="M633.357,254.2l-3.783,1.79,3.348-2.5a18.891,18.891,0,0,0-1.828-2.406l-16.406,4.078,14.82-5.653a18.891,18.891,0,0,0-2.152-1.64l-25,4.027a18.736,18.736,0,0,0-4.1,11.692h37.631A18.726,18.726,0,0,0,633.357,254.2Z" transform="translate(-484.915 -215.567)" fill="#f2f2f2"/>
        <path id="Path_117" data-name="Path 117" d="M302.543,113.082a110.313,110.313,0,0,0-133,28.59C204.169,134.084,264.456,120.951,302.543,113.082Z" transform="translate(-151.105 -101.97)" fill="#f2f2f2"/>
        <rect id="Rectangle_48" data-name="Rectangle 48" width="225.788" height="0.443" transform="translate(0 153.603)" fill="#2f2e41"/>
        <path id="Path_118" data-name="Path 118" d="M637.061,251.948l-12.809-19.026s19.4,6.772,17.2,19.026Z" transform="translate(-505.16 -203.934)" fill="#3f3d56"/>
        <path id="Path_119" data-name="Path 119" d="M668.342,251.948l12.809-19.026s-19.4,6.772-17.2,19.026Z" transform="translate(-535.938 -203.935)" fill="#119da4"/>
        <path id="Path_120" data-name="Path 120" d="M450.716,299.544H355.752V157.873h94.964Zm-94.521-.443h94.078V158.316H356.195Z" transform="translate(-296.095 -145.498)" fill="#2f2e41"/>
        <rect id="Rectangle_49" data-name="Rectangle 49" width="94.521" height="0.443" transform="translate(59.989 15.735)" fill="#2f2e41"/>
        <circle id="Ellipse_80" data-name="Ellipse 80" cx="0.885" cy="0.885" r="0.885" transform="translate(61.538 13.26)" fill="#119da4"/>
        <circle id="Ellipse_81" data-name="Ellipse 81" cx="0.885" cy="0.885" r="0.885" transform="translate(63.973 13.26)" fill="#119da4"/>
        <circle id="Ellipse_82" data-name="Ellipse 82" cx="0.885" cy="0.885" r="0.885" transform="translate(66.408 13.26)" fill="#119da4"/>
        <rect id="Rectangle_50" data-name="Rectangle 50" width="3.984" height="2.214" transform="translate(63.309 18.794)" fill="#119da4"/>
        <rect id="Rectangle_51" data-name="Rectangle 51" width="19.48" height="2.214" transform="translate(63.309 36.282)" fill="#119da4"/>
        <rect id="Rectangle_52" data-name="Rectangle 52" width="19.48" height="2.214" transform="translate(152.075 21.007) rotate(180)" fill="#f2f2f2"/>
        <rect id="Rectangle_53" data-name="Rectangle 53" width="32.761" height="1.328" transform="translate(63.309 40.045)" fill="#f2f2f2"/>
        <rect id="Rectangle_54" data-name="Rectangle 54" width="30.99" height="1.328" transform="translate(63.309 42.922)" fill="#f2f2f2"/>
        <rect id="Rectangle_55" data-name="Rectangle 55" width="22.579" height="1.328" transform="translate(63.309 45.8)" fill="#f2f2f2"/>
        <rect id="Rectangle_56" data-name="Rectangle 56" width="12.839" height="1.328" transform="translate(70.835 85.202)" fill="#f2f2f2"/>
        <rect id="Rectangle_57" data-name="Rectangle 57" width="12.145" height="1.328" transform="translate(70.835 88.08)" fill="#f2f2f2"/>
        <rect id="Rectangle_58" data-name="Rectangle 58" width="8.848" height="1.328" transform="translate(70.835 90.958)" fill="#f2f2f2"/>
        <rect id="Rectangle_59" data-name="Rectangle 59" width="12.839" height="1.328" transform="translate(100.719 85.202)" fill="#f2f2f2"/>
        <rect id="Rectangle_60" data-name="Rectangle 60" width="12.145" height="1.328" transform="translate(100.719 88.08)" fill="#f2f2f2"/>
        <rect id="Rectangle_61" data-name="Rectangle 61" width="8.848" height="1.328" transform="translate(100.719 90.958)" fill="#f2f2f2"/>
        <rect id="Rectangle_62" data-name="Rectangle 62" width="12.839" height="1.328" transform="translate(131.71 85.202)" fill="#f2f2f2"/>
        <rect id="Rectangle_63" data-name="Rectangle 63" width="12.145" height="1.328" transform="translate(131.71 88.08)" fill="#f2f2f2"/>
        <rect id="Rectangle_64" data-name="Rectangle 64" width="8.848" height="1.328" transform="translate(131.71 90.958)" fill="#f2f2f2"/>
        <rect id="Rectangle_65" data-name="Rectangle 65" width="19.48" height="2.214" transform="translate(90.758 135.451)" fill="#119da4"/>
        <rect id="Rectangle_66" data-name="Rectangle 66" width="32.761" height="1.328" transform="translate(90.758 139.214)" fill="#f2f2f2"/>
        <rect id="Rectangle_67" data-name="Rectangle 67" width="30.99" height="1.328" transform="translate(90.758 142.092)" fill="#f2f2f2"/>
        <rect id="Rectangle_68" data-name="Rectangle 68" width="22.579" height="1.328" transform="translate(90.758 144.97)" fill="#f2f2f2"/>
        <rect id="Rectangle_69" data-name="Rectangle 69" width="77.034" height="0.443" transform="translate(69.175 60.188)" fill="#119da4" opacity="0.3"/>
        <rect id="Rectangle_70" data-name="Rectangle 70" width="16.381" height="14.61" transform="translate(69.065 67.936)" fill="#119da4" opacity="0.3"/>
        <rect id="Rectangle_71" data-name="Rectangle 71" width="16.381" height="14.61" transform="translate(98.948 67.936)" fill="#3f3d56"/>
        <rect id="Rectangle_72" data-name="Rectangle 72" width="16.381" height="14.61" transform="translate(129.939 67.936)" fill="#3f3d56"/>
        <path id="Path_121" data-name="Path 121" d="M559.851,448.415l-.216,0c0-.239.14-5.88,2.36-7.439l.124.177C559.988,442.645,559.852,448.357,559.851,448.415Z" transform="translate(-454.846 -365.93)" fill="#119da4"/>
        <circle id="Ellipse_83" data-name="Ellipse 83" cx="1.081" cy="1.081" r="1.081" transform="translate(107.21 72.809)" fill="#119da4"/>
        <path id="Path_122" data-name="Path 122" d="M568.365,449.144a3.364,3.364,0,0,1-1.736.075,3.066,3.066,0,0,1,3.152-1.081A3.364,3.364,0,0,1,568.365,449.144Z" transform="translate(-460.293 -371.439)" fill="#119da4"/>
        <path id="Path_123" data-name="Path 123" d="M699.851,448.415l-.216,0c0-.239.14-5.88,2.36-7.439l.124.177C699.988,442.645,699.852,448.357,699.851,448.415Z" transform="translate(-563.856 -365.93)" fill="#119da4"/>
        <circle id="Ellipse_84" data-name="Ellipse 84" cx="1.081" cy="1.081" r="1.081" transform="translate(138.201 72.809)" fill="#119da4"/>
        <path id="Path_124" data-name="Path 124" d="M708.365,449.144a3.364,3.364,0,0,1-1.736.075,3.066,3.066,0,0,1,3.152-1.081A3.364,3.364,0,0,1,708.365,449.144Z" transform="translate(-569.302 -371.439)" fill="#119da4"/>
        <rect id="Rectangle_73" data-name="Rectangle 73" width="19.48" height="2.214" transform="translate(63.309 110.437)" fill="#119da4"/>
        <rect id="Rectangle_74" data-name="Rectangle 74" width="32.761" height="1.328" transform="translate(63.309 114.2)" fill="#f2f2f2"/>
        <rect id="Rectangle_75" data-name="Rectangle 75" width="30.99" height="1.328" transform="translate(63.309 117.078)" fill="#f2f2f2"/>
        <rect id="Rectangle_76" data-name="Rectangle 76" width="22.579" height="1.328" transform="translate(63.309 119.956)" fill="#f2f2f2"/>
        <circle id="Ellipse_85" data-name="Ellipse 85" cx="6.917" cy="6.917" r="6.917" transform="translate(128.501 106.575)" fill="#119da4" opacity="0.4"/>
        <circle id="Ellipse_86" data-name="Ellipse 86" cx="4.852" cy="4.852" r="4.852" transform="translate(117.764 111.943)" fill="#119da4" opacity="0.4"/>
        <circle id="Ellipse_87" data-name="Ellipse 87" cx="17.487" cy="17.487" r="17.487" transform="translate(19.59 111.433)" fill="#2f2e41"/>
        <rect id="Rectangle_77" data-name="Rectangle 77" width="5.313" height="9.519" transform="translate(29.109 142.645)" fill="#2f2e41"/>
        <rect id="Rectangle_78" data-name="Rectangle 78" width="5.313" height="9.519" transform="translate(39.734 142.645)" fill="#2f2e41"/>
        <ellipse id="Ellipse_88" data-name="Ellipse 88" cx="4.427" cy="1.66" rx="4.427" ry="1.66" transform="translate(29.109 150.614)" fill="#2f2e41"/>
        <ellipse id="Ellipse_89" data-name="Ellipse 89" cx="4.427" cy="1.66" rx="4.427" ry="1.66" transform="translate(39.734 150.393)" fill="#2f2e41"/>
        <circle id="Ellipse_90" data-name="Ellipse 90" cx="5.977" cy="5.977" r="5.977" transform="translate(31.544 118.517)" fill="#fff"/>
        <circle id="Ellipse_91" data-name="Ellipse 91" cx="1.992" cy="1.992" r="1.992" transform="translate(35.528 119.845)" fill="#3f3d56"/>
        <path id="Path_125" data-name="Path 125" d="M176.21,559.487c-1.412-6.324,3.1-12.714,10.082-14.272s13.783,2.3,15.2,8.628-3.214,8.656-10.194,10.215S177.622,565.811,176.21,559.487Z" transform="translate(-156.095 -446.829)" fill="#119da4"/>
        <ellipse id="Ellipse_92" data-name="Ellipse 92" cx="8.744" cy="2.745" rx="8.744" ry="2.745" transform="translate(44.135 116.343) rotate(-65.077)" fill="#2f2e41"/>
        <ellipse id="Ellipse_93" data-name="Ellipse 93" cx="2.745" cy="8.744" rx="2.745" ry="8.744" transform="translate(11.697 108.439) rotate(-27.893)" fill="#2f2e41"/>
        <circle id="Ellipse_98" data-name="Ellipse 98" cx="5.977" cy="5.977" r="5.977" transform="translate(191.285 118.673)" fill="#fff"/>
        <path id="Path_127" data-name="Path 127" d="M952.284,706.176c0,1.712-4.393,5.1-9.283,5.117s-9.489-4.792-9.494-6.5,4.586.319,9.476.305S952.277,704.464,952.284,706.176Z" transform="translate(-745.958 -570.815)" fill="#fff"/>
        <circle id="Ellipse_102" data-name="Ellipse 102" cx="17.487" cy="17.487" r="17.487" transform="translate(24.661 59.677)" fill="#2f2e41"/>
        <rect id="Rectangle_81" data-name="Rectangle 81" width="5.313" height="9.519" transform="translate(31.863 89.25) rotate(10.261)" fill="#2f2e41"/>
        <rect id="Rectangle_82" data-name="Rectangle 82" width="5.313" height="9.519" transform="translate(42.318 91.143) rotate(10.261)" fill="#2f2e41"/>
        <ellipse id="Ellipse_103" data-name="Ellipse 103" cx="1.66" cy="4.427" rx="1.66" ry="4.427" transform="matrix(0.646, -0.763, 0.763, 0.646, 39.696, 100.564)" fill="#2f2e41"/>
        <ellipse id="Ellipse_104" data-name="Ellipse 104" cx="1.66" cy="4.427" rx="1.66" ry="4.427" transform="matrix(0.646, -0.763, 0.763, 0.646, 29.458, 98.711)" fill="#2f2e41"/>
        <circle id="Ellipse_105" data-name="Ellipse 105" cx="5.977" cy="5.977" r="5.977" transform="translate(37.396 66.91)" fill="#fff"/>
        <circle id="Ellipse_106" data-name="Ellipse 106" cx="1.992" cy="1.992" r="1.992" transform="translate(43.836 68.752)" fill="#3f3d56"/>
        <path id="Path_128" data-name="Path 128" d="M214.306,321.492c-.263-6.474,5.317-11.958,12.463-12.248s13.152,4.723,13.415,11.2-4.7,7.945-11.85,8.235S214.569,327.966,214.306,321.492Z" transform="translate(-185.953 -263.353)" fill="#119da4"/>
        <ellipse id="Ellipse_107" data-name="Ellipse 107" cx="8.744" cy="2.745" rx="8.744" ry="2.745" transform="matrix(0.975, -0.223, 0.223, 0.975, 49.159, 73.256)" fill="#2f2e41"/>
        <ellipse id="Ellipse_108" data-name="Ellipse 108" cx="8.744" cy="2.745" rx="8.744" ry="2.745" transform="matrix(0.975, -0.223, 0.223, 0.975, 14.832, 78.965)" fill="#2f2e41"/>
        <path id="Path_129" data-name="Path 129" d="M254.733,474.386a3.984,3.984,0,0,0,7.842,1.42c.392-2.165-1.282-2.932-3.448-3.324S255.125,472.221,254.733,474.386Z" transform="translate(-217.388 -390.33)" fill="#fff"/>
        <rect id="Rectangle_83" data-name="Rectangle 83" width="16.381" height="14.61" transform="translate(67.634 58.255) rotate(16.689)" fill="#3f3d56"/>
        <path id="Path_130" data-name="Path 130" d="M398.4,413.036l-.206-.066c.073-.228,1.822-5.592,4.4-6.448l.068.205C400.185,407.549,398.414,412.982,398.4,413.036Z" transform="translate(-329.14 -339.107)" fill="#119da4"/>
        <circle id="Ellipse_109" data-name="Ellipse 109" cx="1.081" cy="1.081" r="1.081" transform="translate(73.793 65.56)" fill="#119da4"/>
        <path id="Path_131" data-name="Path 131" d="M412.673,415.778a3.364,3.364,0,0,1-1.684-.427,3.066,3.066,0,0,1,3.33-.13A3.364,3.364,0,0,1,412.673,415.778Z" transform="translate(-339.105 -345.546)" fill="#119da4"/>
      </g>
      <g id="Group_80" data-name="Group 80" transform="translate(1666.73 734.203)">
        <path id="Path_84" data-name="Path 84" d="M960.1,634.508a4.848,4.848,0,0,1-1.739-4.179A3.919,3.919,0,0,1,961.271,627a3.3,3.3,0,0,1,3.756,2.088c.257-2.895.553-5.911,2.092-8.376a8.872,8.872,0,0,1,6.423-4.115,7.96,7.96,0,0,1,7,2.858,7.224,7.224,0,0,1,.888,7.437,10.747,10.747,0,0,1-4.017,4.1,25.929,25.929,0,0,1-17.734,3.88" transform="translate(-905.356 -512.376)" fill="#f2f2f2"/>
        <path id="Path_85" data-name="Path 85" d="M993.081,619.259a42.779,42.779,0,0,0-12.571,17c-.12.294.357.422.476.131a42.308,42.308,0,0,1,12.444-16.781c.246-.2-.1-.548-.349-.349Z" transform="translate(-920.48 -514.183)" fill="#fff"/>
        <path id="Path_86" data-name="Path 86" d="M1.9,0H6.587a1.9,1.9,0,0,1,1.9,1.9v36.69A4.245,4.245,0,0,1,4.245,42.84h0A4.245,4.245,0,0,1,0,38.594V1.9A1.9,1.9,0,0,1,1.9,0Z" transform="translate(0 52.168) rotate(-67.094)" fill="#119da4"/>
        <path id="Path_87" data-name="Path 87" d="M835.208,433.2a2.142,2.142,0,0,0-2.909-.337,6.224,6.224,0,0,0-1.907,2.6,19.68,19.68,0,0,0-2.031,5.4,6.647,6.647,0,0,0,1.277,5.457c1.215,1.379,3.075,1.96,4.838,2.48l16.535,4.878c1.749.516,3.664,1.026,5.35.332a5.463,5.463,0,0,0,2.546-2.412,8.461,8.461,0,0,0-1.359-9.934c-2.972-2.932-7.562-3.171-11.636-4.083a30.787,30.787,0,0,1-11.207-5.03" transform="translate(-816.544 -386.691)" fill="#2f2e41"/>
        <path id="Path_88" data-name="Path 88" d="M931.608,584.013h-4.683a2.065,2.065,0,0,1-2.062-2.062V542.918a2.065,2.065,0,0,1,2.063-2.062h4.683a2.065,2.065,0,0,1,2.062,2.062v39.032A2.065,2.065,0,0,1,931.608,584.013Z" transform="translate(-882.502 -460.698)" fill="#119da4"/>
        <path id="Path_89" data-name="Path 89" d="M902.416,584.013h-4.683a2.065,2.065,0,0,1-2.062-2.062V542.918a2.065,2.065,0,0,1,2.062-2.062h4.683a2.065,2.065,0,0,1,2.062,2.062v39.032A2.065,2.065,0,0,1,902.416,584.013Z" transform="translate(-862.573 -460.698)" fill="#119da4"/>
        <circle id="Ellipse_72" data-name="Ellipse 72" cx="16.182" cy="16.182" r="16.182" transform="translate(25.81 7.06)" fill="#119da4"/>
        <path id="Path_90" data-name="Path 90" d="M870.245,350.643a5.838,5.838,0,0,1-3.36-.8,2.58,2.58,0,0,1-1.015-1.927,1.736,1.736,0,0,1,.59-1.426,2.24,2.24,0,0,1,2.119-.305l-.857-6.259.629-.086,1.007,7.358-.525-.241a1.921,1.921,0,0,0-1.963.018,1.116,1.116,0,0,0-.366.919,1.95,1.95,0,0,0,.756,1.437,5.249,5.249,0,0,0,3,.678Z" transform="translate(-842.225 -323.464)" fill="#2f2e41"/>
        <rect id="Rectangle_46" data-name="Rectangle 46" width="3.418" height="0.635" transform="translate(29.758 17.002)" fill="#2f2e41"/>
        <path id="Path_91" data-name="Path 91" d="M891.084,309.578a4.437,4.437,0,0,0,2.712-3.639,4.842,4.842,0,0,0-1.938-4.256c-2.76-2.083-6.566-.765-9.457-2.482a3.561,3.561,0,0,1-1.622-4,6.219,6.219,0,0,1,3.161-3.81,18.323,18.323,0,0,1,9.781-2.2,22.844,22.844,0,0,1,17.255,9.253,28.178,28.178,0,0,1,4.451,8.881,22.469,22.469,0,0,1,.9,10.288,11.258,11.258,0,0,1-5.18,7.82,25.384,25.384,0,0,1-8.751,3.224c-.758.159-1.52.3-2.283.434-.6.106-.347,1.023.253.918,6.127-1.075,13.343-2.974,16.024-9.274,1.443-3.391,1.34-7.23.658-10.787a29.624,29.624,0,0,0-3.608-9.533,24.479,24.479,0,0,0-16.26-11.78,21.441,21.441,0,0,0-10.364.5c-3.175.991-6.78,2.964-7.085,6.666a4.414,4.414,0,0,0,2.1,4.16,10.318,10.318,0,0,0,4.618,1.2c1.7.149,3.659.251,5.026,1.416a3.745,3.745,0,0,1,1.019,4.488,3.383,3.383,0,0,1-1.659,1.586.493.493,0,0,0-.332.585.478.478,0,0,0,.585.332Z" transform="translate(-851.679 -288.228)" fill="#2f2e41"/>
        <path id="Path_92" data-name="Path 92" d="M892.906,431.308l-.066-.119a1.9,1.9,0,0,0-1.623-.979l-8.35-.183v-1.1a1.9,1.9,0,0,0-1.9-1.9h-5.077a1.9,1.9,0,0,0-1.9,1.9v.91l-7.57-.166a1.9,1.9,0,0,0-1.672.92h0a44.508,44.508,0,0,0-.8,44.6l.066.119a1.9,1.9,0,0,0,1.622.979l24.8.544a1.9,1.9,0,0,0,1.672-.92h0A44.508,44.508,0,0,0,892.906,431.308Z" transform="translate(-837.09 -382.981)" fill="#2f2e41"/>
        <path id="Path_93" data-name="Path 93" d="M1.9,0H6.587a1.9,1.9,0,0,1,1.9,1.9v36.69A4.245,4.245,0,0,1,4.245,42.84h0A4.245,4.245,0,0,1,0,38.594V1.9A1.9,1.9,0,0,1,1.9,0Z" transform="matrix(-0.976, -0.216, 0.216, -0.976, 36.81, 93.634)" fill="#119da4"/>
        <path id="Path_94" data-name="Path 94" d="M883.767,468a2.142,2.142,0,0,0,.123,2.926,6.224,6.224,0,0,0,2.862,1.477,19.682,19.682,0,0,0,5.653,1.16,6.647,6.647,0,0,0,5.19-2.116c1.172-1.416,1.454-3.345,1.691-5.167l2.228-17.1c.236-1.808.44-3.779-.51-5.336a5.464,5.464,0,0,0-2.781-2.137,8.461,8.461,0,0,0-9.6,2.9c-2.43,3.395-1.947,7.965-2.21,12.132A30.79,30.79,0,0,1,883.2,468.6" transform="translate(-854.061 -392.68)" fill="#2f2e41"/>
        <path id="Path_98" data-name="Path 98" d="M901.636,675.457H841.573a.378.378,0,0,1,0-.756h60.063a.378.378,0,0,1,0,.756Z" transform="translate(-825.383 -552.074)" fill="#3f3d56"/>
      </g>
    </g>
  </g>
</svg>
