<svg xmlns="http://www.w3.org/2000/svg" xmlns:xlink="http://www.w3.org/1999/xlink" width="1024" height="768" viewBox="0 0 1024 768">
  <defs>
    <clipPath id="clip-projectsBG_web">
      <rect width="1024" height="768"/>
    </clipPath>
  </defs>
  <g id="projectsBG_web" clip-path="url(#clip-projectsBG_web)">
    <rect width="1024" height="768" fill="#fff"/>
    <g id="Group_74" data-name="Group 74" transform="translate(89 -18)">
      <path id="Path_115" data-name="Path 115" d="M4960.341,2806.406c-303.185-24.127-314.09,1084.047-610.73,811.4s76.341-935.727,76.341-935.727S5263.526,2830.532,4960.341,2806.406Z" transform="translate(-4581 -2851)" fill="#119da4"/>
    </g>
    <g id="Group_98" data-name="Group 98" transform="translate(-981.7 -319.419)">
      <g id="Group_79" data-name="Group 79" transform="translate(1517.293 703.419)">
        <circle id="Ellipse_79" data-name="Ellipse 79" cx="36.717" cy="36.717" r="36.717" transform="translate(296.354 133.444)" fill="#119da4" opacity="0.4"/>
        <rect id="Rectangle_47" data-name="Rectangle 47" width="204.746" height="55.492" transform="translate(129.162 220.964)" fill="#3f3d56"/>
        <path id="Path_116" data-name="Path 116" d="M674.117,261.55l-8.175,3.869,7.236-5.41a40.82,40.82,0,0,0-3.951-5.2l-35.456,8.813L665.8,251.406a40.809,40.809,0,0,0-4.651-3.545l-54.027,8.7a40.491,40.491,0,0,0-8.868,25.268h81.324A40.469,40.469,0,0,0,674.117,261.55Z" transform="translate(-353.322 -178.07)" fill="#f2f2f2"/>
        <path id="Path_117" data-name="Path 117" d="M456.968,125.983a238.4,238.4,0,0,0-287.426,61.785C244.373,171.371,374.66,142.988,456.968,125.983Z" transform="translate(-129.698 -101.97)" fill="#f2f2f2"/>
        <rect id="Rectangle_48" data-name="Rectangle 48" width="487.946" height="0.957" transform="translate(0 331.948)" fill="#2f2e41"/>
        <path id="Path_118" data-name="Path 118" d="M651.933,274.039l-27.681-41.117s41.921,14.635,37.163,41.117Z" transform="translate(-366.884 -170.278)" fill="#3f3d56"/>
        <path id="Path_119" data-name="Path 119" d="M673.638,274.039l27.681-41.117s-41.921,14.635-37.163,41.117Z" transform="translate(-387.503 -170.278)" fill="#119da4"/>
        <path id="Path_120" data-name="Path 120" d="M560.977,464.035H355.752V157.873H560.977Zm-204.268-.957H560.02V158.83H356.709Z" transform="translate(-226.829 -131.13)" fill="#2f2e41"/>
        <rect id="Rectangle_49" data-name="Rectangle 49" width="204.268" height="0.957" transform="translate(129.641 34.005)" fill="#2f2e41"/>
        <circle id="Ellipse_80" data-name="Ellipse 80" cx="1.914" cy="1.914" r="1.914" transform="translate(132.989 28.656)" fill="#119da4"/>
        <circle id="Ellipse_81" data-name="Ellipse 81" cx="1.914" cy="1.914" r="1.914" transform="translate(138.251 28.656)" fill="#119da4"/>
        <circle id="Ellipse_82" data-name="Ellipse 82" cx="1.914" cy="1.914" r="1.914" transform="translate(143.514 28.656)" fill="#119da4"/>
        <rect id="Rectangle_50" data-name="Rectangle 50" width="8.611" height="4.784" transform="translate(136.816 40.615)" fill="#119da4"/>
        <rect id="Rectangle_51" data-name="Rectangle 51" width="42.097" height="4.784" transform="translate(136.816 78.407)" fill="#119da4"/>
        <rect id="Rectangle_52" data-name="Rectangle 52" width="42.097" height="4.784" transform="translate(328.646 45.399) rotate(180)" fill="#f2f2f2"/>
        <rect id="Rectangle_53" data-name="Rectangle 53" width="70.8" height="2.87" transform="translate(136.816 86.54)" fill="#f2f2f2"/>
        <rect id="Rectangle_54" data-name="Rectangle 54" width="66.973" height="2.87" transform="translate(136.816 92.759)" fill="#f2f2f2"/>
        <rect id="Rectangle_55" data-name="Rectangle 55" width="48.795" height="2.87" transform="translate(136.816 98.978)" fill="#f2f2f2"/>
        <rect id="Rectangle_56" data-name="Rectangle 56" width="27.746" height="2.87" transform="translate(153.081 184.129)" fill="#f2f2f2"/>
        <rect id="Rectangle_57" data-name="Rectangle 57" width="26.246" height="2.87" transform="translate(153.081 190.348)" fill="#f2f2f2"/>
        <rect id="Rectangle_58" data-name="Rectangle 58" width="19.122" height="2.87" transform="translate(153.081 196.567)" fill="#f2f2f2"/>
        <rect id="Rectangle_59" data-name="Rectangle 59" width="27.746" height="2.87" transform="translate(217.662 184.129)" fill="#f2f2f2"/>
        <rect id="Rectangle_60" data-name="Rectangle 60" width="26.246" height="2.87" transform="translate(217.662 190.348)" fill="#f2f2f2"/>
        <rect id="Rectangle_61" data-name="Rectangle 61" width="19.122" height="2.87" transform="translate(217.662 196.567)" fill="#f2f2f2"/>
        <rect id="Rectangle_62" data-name="Rectangle 62" width="27.746" height="2.87" transform="translate(284.635 184.129)" fill="#f2f2f2"/>
        <rect id="Rectangle_63" data-name="Rectangle 63" width="26.246" height="2.87" transform="translate(284.635 190.348)" fill="#f2f2f2"/>
        <rect id="Rectangle_64" data-name="Rectangle 64" width="19.122" height="2.87" transform="translate(284.635 196.567)" fill="#f2f2f2"/>
        <rect id="Rectangle_65" data-name="Rectangle 65" width="42.097" height="4.784" transform="translate(196.135 292.721)" fill="#119da4"/>
        <rect id="Rectangle_66" data-name="Rectangle 66" width="70.8" height="2.87" transform="translate(196.135 300.854)" fill="#f2f2f2"/>
        <rect id="Rectangle_67" data-name="Rectangle 67" width="66.973" height="2.87" transform="translate(196.135 307.072)" fill="#f2f2f2"/>
        <rect id="Rectangle_68" data-name="Rectangle 68" width="48.795" height="2.87" transform="translate(196.135 313.291)" fill="#f2f2f2"/>
        <rect id="Rectangle_69" data-name="Rectangle 69" width="166.476" height="0.957" transform="translate(149.493 130.072)" fill="#119da4" opacity="0.3"/>
        <rect id="Rectangle_70" data-name="Rectangle 70" width="35.4" height="31.573" transform="translate(149.254 146.816)" fill="#119da4" opacity="0.3"/>
        <rect id="Rectangle_71" data-name="Rectangle 71" width="35.4" height="31.573" transform="translate(213.835 146.816)" fill="#3f3d56"/>
        <rect id="Rectangle_72" data-name="Rectangle 72" width="35.4" height="31.573" transform="translate(280.808 146.816)" fill="#3f3d56"/>
        <path id="Path_121" data-name="Path 121" d="M560.1,457.056l-.467-.009c.01-.517.3-12.706,5.1-16.075l.268.382C560.4,444.588,560.1,456.932,560.1,457.056Z" transform="translate(-333.179 -278.801)" fill="#119da4"/>
        <circle id="Ellipse_83" data-name="Ellipse 83" cx="2.335" cy="2.335" r="2.335" transform="translate(231.691 157.347)" fill="#119da4"/>
        <path id="Path_122" data-name="Path 122" d="M570.381,450.418a7.27,7.27,0,0,1-3.751.162,6.625,6.625,0,0,1,6.812-2.337A7.269,7.269,0,0,1,570.381,450.418Z" transform="translate(-336.827 -282.491)" fill="#119da4"/>
        <path id="Path_123" data-name="Path 123" d="M700.1,457.056l-.467-.009c.01-.517.3-12.706,5.1-16.075l.268.382C700.4,444.588,700.1,456.932,700.1,457.056Z" transform="translate(-406.205 -278.801)" fill="#119da4"/>
        <circle id="Ellipse_84" data-name="Ellipse 84" cx="2.335" cy="2.335" r="2.335" transform="translate(298.664 157.347)" fill="#119da4"/>
        <path id="Path_124" data-name="Path 124" d="M710.38,450.418a7.27,7.27,0,0,1-3.751.162,6.626,6.626,0,0,1,6.812-2.337A7.27,7.27,0,0,1,710.38,450.418Z" transform="translate(-409.854 -282.491)" fill="#119da4"/>
        <rect id="Rectangle_73" data-name="Rectangle 73" width="42.097" height="4.784" transform="translate(136.816 238.664)" fill="#119da4"/>
        <rect id="Rectangle_74" data-name="Rectangle 74" width="70.8" height="2.87" transform="translate(136.816 246.797)" fill="#f2f2f2"/>
        <rect id="Rectangle_75" data-name="Rectangle 75" width="66.973" height="2.87" transform="translate(136.816 253.016)" fill="#f2f2f2"/>
        <rect id="Rectangle_76" data-name="Rectangle 76" width="48.795" height="2.87" transform="translate(136.816 259.235)" fill="#f2f2f2"/>
        <circle id="Ellipse_85" data-name="Ellipse 85" cx="14.948" cy="14.948" r="14.948" transform="translate(277.701 230.318)" fill="#119da4" opacity="0.4"/>
        <circle id="Ellipse_86" data-name="Ellipse 86" cx="10.486" cy="10.486" r="10.486" transform="translate(254.497 241.919)" fill="#119da4" opacity="0.4"/>
        <circle id="Ellipse_87" data-name="Ellipse 87" cx="37.792" cy="37.792" r="37.792" transform="translate(42.337 240.817)" fill="#2f2e41"/>
        <rect id="Rectangle_77" data-name="Rectangle 77" width="11.481" height="20.57" transform="translate(62.907 308.268)" fill="#2f2e41"/>
        <rect id="Rectangle_78" data-name="Rectangle 78" width="11.481" height="20.57" transform="translate(85.869 308.268)" fill="#2f2e41"/>
        <ellipse id="Ellipse_88" data-name="Ellipse 88" cx="9.568" cy="3.588" rx="9.568" ry="3.588" transform="translate(62.907 325.49)" fill="#2f2e41"/>
        <ellipse id="Ellipse_89" data-name="Ellipse 89" cx="9.568" cy="3.588" rx="9.568" ry="3.588" transform="translate(85.869 325.012)" fill="#2f2e41"/>
        <circle id="Ellipse_90" data-name="Ellipse 90" cx="12.916" cy="12.916" r="12.916" transform="translate(68.169 256.125)" fill="#fff"/>
        <circle id="Ellipse_91" data-name="Ellipse 91" cx="4.305" cy="4.305" r="4.305" transform="translate(76.78 258.995)" fill="#3f3d56"/>
        <path id="Path_125" data-name="Path 125" d="M176.51,576.46c-3.052-13.666,6.7-27.475,21.787-30.843s29.786,4.98,32.838,18.646-6.945,18.706-22.03,22.075S179.561,590.125,176.51,576.46Z" transform="translate(-133.041 -332.996)" fill="#119da4"/>
        <ellipse id="Ellipse_92" data-name="Ellipse 92" cx="18.896" cy="5.932" rx="18.896" ry="5.932" transform="translate(95.38 251.428) rotate(-65.077)" fill="#2f2e41"/>
        <ellipse id="Ellipse_93" data-name="Ellipse 93" cx="5.932" cy="18.896" rx="5.932" ry="18.896" transform="translate(25.277 234.346) rotate(-27.893)" fill="#2f2e41"/>
        <circle id="Ellipse_98" data-name="Ellipse 98" cx="12.916" cy="12.916" r="12.916" transform="translate(413.383 256.463)" fill="#fff"/>
        <path id="Path_127" data-name="Path 127" d="M974.085,708.582c.011,3.7-9.493,11.029-20.061,11.059s-20.506-10.356-20.516-14.055,9.911.69,20.479.66S974.07,704.883,974.085,708.582Z" transform="translate(-528.198 -416.056)" fill="#fff"/>
        <circle id="Ellipse_102" data-name="Ellipse 102" cx="37.792" cy="37.792" r="37.792" transform="translate(53.294 128.966)" fill="#2f2e41"/>
        <rect id="Rectangle_81" data-name="Rectangle 81" width="11.481" height="20.57" transform="translate(68.858 192.876) rotate(10.261)" fill="#2f2e41"/>
        <rect id="Rectangle_82" data-name="Rectangle 82" width="11.481" height="20.57" transform="translate(91.452 196.967) rotate(10.261)" fill="#2f2e41"/>
        <ellipse id="Ellipse_103" data-name="Ellipse 103" cx="3.588" cy="9.568" rx="3.588" ry="9.568" transform="matrix(0.646, -0.763, 0.763, 0.646, 85.786, 217.328)" fill="#2f2e41"/>
        <ellipse id="Ellipse_104" data-name="Ellipse 104" cx="3.588" cy="9.568" rx="3.588" ry="9.568" transform="matrix(0.646, -0.763, 0.763, 0.646, 63.662, 213.323)" fill="#2f2e41"/>
        <circle id="Ellipse_105" data-name="Ellipse 105" cx="12.916" cy="12.916" r="12.916" transform="translate(80.815 144.598)" fill="#fff"/>
        <circle id="Ellipse_106" data-name="Ellipse 106" cx="4.305" cy="4.305" r="4.305" transform="translate(94.734 148.579)" fill="#3f3d56"/>
        <path id="Path_128" data-name="Path 128" d="M214.316,335.727c-.568-13.991,11.49-25.842,26.933-26.469s28.423,10.206,28.991,24.2-10.167,17.17-25.61,17.8S214.884,349.718,214.316,335.727Z" transform="translate(-153.043 -210.082)" fill="#119da4"/>
        <ellipse id="Ellipse_107" data-name="Ellipse 107" cx="18.896" cy="5.932" rx="18.896" ry="5.932" transform="matrix(0.975, -0.223, 0.223, 0.975, 106.237, 158.313)" fill="#2f2e41"/>
        <ellipse id="Ellipse_108" data-name="Ellipse 108" cx="18.896" cy="5.932" rx="18.896" ry="5.932" transform="matrix(0.975, -0.223, 0.223, 0.975, 32.053, 170.649)" fill="#2f2e41"/>
        <path id="Path_129" data-name="Path 129" d="M254.808,476.8a8.611,8.611,0,1,0,16.946,3.068c.847-4.68-2.771-6.335-7.451-7.183S255.655,472.119,254.808,476.8Z" transform="translate(-174.102 -295.147)" fill="#fff"/>
        <rect id="Rectangle_83" data-name="Rectangle 83" width="35.4" height="31.573" transform="translate(146.162 125.893) rotate(16.689)" fill="#3f3d56"/>
        <path id="Path_130" data-name="Path 130" d="M398.635,420.6l-.445-.143c.158-.493,3.938-12.084,9.5-13.934l.147.443C402.5,408.741,398.673,420.481,398.635,420.6Z" transform="translate(-248.966 -260.831)" fill="#119da4"/>
        <circle id="Ellipse_109" data-name="Ellipse 109" cx="2.335" cy="2.335" r="2.335" transform="translate(159.472 141.681)" fill="#119da4"/>
        <path id="Path_131" data-name="Path 131" d="M414.628,416.923a7.27,7.27,0,0,1-3.64-.922,6.626,6.626,0,0,1,7.2-.282A7.271,7.271,0,0,1,414.628,416.923Z" transform="translate(-255.641 -265.145)" fill="#119da4"/>
      </g>
      <g id="Group_80" data-name="Group 80" transform="translate(1840.238 769.945)">
        <path id="Path_84" data-name="Path 84" d="M962.14,655.357a10.476,10.476,0,0,1-3.759-9.031,8.469,8.469,0,0,1,6.3-7.19,7.128,7.128,0,0,1,8.117,4.511c.555-6.256,1.2-12.774,4.521-18.1a19.172,19.172,0,0,1,13.882-8.894,17.2,17.2,0,0,1,15.132,6.177,15.611,15.611,0,0,1,1.92,16.072c-1.819,3.774-5.171,6.583-8.682,8.868a56.036,56.036,0,0,1-38.324,8.384" transform="translate(-843.841 -391.418)" fill="#f2f2f2"/>
        <path id="Path_85" data-name="Path 85" d="M1007.7,619.328a92.451,92.451,0,0,0-27.167,36.735c-.259.635.772.911,1.028.284a91.432,91.432,0,0,1,26.893-36.265c.532-.433-.226-1.184-.754-.754Z" transform="translate(-850.803 -392.25)" fill="#fff"/>
        <path id="Path_86" data-name="Path 86" d="M4.114,0H14.235a4.114,4.114,0,0,1,4.114,4.114V83.405A9.175,9.175,0,0,1,9.175,92.58h0A9.175,9.175,0,0,1,0,83.405V4.114A4.114,4.114,0,0,1,4.114,0Z" transform="translate(0 112.74) rotate(-67.094)" fill="#119da4"/>
        <path id="Path_87" data-name="Path 87" d="M843.289,434.063c-1.271-1.976-4.328-2.025-6.287-.728s-3.082,3.5-4.12,5.609c-1.845,3.743-3.713,7.555-4.39,11.673s0,8.662,2.759,11.794c2.626,2.98,6.646,4.235,10.456,5.359l35.734,10.542c3.78,1.115,7.918,2.218,11.562.717a11.805,11.805,0,0,0,5.5-5.212,18.286,18.286,0,0,0-2.937-21.469c-6.424-6.336-16.342-6.852-25.146-8.824a66.532,66.532,0,0,1-24.22-10.87" transform="translate(-802.955 -333.557)" fill="#2f2e41"/>
        <path id="Path_88" data-name="Path 88" d="M939.44,634.122H929.319a4.462,4.462,0,0,1-4.457-4.457V545.313a4.462,4.462,0,0,1,4.457-4.457H939.44a4.462,4.462,0,0,1,4.457,4.457v84.352A4.462,4.462,0,0,1,939.44,634.122Z" transform="translate(-833.32 -367.627)" fill="#119da4"/>
        <path id="Path_89" data-name="Path 89" d="M910.248,634.122H900.127a4.462,4.462,0,0,1-4.457-4.457V545.313a4.462,4.462,0,0,1,4.457-4.457h10.121a4.462,4.462,0,0,1,4.457,4.457v84.352A4.462,4.462,0,0,1,910.248,634.122Z" transform="translate(-824.145 -367.627)" fill="#119da4"/>
        <circle id="Ellipse_72" data-name="Ellipse 72" cx="34.971" cy="34.971" r="34.971" transform="translate(55.778 15.257)" fill="#119da4"/>
        <path id="Path_90" data-name="Path 90" d="M875.33,363.186c-2.267-.063-5.088-.142-7.262-1.729a5.576,5.576,0,0,1-2.194-4.164,3.751,3.751,0,0,1,1.276-3.081,4.842,4.842,0,0,1,4.579-.659l-1.851-13.526,1.359-.186,2.176,15.9-1.135-.521c-1.315-.6-3.121-.91-4.243.038a2.411,2.411,0,0,0-.791,1.985,4.215,4.215,0,0,0,1.633,3.1c1.692,1.235,3.94,1.395,6.491,1.466Z" transform="translate(-814.777 -304.449)" fill="#2f2e41"/>
        <rect id="Rectangle_46" data-name="Rectangle 46" width="7.386" height="1.371" transform="translate(64.309 36.743)" fill="#2f2e41"/>
        <path id="Path_91" data-name="Path 91" d="M904.288,334.366a9.589,9.589,0,0,0,5.861-7.863,10.463,10.463,0,0,0-4.189-9.2c-5.966-4.5-14.191-1.653-20.437-5.364a7.7,7.7,0,0,1-3.5-8.636c.859-3.69,3.652-6.384,6.831-8.234,6.286-3.657,13.937-5.021,21.137-4.754,14.805.547,28.445,8.234,37.289,20a60.892,60.892,0,0,1,9.62,19.192c2.115,7.1,3.287,14.875,1.946,22.234a24.33,24.33,0,0,1-11.194,16.9c-5.679,3.7-12.338,5.594-18.912,6.968-1.639.343-3.286.649-4.935.939-1.3.228-.75,2.211.547,1.984,13.242-2.322,28.835-6.427,34.629-20.043,3.118-7.327,2.9-15.624,1.421-23.312a64.021,64.021,0,0,0-7.8-20.6c-7.7-12.934-20.221-22.614-35.14-25.457a46.337,46.337,0,0,0-22.4,1.082c-6.861,2.141-14.652,6.406-15.311,14.407a9.539,9.539,0,0,0,4.53,8.99c2.975,1.849,6.562,2.3,9.98,2.6,3.685.322,7.908.543,10.862,3.06a8.093,8.093,0,0,1,2.2,9.7,7.311,7.311,0,0,1-3.585,3.428,1.064,1.064,0,0,0-.718,1.265,1.034,1.034,0,0,0,1.265.718Z" transform="translate(-819.13 -288.228)" fill="#2f2e41"/>
        <path id="Path_92" data-name="Path 92" d="M933.036,436.288l-.143-.257a4.114,4.114,0,0,0-3.506-2.115l-18.046-.4v-2.387a4.114,4.114,0,0,0-4.114-4.114H896.255a4.114,4.114,0,0,0-4.114,4.114V433.1l-16.359-.358a4.114,4.114,0,0,0-3.613,1.988h0a96.186,96.186,0,0,0-1.723,96.394l.143.257a4.115,4.115,0,0,0,3.506,2.115l53.6,1.175a4.114,4.114,0,0,0,3.613-1.988h0A96.185,96.185,0,0,0,933.036,436.288Z" transform="translate(-812.413 -331.849)" fill="#2f2e41"/>
        <path id="Path_93" data-name="Path 93" d="M4.114,0H14.235a4.114,4.114,0,0,1,4.114,4.114V83.405A9.175,9.175,0,0,1,9.174,92.58h0A9.175,9.175,0,0,1,0,83.405V4.114A4.114,4.114,0,0,1,4.114,0Z" transform="matrix(-0.976, -0.216, 0.216, -0.976, 79.55, 202.35)" fill="#119da4"/>
        <path id="Path_94" data-name="Path 94" d="M884.424,499.09c-1.752,1.565-1.322,4.592.266,6.323s3.942,2.5,6.185,3.191c3.986,1.236,8.044,2.484,12.217,2.507s8.555-1.357,11.216-4.573c2.532-3.06,3.141-7.228,3.655-11.166l4.815-36.944c.509-3.908.95-8.168-1.1-11.532a11.809,11.809,0,0,0-6.01-4.618,18.285,18.285,0,0,0-20.744,6.263c-5.252,7.337-4.208,17.213-4.777,26.218a66.542,66.542,0,0,1-6.942,25.623" transform="translate(-820.226 -336.314)" fill="#2f2e41"/>
        <path id="Path_98" data-name="Path 98" d="M971.812,676.335h-129.8a.816.816,0,1,1,0-1.633h129.8a.816.816,0,0,1,0,1.633Z" transform="translate(-807.024 -409.694)" fill="#3f3d56"/>
      </g>
    </g>
  </g>
</svg>
